<svg width="25" height="25" viewBox="0 0 25 25" fill="none" xmlns="http://www.w3.org/2000/svg">
<g clip-path="url(#clip0_3980_26318)">
<path d="M14.7765 3.15836C14.3965 2.77836 13.8865 2.56836 13.3565 2.56836H6.18652C5.08652 2.56836 4.18652 3.46836 4.18652 4.56836V20.5684C4.18652 21.6684 5.07652 22.5684 6.17652 22.5684H18.1865C19.2865 22.5684 20.1865 21.6684 20.1865 20.5684V9.39836C20.1865 8.86836 19.9765 8.35836 19.5965 7.98836L14.7765 3.15836ZM15.1865 18.5684H9.18652C8.63652 18.5684 8.18652 18.1184 8.18652 17.5684C8.18652 17.0184 8.63652 16.5684 9.18652 16.5684H15.1865C15.7365 16.5684 16.1865 17.0184 16.1865 17.5684C16.1865 18.1184 15.7365 18.5684 15.1865 18.5684ZM15.1865 14.5684H9.18652C8.63652 14.5684 8.18652 14.1184 8.18652 13.5684C8.18652 13.0184 8.63652 12.5684 9.18652 12.5684H15.1865C15.7365 12.5684 16.1865 13.0184 16.1865 13.5684C16.1865 14.1184 15.7365 14.5684 15.1865 14.5684ZM13.1865 8.56836V4.06836L18.6865 9.56836H14.1865C13.6365 9.56836 13.1865 9.11836 13.1865 8.56836Z" fill="white"/>
</g>
<defs>
<clipPath id="clip0_3980_26318">
<rect width="24" height="24" fill="white" transform="translate(0.186523 0.568359)"/>
</clipPath>
</defs>
</svg>
