<svg width="25" height="25" viewBox="0 0 25 25" fill="none" xmlns="http://www.w3.org/2000/svg">
<g clip-path="url(#clip0_3980_26367)">
<path d="M13.1979 11.1602C13.1326 11.1602 13.0699 11.1621 13.0137 11.1657V12.0968C13.0538 12.0992 13.0984 12.1004 13.1469 12.1004C13.5638 12.1004 13.7753 11.9319 13.7753 11.5996C13.7753 11.3039 13.5864 11.1602 13.1979 11.1602Z" fill="white"/>
<path d="M24.1865 14.04V10.5733H21.5758C21.3287 9.22669 20.799 7.9791 20.0506 6.89382L21.8974 5.047L19.4462 2.59572L17.5993 4.44254C16.5141 3.69413 15.2665 3.16444 13.9199 2.91741V0.306641H10.4532V2.91741C9.10658 3.16444 7.85898 3.69413 6.7737 4.44254L4.92688 2.59572L2.4756 5.047L4.32242 6.89382C3.57401 7.9791 3.04432 9.22669 2.79729 10.5733H0.186523V14.04H2.79729C3.04432 15.3866 3.57401 16.6342 4.32242 17.7195L2.4756 19.5663L4.92688 22.0176L6.7737 20.1707C7.85898 20.9192 9.10658 21.4488 10.4532 21.6959V24.3066H13.9199V21.6959C15.2665 21.4488 16.5141 20.9192 17.5993 20.1707L19.4462 22.0176L21.8974 19.5663L20.0506 17.7195C20.799 16.6342 21.3287 15.3866 21.5758 14.04H24.1865ZM12.1865 19.424C8.26201 19.424 5.06919 16.2312 5.06919 12.3066C5.06919 8.38213 8.26201 5.18931 12.1865 5.18931C16.111 5.18931 19.3039 8.38213 19.3039 12.3066C19.3039 16.2312 16.111 19.424 12.1865 19.424Z" fill="white"/>
<path d="M9.6748 12.3757H10.0571L9.86542 11.8125L9.6748 12.3757Z" fill="white"/>
<path d="M12.1864 6.73047C9.11179 6.73047 6.61035 9.23185 6.61035 12.3065C6.61035 15.3812 9.11179 17.8826 12.1864 17.8826C15.261 17.8826 17.7625 15.3812 17.7625 12.3065C17.7625 9.23185 15.261 6.73047 12.1864 6.73047ZM10.6759 14.2742L10.3084 13.1919H9.42558L9.0682 14.2742H8.11199L9.44051 10.3644H10.3122L11.6464 14.2742H10.6759ZM14.3561 12.4775C14.019 12.8366 13.4861 12.9406 13.0132 12.9246V14.2743H12.1002V10.441C12.4586 10.3732 12.8225 10.339 13.1873 10.3388C13.9487 10.3388 14.6878 10.7287 14.6878 11.579C14.6877 11.9486 14.5761 12.2509 14.3561 12.4775ZM16.2397 14.2742H15.3267V10.3644H16.2397V14.2742Z" fill="white"/>
</g>
<defs>
<clipPath id="clip0_3980_26367">
<rect width="24" height="24" fill="white" transform="translate(0.186523 0.306641)"/>
</clipPath>
</defs>
</svg>
