<svg width="25" height="25" viewBox="0 0 25 25" fill="none" xmlns="http://www.w3.org/2000/svg">
<g clip-path="url(#clip0_3980_26373)">
<path d="M13.4262 8.62903H12.8262V10.129H13.4762C13.8762 10.129 14.2262 9.79032 14.2262 9.40323C14.2262 8.96774 13.8762 8.62903 13.4262 8.62903ZM13.4262 8.62903H12.8262V10.129H13.4762C13.8762 10.129 14.2262 9.79032 14.2262 9.40323C14.2262 8.96774 13.8762 8.62903 13.4262 8.62903ZM3.07617 5V16.129H21.5762V5H3.07617ZM10.8262 13.5161H9.82617V11.7258H8.42617V13.5161H7.42617V9.30645C7.42617 8.3871 8.17617 7.66129 9.12617 7.66129C10.0762 7.66129 10.8262 8.3871 10.8262 9.30645V13.5161ZM13.4262 11.0968H12.8262V13.5161H11.8262V7.66129H13.4762C14.4262 7.66129 15.2262 8.43548 15.2262 9.40323C15.2262 10.3226 14.4262 11.0968 13.4262 11.0968ZM17.2262 13.5161H16.2262V7.70968H17.2262V13.5161ZM13.4262 8.62903H12.8262V10.129H13.4762C13.8762 10.129 14.2262 9.79032 14.2262 9.40323C14.2262 8.96774 13.8762 8.62903 13.4262 8.62903ZM9.12617 8.62903C8.72617 8.62903 8.42617 8.91935 8.42617 9.30645V10.7581H9.82617V9.30645C9.82617 8.91935 9.47617 8.62903 9.12617 8.62903ZM23.1762 20H1.47617L0.326172 17.1452H24.3262L23.1762 20Z" fill="white"/>
</g>
<defs>
<clipPath id="clip0_3980_26373">
<rect width="24" height="24" fill="white" transform="translate(0.511719 0.306641)"/>
</clipPath>
</defs>
</svg>
