<svg width="25" height="25" viewBox="0 0 25 25" fill="none" xmlns="http://www.w3.org/2000/svg">
<path d="M14.3867 9.94336C14.5938 9.94336 14.7617 9.77547 14.7617 9.56836C14.7617 9.36125 14.5938 9.19336 14.3867 9.19336C14.1796 9.19336 14.0117 9.36125 14.0117 9.56836C14.0117 9.77547 14.1796 9.94336 14.3867 9.94336Z" fill="white"/>
<path d="M17.3867 9.94336C17.5938 9.94336 17.7617 9.77547 17.7617 9.56836C17.7617 9.36125 17.5938 9.19336 17.3867 9.19336C17.1796 9.19336 17.0117 9.36125 17.0117 9.56836C17.0117 9.77547 17.1796 9.94336 17.3867 9.94336Z" fill="white"/>
<path d="M15.8867 9.94336C16.0938 9.94336 16.2617 9.77547 16.2617 9.56836C16.2617 9.36125 16.0938 9.19336 15.8867 9.19336C15.6796 9.19336 15.5117 9.36125 15.5117 9.56836C15.5117 9.77547 15.6796 9.94336 15.8867 9.94336Z" fill="white"/>
<path d="M21.1367 2.81836H6.88672C6.26797 2.81836 5.76172 3.32461 5.76172 3.94336V8.06836H3.88672C3.26797 8.06836 2.76172 8.57461 2.76172 9.19336V21.1934C2.76172 21.8121 3.26797 22.3184 3.88672 22.3184H18.1367C18.7555 22.3184 19.2617 21.8121 19.2617 21.1934V17.0684H21.1367C21.7555 17.0684 22.2617 16.5621 22.2617 15.9434V3.94336C22.2617 3.32461 21.7555 2.81836 21.1367 2.81836ZM18.5117 21.1934C18.5117 21.3996 18.343 21.5684 18.1367 21.5684H3.88672C3.68047 21.5684 3.51172 21.3996 3.51172 21.1934V11.0684H18.5117V21.1934ZM18.5117 10.3184H3.51172V9.19336C3.51172 8.98711 3.68047 8.81836 3.88672 8.81836H18.1367C18.343 8.81836 18.5117 8.98711 18.5117 9.19336V10.3184ZM21.5117 5.06836H6.51172V3.94336C6.51172 3.73711 6.68047 3.56836 6.88672 3.56836H21.1367C21.343 3.56836 21.5117 3.73711 21.5117 3.94336V5.06836Z" fill="white"/>
<path d="M17.3867 4.69336C17.5938 4.69336 17.7617 4.52547 17.7617 4.31836C17.7617 4.11125 17.5938 3.94336 17.3867 3.94336C17.1796 3.94336 17.0117 4.11125 17.0117 4.31836C17.0117 4.52547 17.1796 4.69336 17.3867 4.69336Z" fill="white"/>
<path d="M20.3867 4.69336C20.5938 4.69336 20.7617 4.52547 20.7617 4.31836C20.7617 4.11125 20.5938 3.94336 20.3867 3.94336C20.1796 3.94336 20.0117 4.11125 20.0117 4.31836C20.0117 4.52547 20.1796 4.69336 20.3867 4.69336Z" fill="white"/>
<path d="M18.8867 4.69336C19.0938 4.69336 19.2617 4.52547 19.2617 4.31836C19.2617 4.11125 19.0938 3.94336 18.8867 3.94336C18.6796 3.94336 18.5117 4.11125 18.5117 4.31836C18.5117 4.52547 18.6796 4.69336 18.8867 4.69336Z" fill="white"/>
</svg>
