<svg width="69" height="78" viewBox="0 0 69 78" fill="none" xmlns="http://www.w3.org/2000/svg">
<path d="M29.3808 0.129639H16.7391C-0.290884 0.129639 0.893515 14.3927 0.893515 14.3927V69.8345C0.883767 70.0084 0.877268 70.1719 0.877268 70.3424C0.877268 70.5128 0.877268 70.6903 0.893515 70.8503C1.01741 72.7987 1.84334 74.6193 3.19706 75.9282C4.55079 77.2371 6.32646 77.9319 8.14951 77.866C9.97255 77.8002 11.7004 76.9787 12.9686 75.5751C14.2368 74.1714 14.9462 72.2953 14.9471 70.3424C14.9471 69.8484 14.8171 24.4361 14.8171 23.168C14.8171 22.8689 14.8252 22.5801 14.8398 22.2983C14.8398 2.5648 29.3808 0.129639 29.3808 0.129639Z" fill="white"/>
<path d="M44.897 0.129639H36.4941C36.4941 0.129639 21.6047 2.53307 21.6047 22.0095C22.0921 13.376 38.9462 14.2069 38.9462 14.2069H40.6514C43.8213 14.2074 46.8682 15.4725 49.1551 17.7376C51.4419 20.0028 52.7916 23.0926 52.9218 26.3609C53.052 29.6293 51.9526 32.823 49.8537 35.2742C47.7547 37.7254 44.8187 39.2444 41.6596 39.5133C41.3269 39.5408 40.9941 39.5597 40.6514 39.5597H36.326C36.326 39.5597 26.0565 38.8472 26.0565 47.1528C26.0565 55.4584 37.7018 54.5159 37.7018 54.5159H44.8937C45.3927 54.5159 45.8918 54.4936 46.3826 54.461C58.5869 53.6678 68.2491 42.0215 68.2491 27.4532C68.2491 12.885 57.795 0.129639 44.897 0.129639Z" fill="white"/>
</svg>
