<svg width="158" height="28" viewBox="0 0 158 28" fill="none" xmlns="http://www.w3.org/2000/svg">
<path d="M1.69686 28C2.14434 27.9987 2.57311 27.8189 2.88953 27.5001C3.20594 27.1813 3.38429 26.7492 3.38563 26.2983V19.4896C3.47259 19.5752 3.52619 19.6883 3.61113 19.7729C3.74605 19.9557 3.89663 20.1262 4.06114 20.2824C4.22636 20.4486 4.40532 20.6003 4.59608 20.7358C4.99355 21.0237 5.42975 21.2529 5.89148 21.4165C6.00922 21.4671 6.13192 21.505 6.25755 21.5296C6.31071 21.5528 6.36867 21.5626 6.42642 21.5581C6.49318 21.5733 6.55902 21.5924 6.62362 21.6152C6.87586 21.6483 7.12973 21.6674 7.38407 21.6723C7.49621 21.6864 7.60968 21.6864 7.72182 21.6723C7.84446 21.6787 7.96742 21.6698 8.08789 21.6458C8.33558 21.6381 8.58142 21.6001 8.82003 21.5327C8.87666 21.5327 8.93227 21.5041 8.9889 21.5041C9.05566 21.4889 9.1215 21.4699 9.1861 21.4471C9.2459 21.4409 9.30359 21.4214 9.35497 21.39C9.41477 21.3839 9.47246 21.3644 9.52385 21.3329C9.58048 21.3044 9.6361 21.3044 9.69273 21.2759L9.8616 21.1883C9.9214 21.1821 9.97909 21.1626 10.0305 21.1312L10.1154 21.0741L10.2024 21.0456L10.3713 20.958C10.4218 20.9353 10.4691 20.9058 10.5118 20.8703L10.6807 20.7868C10.7328 20.7562 10.7802 20.7181 10.8213 20.6737C11.0296 20.5481 11.2274 20.4056 11.4128 20.2478C11.7752 19.9439 12.1047 19.6024 12.3958 19.2288C12.7008 18.8676 12.9565 18.467 13.1562 18.0376C13.38 17.6328 13.5593 17.2047 13.6912 16.7609C13.7698 16.547 13.8356 16.3285 13.8884 16.1067C13.9394 15.8823 13.9769 15.655 14.0006 15.426C14.0799 14.9767 14.1174 14.521 14.1129 14.0647C14.1175 13.8374 14.108 13.6101 14.0845 13.384L13.9976 12.7034C13.9762 12.4835 13.9387 12.2655 13.8853 12.0512C13.8326 11.8207 13.7668 11.5935 13.6881 11.3706C13.6256 11.1483 13.5504 10.9299 13.4626 10.7164C13.3708 10.5027 13.2675 10.2942 13.1532 10.0918C12.9538 9.66391 12.6987 9.26471 12.3948 8.90469C12.2542 8.73453 12.1136 8.53583 11.9448 8.36566C11.7759 8.1955 11.607 8.05386 11.4098 7.88573C11.2409 7.7441 11.0437 7.60246 10.8465 7.45981C10.621 7.31817 10.4239 7.20405 10.1994 7.09094C9.97934 6.98451 9.75385 6.88995 9.52385 6.80767C9.29363 6.71485 9.05706 6.63891 8.81598 6.58044C8.58243 6.52879 8.34607 6.49102 8.10811 6.46734C7.86478 6.4442 7.62036 6.43468 7.37598 6.43881C7.12164 6.44369 6.86777 6.46274 6.61553 6.49587L6.22114 6.58146C6.1089 6.60999 5.99564 6.66705 5.88339 6.69457C5.41288 6.85742 4.96732 7.08585 4.55968 7.37319C4.52638 7.42539 4.477 7.46513 4.41911 7.4863C4.37802 7.53074 4.33066 7.56885 4.27855 7.5994L4.02473 7.85516C3.94266 7.92361 3.86716 7.99969 3.79923 8.08239L3.68698 8.22403C3.64286 8.26543 3.60504 8.31315 3.57473 8.36566L3.37754 8.62142V8.14149C3.3762 7.6906 3.19785 7.25855 2.88144 6.93972C2.56502 6.62088 2.13625 6.44117 1.68877 6.43983C1.24129 6.44117 0.812519 6.62088 0.496102 6.93972C0.179685 7.25855 0.00133378 7.6906 0 8.14149V26.2973C0.00186663 26.7479 0.180453 27.1794 0.496813 27.4978C0.813173 27.8162 1.24164 27.9956 1.68877 27.9969L1.69686 28ZM3.71934 12.308C3.82612 12.035 3.96825 11.7773 4.14204 11.5418C4.29041 11.3011 4.47035 11.0818 4.67698 10.8896C5.04485 10.5177 5.48714 10.229 5.9744 10.0429C6.03103 10.0143 6.08665 10.0143 6.14328 9.98581C6.17159 9.98581 6.19991 9.95728 6.23024 9.95728L6.31519 9.92875C6.37182 9.92875 6.40013 9.90022 6.45575 9.90022C6.47145 9.90268 6.48751 9.90138 6.50262 9.89642C6.51773 9.89147 6.53147 9.88299 6.54272 9.87168H6.62766C6.67638 9.87897 6.7261 9.86888 6.76822 9.84315H6.9371C7.04105 9.83857 7.14514 9.84817 7.24654 9.87168C7.47566 9.87933 7.70278 9.91736 7.92205 9.98479C8.14551 10.0619 8.36259 10.1566 8.57126 10.2681C8.7888 10.3668 8.98868 10.5011 9.16284 10.6655C9.36114 10.8126 9.54079 10.9837 9.69778 11.1749C10.0414 11.5658 10.309 12.0182 10.4865 12.5088C10.5654 12.7605 10.6313 13.0163 10.6837 13.275C10.7306 13.5372 10.7496 13.8036 10.7404 14.0698C10.7506 14.336 10.7316 14.6026 10.6837 14.8646C10.6382 15.1249 10.5723 15.3811 10.4865 15.6308C10.309 16.1214 10.0414 16.5738 9.69778 16.9647C9.53181 17.1578 9.3509 17.3373 9.15677 17.5017C9.06782 17.5745 8.97388 17.6409 8.87565 17.7004L8.7907 17.7574C8.7907 17.7859 8.76239 17.7859 8.73407 17.8145C8.70576 17.8145 8.67744 17.843 8.64913 17.843L8.56418 17.9001C8.46945 17.9641 8.3649 18.0119 8.25474 18.0417C8.24371 18.0527 8.23031 18.061 8.21558 18.066C8.20085 18.0709 8.18518 18.0724 8.1698 18.0702C8.15855 18.0815 8.14481 18.09 8.1297 18.095C8.11459 18.0999 8.09853 18.1012 8.08283 18.0988C8.03145 18.1302 7.97376 18.1497 7.91396 18.1558C7.82113 18.2138 7.71369 18.2435 7.60452 18.2414C7.54106 18.2629 7.47423 18.2726 7.40733 18.27C7.37901 18.27 7.3507 18.2985 7.32238 18.2985H7.24148C7.12924 18.2985 7.01598 18.327 6.93204 18.327C6.8198 18.327 6.70654 18.2985 6.59429 18.2985C6.50935 18.27 6.3971 18.27 6.28485 18.2414C6.16841 18.2166 6.05511 18.1787 5.9471 18.1283C5.72313 18.0315 5.50677 17.9178 5.2999 17.788C5.08157 17.644 4.87435 17.4835 4.68001 17.3081C4.47977 17.0996 4.30058 16.8716 4.14507 16.6274C3.97127 16.3919 3.82914 16.1342 3.72237 15.8611C3.51029 15.2889 3.39608 14.6846 3.38462 14.0739C3.38528 13.4701 3.50061 12.8721 3.72439 12.3121L3.71934 12.308ZM18.0496 21.5561C18.4971 21.5548 18.9259 21.375 19.2423 21.0562C19.5587 20.7374 19.737 20.3053 19.7384 19.8544V1.70167C19.737 1.25077 19.5587 0.818723 19.2423 0.499891C18.9259 0.181058 18.4971 0.00134396 18.0496 0C17.6021 0.00134396 17.1734 0.181058 16.8569 0.499891C16.5405 0.818723 16.3622 1.25077 16.3608 1.70167V19.8575C16.3622 20.3084 16.5405 20.7404 16.8569 21.0593C17.1734 21.3781 17.6021 21.5578 18.0496 21.5592V21.5561ZM34.7452 15.0592L34.6936 12.681V12.3121C34.6936 12.1705 34.6653 12.0288 34.6653 11.9147C34.637 11.6589 34.5803 11.4052 34.5247 11.1199C34.3816 10.5987 34.1833 10.0944 33.9331 9.61592C33.6494 9.13305 33.2987 8.69351 32.8916 8.31064C32.5041 7.94837 32.068 7.64275 31.5962 7.40275C31.1426 7.1615 30.6599 6.98032 30.1602 6.86371C29.6821 6.73276 29.1909 6.65654 28.6959 6.63649C27.7448 6.57787 26.791 6.69317 25.8806 6.97682C24.9508 7.23508 24.074 7.65772 23.2909 8.22505C22.9928 8.4437 22.7929 8.77247 22.7349 9.13935C22.6769 9.50623 22.7655 9.88132 22.9814 10.1825C23.0827 10.3379 23.2141 10.4712 23.3677 10.5744C23.5213 10.6775 23.694 10.7483 23.8754 10.7826C24.0567 10.8169 24.243 10.814 24.4232 10.7741C24.6033 10.7342 24.7737 10.6581 24.924 10.5503C25.4403 10.1814 26.0249 9.92078 26.6431 9.78405C27.2475 9.61518 27.8771 9.55753 28.5018 9.61389C29.0926 9.64828 29.6689 9.81206 30.1905 10.0938C30.4146 10.2191 30.6228 10.3714 30.8104 10.5473C30.9824 10.7216 31.1252 10.9229 31.2331 11.1433C31.4313 11.5295 31.5372 11.9569 31.5426 12.3916H27.4026C26.7533 12.3916 21.9965 12.5903 21.9965 17.2143C21.9965 21.3849 26.5288 22.3488 29.4291 20.959C30.1648 20.5941 30.8393 20.1155 31.4283 19.5406V19.9095C31.4412 20.3596 31.6282 20.7868 31.9494 21.1C32.2706 21.4132 32.7005 21.5874 33.1474 21.5856C33.5958 21.5776 34.0227 21.3907 34.3345 21.066C34.6463 20.7413 34.8177 20.3052 34.8109 19.8534L34.7452 15.0592ZM31.4283 16.5072C30.8717 17.3857 30.0527 18.0636 29.0893 18.4432C27.6533 19.0393 25.373 18.5848 25.373 17.0533C25.373 15.3211 27.3955 15.264 27.7383 15.264H31.4283V16.5072ZM38.7487 6.54988C38.5264 6.54809 38.306 6.59087 38.1002 6.67571C37.8945 6.76055 37.7076 6.88577 37.5503 7.04407C37.3932 7.20253 37.269 7.39088 37.1848 7.59817C37.1006 7.80547 37.0581 8.02756 37.0599 8.25154V19.8544C37.0612 20.3053 37.2396 20.7374 37.556 21.0562C37.8724 21.375 38.3012 21.5548 38.7487 21.5561C39.1961 21.5548 39.6249 21.375 39.9413 21.0562C40.2577 20.7374 40.4361 20.3053 40.4374 19.8544V13.0743C40.4692 13.0125 40.4884 12.9449 40.4941 12.8756C40.542 12.1604 40.7651 11.4683 41.1433 10.8611C41.2944 10.6061 41.4949 10.3843 41.7328 10.209C41.9625 10.0413 42.22 9.91639 42.4933 9.8401C42.7684 9.76606 43.0534 9.73648 43.3377 9.75247H43.5349C43.5915 9.75247 43.6198 9.781 43.6471 9.781H43.7593C43.7877 9.781 43.816 9.80953 43.8443 9.80953H43.9565C44.0132 9.83806 44.0688 9.83806 44.1254 9.86659C44.1922 9.88181 44.258 9.90086 44.3226 9.92365L44.4915 10.0092L44.6604 10.0948C44.7109 10.1175 44.7582 10.147 44.8009 10.1825C45.0173 10.3283 45.2158 10.4993 45.3925 10.6919C45.5651 10.9144 45.7159 11.1533 45.8425 11.4052L46.0114 11.8311C46.0709 11.978 46.118 12.1297 46.1519 12.2846C46.2201 12.6201 46.2576 12.9612 46.2642 13.3035V13.4166L46.2925 13.5583V19.885C46.2913 20.1075 46.3343 20.328 46.419 20.5335C46.5038 20.7389 46.6286 20.9252 46.786 21.0813C46.9434 21.2374 47.1303 21.3601 47.3356 21.4422C47.5409 21.5243 47.7605 21.564 47.9813 21.5592C48.2021 21.5604 48.4209 21.517 48.6248 21.4316C48.8287 21.3462 49.0136 21.2205 49.1685 21.0619C49.3234 20.9033 49.4452 20.715 49.5266 20.5081C49.6081 20.3012 49.6476 20.08 49.6427 19.8575L49.6144 14.5528V13.1915C49.5903 12.6488 49.5243 12.1088 49.4172 11.5764C49.3003 11.0224 49.131 10.4809 48.9116 9.95932C48.6564 9.41944 48.3346 8.91413 47.954 8.45533C47.8586 8.33495 47.7552 8.22125 47.6445 8.115C47.5816 8.07644 47.5247 8.02871 47.4757 7.97336C47.4266 7.91801 47.3697 7.87028 47.3068 7.83173C47.2534 7.76912 47.1857 7.72051 47.1096 7.69009C47.0605 7.63474 47.0036 7.58701 46.9407 7.54846C46.8704 7.50811 46.8043 7.46065 46.7435 7.40682C46.6745 7.37535 46.6084 7.33749 46.5463 7.29372C46 6.98215 45.3952 6.78885 44.7706 6.72616C44.4728 6.67802 44.171 6.65891 43.8696 6.66909C43.7972 6.69435 43.7204 6.70407 43.6441 6.69763C43.5874 6.69763 43.5035 6.72616 43.4469 6.72616L43.0242 6.81175C42.8836 6.86881 42.7431 6.89734 42.6015 6.95338C42.4659 6.98789 42.3338 7.03532 42.2071 7.09502C41.9533 7.20812 41.7015 7.35078 41.4466 7.49241L40.7711 8.00189L40.4617 8.31369C40.4618 8.31747 40.4612 8.32123 40.4598 8.32473C40.4584 8.32824 40.4563 8.33142 40.4536 8.33407C40.451 8.33676 40.4478 8.33887 40.4443 8.34027C40.4409 8.34167 40.4371 8.34234 40.4334 8.34223V8.25358C40.435 8.02977 40.3925 7.80787 40.3083 7.60076C40.2241 7.39365 40.0999 7.20546 39.9429 7.04713C39.7862 6.88931 39.5999 6.76438 39.3949 6.67955C39.1899 6.59473 38.9703 6.55169 38.7487 6.55293V6.54988ZM53.3004 9.38972V16.34C53.3044 17.693 53.8396 18.9894 54.789 19.9461C55.7384 20.9028 57.025 21.442 58.3677 21.446C58.59 21.4478 58.8104 21.4051 59.0161 21.3202C59.2218 21.2354 59.4088 21.1102 59.566 20.9519C59.7231 20.7934 59.8474 20.605 59.9316 20.3978C60.0158 20.1905 60.0582 19.9684 60.0565 19.7444C60.0606 19.5198 60.0198 19.2966 59.9364 19.0883C59.853 18.8799 59.7287 18.6907 59.5711 18.5318C59.4134 18.373 59.2256 18.2478 59.0188 18.1638C58.8121 18.0797 58.5906 18.0386 58.3677 18.0427C57.9202 18.0414 57.4915 17.8617 57.175 17.5428C56.8586 17.224 56.6803 16.792 56.6789 16.3411V9.39074H58.6498C59.0225 9.3886 59.3793 9.23847 59.6429 8.97293C59.9064 8.7074 60.0554 8.34786 60.0575 7.97234C60.0598 7.78588 60.0252 7.60082 59.9558 7.42797C59.8863 7.25512 59.7834 7.09795 59.653 6.96561C59.5217 6.83423 59.3657 6.73052 59.1941 6.66054C59.0226 6.59056 58.8389 6.55571 58.6539 6.55803H56.6799V3.86288C56.6841 3.63826 56.6432 3.41512 56.5598 3.20678C56.4764 2.99844 56.3522 2.80918 56.1946 2.65032C56.0369 2.49147 55.8491 2.36629 55.6423 2.28225C55.4356 2.19822 55.2141 2.15705 54.9912 2.16122C54.7689 2.15944 54.5485 2.20221 54.3428 2.28705C54.137 2.37189 53.9501 2.49711 53.7929 2.65541C53.6358 2.81387 53.5115 3.00222 53.4273 3.20952C53.3431 3.41681 53.3006 3.6389 53.3024 3.86288V6.55803H52.1759C51.8048 6.56122 51.4498 6.71111 51.1872 6.97544C50.9247 7.23977 50.7757 7.59739 50.7723 7.97132C50.7778 8.34579 50.9278 8.70336 51.1906 8.96817C51.4534 9.23298 51.8083 9.38419 52.1799 9.38972H53.3004ZM73.6263 19.347C74.8958 17.8903 75.5809 16.0091 75.5476 14.0708C75.5868 12.122 74.9015 10.2288 73.6263 8.76306C72.9593 8.02938 72.1462 7.44577 71.2401 7.05036C70.3339 6.65494 69.3552 6.45663 68.3678 6.46836C67.3833 6.45563 66.4073 6.65359 65.5043 7.04916C64.6013 7.44473 63.7919 8.0289 63.1296 8.76306C61.849 10.2269 61.1567 12.1197 61.1881 14.0708C61.1626 16.0116 61.8551 17.8925 63.1306 19.347C63.7923 20.0821 64.6013 20.6673 65.5041 21.0639C66.4069 21.4605 67.383 21.6595 68.3678 21.6478C69.356 21.6615 70.3357 21.4636 71.2423 21.0672C72.1488 20.6707 72.9614 20.0837 73.6263 19.347ZM65.6375 17.0778C64.9304 16.2396 64.5501 15.1708 64.5676 14.0708C64.5452 12.9614 64.9257 11.882 65.6375 11.0353C65.9826 10.6548 66.4053 10.3539 66.8765 10.1533C67.3478 9.95261 67.8565 9.85691 68.3678 9.87271C68.8834 9.85667 69.3964 9.95214 69.8723 10.1527C70.3481 10.3532 70.7758 10.6542 71.1265 11.0353C71.829 11.8855 72.1987 12.9651 72.1661 14.0708C72.1939 15.1672 71.8243 16.2362 71.1265 17.0778C70.7757 17.4587 70.348 17.7595 69.8721 17.9599C69.3963 18.1602 68.8833 18.2556 68.3678 18.2394C67.8565 18.2552 67.3478 18.1595 66.8765 17.9588C66.4053 17.7581 65.9826 17.4583 65.6375 17.0778ZM79.4915 6.55293C79.2692 6.55115 79.0488 6.59393 78.8431 6.67877C78.6373 6.76361 78.4504 6.88882 78.2932 7.04713C78.1361 7.20558 78.0118 7.39394 77.9276 7.60123C77.8434 7.80852 77.8009 8.03062 77.8027 8.2546V19.8575C77.804 20.3084 77.9824 20.7404 78.2988 21.0593C78.6152 21.3781 79.044 21.5578 79.4915 21.5592C79.9389 21.5578 80.3677 21.3781 80.6841 21.0593C81.0006 20.7404 81.1789 20.3084 81.1803 19.8575V13.0773C81.212 13.0155 81.2312 12.948 81.2369 12.8786C81.2842 12.1636 81.5066 11.4715 81.8841 10.8642C82.0352 10.6092 82.2357 10.3874 82.4736 10.212C82.7033 10.0444 82.9608 9.91944 83.2341 9.84315C83.5092 9.76911 83.7942 9.73954 84.0785 9.75552H84.2757C84.3323 9.75552 84.3606 9.78405 84.3879 9.78405H84.5001C84.5285 9.78405 84.5568 9.81258 84.5851 9.81258H84.6973C84.754 9.84112 84.8096 9.84111 84.8662 9.86965C84.933 9.88486 84.9988 9.90391 85.0634 9.92671L85.2323 10.0123L85.4012 10.0979C85.4517 10.1206 85.499 10.1501 85.5417 10.1855C85.758 10.3314 85.9566 10.5024 86.1333 10.695C86.3059 10.9175 86.4566 11.1564 86.5833 11.4083L86.7522 11.8342C86.8117 11.981 86.8588 12.1327 86.8927 12.2876C86.9609 12.6231 86.9984 12.9642 87.005 13.3066V13.4197L87.0333 13.5613V19.8881C87.0321 20.1106 87.0751 20.3311 87.1598 20.5365C87.2446 20.742 87.3694 20.9283 87.5268 21.0843C87.6842 21.2404 87.8711 21.3632 88.0764 21.4452C88.2817 21.5273 88.5013 21.5671 88.7221 21.5622C88.9429 21.5635 89.1617 21.5201 89.3656 21.4347C89.5695 21.3493 89.7544 21.2236 89.9093 21.065C90.0642 20.9063 90.186 20.718 90.2674 20.5112C90.3489 20.3043 90.3884 20.0831 90.3835 19.8605L90.3552 14.5558V13.1945C90.3311 12.6518 90.2651 12.1119 90.158 11.5795C90.0411 11.0254 89.8718 10.4839 89.6524 9.96237C89.3969 9.42209 89.0748 8.91643 88.6938 8.45737C88.5984 8.33699 88.495 8.22329 88.3843 8.11704C88.3214 8.07848 88.2645 8.03075 88.2154 7.9754C88.1664 7.92005 88.1095 7.87232 88.0466 7.83376C87.9932 7.77115 87.9255 7.72255 87.8494 7.69213C87.8003 7.63678 87.7434 7.58905 87.6805 7.55049C87.6102 7.51015 87.5441 7.46269 87.4833 7.40886C87.4142 7.37739 87.3482 7.33953 87.2861 7.29575C86.7398 6.98419 86.135 6.79088 85.5104 6.72819C85.2125 6.68005 84.9108 6.66094 84.6094 6.67113C84.537 6.69638 84.4602 6.7061 84.3839 6.69966C84.3272 6.69966 84.2433 6.72819 84.1867 6.72819L83.764 6.81379C83.6234 6.87085 83.4828 6.89938 83.3413 6.95542C83.2057 6.98995 83.0736 7.03737 82.9469 7.09706C82.6931 7.21016 82.4413 7.35282 82.1864 7.49445L81.5109 8.00393L81.2015 8.31573C81.2016 8.31951 81.2009 8.32326 81.1995 8.32677C81.1982 8.33028 81.1961 8.33346 81.1934 8.33611C81.1908 8.33879 81.1876 8.34091 81.1841 8.34231C81.1806 8.34371 81.1769 8.34438 81.1732 8.34427V8.25358C81.1748 8.03001 81.1324 7.80835 81.0484 7.60143C80.9643 7.39451 80.8404 7.20644 80.6837 7.04815C80.527 6.88984 80.3406 6.76447 80.1355 6.67928C79.9303 6.5941 79.7104 6.5508 79.4884 6.55191L79.4915 6.55293Z" fill="white"/>
<path d="M101.438 17.6097C101.907 17.6118 102.375 17.5798 102.839 17.5139C103.262 17.4521 103.623 17.3842 103.922 17.3101L104.767 20.9845C104.362 21.0735 103.879 21.1577 103.316 21.2372C102.694 21.3207 102.067 21.3605 101.44 21.3564C101.246 21.3564 101.048 21.352 100.845 21.3432C100.642 21.3343 100.435 21.3211 100.222 21.3034C99.3343 21.2172 98.465 20.9924 97.6456 20.637C96.8417 20.2925 96.1109 19.7957 95.4927 19.1738C94.8541 18.5448 94.3395 17.7997 93.9758 16.9779C93.5938 16.1215 93.3993 15.1922 93.4055 14.2532C93.398 13.313 93.5919 12.3823 93.9738 11.5245C94.3374 10.7026 94.8521 9.95759 95.4907 9.32859C96.1088 8.70628 96.8396 8.20921 97.6436 7.86435C98.4631 7.50969 99.3324 7.28556 100.22 7.19999C100.432 7.18232 100.639 7.16908 100.841 7.16025C101.043 7.15142 101.242 7.147 101.436 7.147C102.063 7.1429 102.69 7.18274 103.312 7.26622C103.875 7.34638 104.36 7.43061 104.765 7.51892L103.92 11.1872C103.62 11.1152 103.259 11.0472 102.837 10.9834C102.373 10.9183 101.905 10.8869 101.437 10.8896C101.296 10.8896 101.151 10.8941 101.001 10.9029C100.851 10.9117 100.706 10.925 100.565 10.9426C100.081 10.9715 99.6066 11.0889 99.1645 11.2891C98.767 11.4674 98.4012 11.7101 98.0814 12.0074C97.7925 12.294 97.5596 12.6328 97.3948 13.006C97.2303 13.4005 97.1501 13.8254 97.1592 14.2532C97.1513 14.6732 97.2323 15.09 97.3968 15.476C97.5641 15.8439 97.7969 16.1778 98.0835 16.4613C98.3973 16.7732 98.7641 17.0258 99.1665 17.2072C99.6086 17.4074 100.083 17.5248 100.567 17.5536C100.708 17.5713 100.853 17.5845 101.003 17.5934C101.153 17.6022 101.298 17.6076 101.438 17.6097ZM109.945 14.8167C109.937 15.1648 109.999 15.511 110.129 15.8338C110.259 16.1567 110.452 16.4493 110.699 16.6936C110.941 16.9416 111.232 17.1367 111.552 17.2671C111.872 17.3975 112.216 17.4603 112.561 17.4517V21.12C111.712 21.125 110.872 20.9515 110.093 20.6105C109.344 20.2874 108.661 19.8244 108.083 19.2461C107.507 18.664 107.045 17.9774 106.722 17.2225C106.384 16.4378 106.212 15.5907 106.217 14.7352V2.51583C106.722 2.3318 107.239 2.18069 107.763 2.06341C108.482 1.90339 109.21 1.78769 109.942 1.71697L109.945 14.8167ZM125.692 9.27663C126.314 9.92418 126.812 10.6826 127.159 11.5132C127.523 12.3804 127.708 13.3135 127.702 14.2553C127.708 15.1969 127.524 16.1301 127.16 16.9973C126.809 17.8328 126.302 18.5923 125.666 19.2339C125.028 19.8757 124.275 20.3904 123.447 20.7511C122.589 21.1267 121.662 21.3172 120.726 21.3105C119.79 21.3172 118.863 21.1267 118.005 20.7511C117.177 20.3905 116.424 19.8758 115.785 19.2339C115.149 18.5922 114.643 17.8327 114.293 16.9973C113.929 16.13 113.745 15.1969 113.752 14.2553C113.746 13.3094 113.935 12.3728 114.307 11.5041C114.662 10.6645 115.173 9.90097 115.813 9.25421C116.449 8.61352 117.203 8.10283 118.032 7.75023C118.893 7.38351 119.819 7.198 120.753 7.20508C121.692 7.19988 122.622 7.39034 123.484 7.76449C124.312 8.1169 125.062 8.63081 125.692 9.27663ZM120.725 17.5567C121.156 17.5588 121.584 17.4728 121.981 17.304C122.371 17.1395 122.725 16.9 123.024 16.5989C123.323 16.2977 123.561 15.9405 123.724 15.5473C123.894 15.1375 123.979 14.6972 123.975 14.2532C123.978 13.806 123.893 13.3627 123.724 12.949C123.567 12.556 123.334 12.1985 123.038 11.8974C122.742 11.6014 122.392 11.3664 122.007 11.2055C121.61 11.0367 121.183 10.9507 120.751 10.9528C120.312 10.9491 119.876 11.0351 119.47 11.2055C119.083 11.3681 118.732 11.6084 118.44 11.9117C118.147 12.2173 117.91 12.573 117.74 12.9622C117.562 13.3689 117.472 13.8089 117.476 14.2532C117.472 14.6962 117.558 15.1353 117.727 15.5443C117.89 15.9374 118.128 16.2946 118.428 16.5958C118.723 16.8949 119.073 17.1342 119.458 17.3009C119.858 17.4731 120.29 17.5602 120.725 17.5567ZM142.576 14.1513C142.586 15.1189 142.443 16.082 142.153 17.0044C141.89 17.8417 141.453 18.613 140.872 19.2675C140.279 19.9206 139.548 20.4302 138.732 20.7583C137.777 21.132 136.758 21.3131 135.733 21.2912C134.704 21.3122 133.681 21.1312 132.72 20.7583C131.902 20.4347 131.17 19.9245 130.581 19.2675C130.007 18.6101 129.575 17.8393 129.313 17.0044C129.023 16.082 128.88 15.1189 128.89 14.1513V8.08139C129.396 7.89645 129.912 7.74097 130.435 7.61572C131.152 7.44805 131.881 7.33699 132.615 7.28354V14.1513C132.613 14.5911 132.666 15.0295 132.774 15.4556C132.871 15.8464 133.046 16.2132 133.289 16.5337C133.54 16.8548 133.868 17.1068 134.241 17.2663C134.715 17.4582 135.223 17.5488 135.734 17.5322C136.244 17.5488 136.753 17.4582 137.227 17.2663C137.6 17.1068 137.928 16.8548 138.179 16.5337C138.421 16.2132 138.597 15.8464 138.694 15.4556C138.802 15.0295 138.855 14.5911 138.853 14.1513V8.08037C139.353 7.89152 139.864 7.73597 140.385 7.6147C141.106 7.44779 141.84 7.33674 142.578 7.28252L142.576 14.1513ZM154.28 2.48832C154.786 2.30339 155.302 2.14791 155.825 2.02265C156.542 1.85474 157.27 1.74334 158.003 1.68945V20.2457L156.762 20.6717C156.727 20.6893 156.594 20.7338 156.365 20.8051C156.136 20.8765 155.828 20.9519 155.441 21.0314C155.053 21.1115 154.595 21.1869 154.067 21.2576C153.488 21.3301 152.906 21.3642 152.323 21.3595C152.13 21.3595 151.932 21.355 151.729 21.3462C151.526 21.3374 151.328 21.3241 151.134 21.3065C150.238 21.2222 149.36 20.9974 148.533 20.6401C147.729 20.2953 146.998 19.7983 146.379 19.1758C145.741 18.5468 145.226 17.8018 144.862 16.98C144.481 16.1229 144.295 15.1902 144.32 14.2512C144.315 13.3067 144.499 12.3709 144.862 11.5C145.21 10.6594 145.717 9.89512 146.355 9.25013C146.995 8.60723 147.754 8.09636 148.588 7.74615C149.452 7.38081 150.381 7.19538 151.318 7.20101C152.317 7.18437 153.313 7.30992 154.277 7.57394L154.28 2.48832ZM154.28 11.7262C153.929 11.4787 153.541 11.2898 153.13 11.1668C152.54 11.007 151.931 10.9352 151.32 10.9538C150.881 10.9502 150.445 11.0361 150.039 11.2065C149.649 11.3712 149.294 11.6111 148.995 11.9127C148.696 12.214 148.459 12.5712 148.296 12.9642C148.126 13.3731 148.041 13.8123 148.045 14.2553C148.037 14.6752 148.118 15.0921 148.282 15.478C148.45 15.8459 148.682 16.1799 148.969 16.4634C149.283 16.7748 149.649 17.0271 150.051 17.2082C150.493 17.4084 150.968 17.5258 151.452 17.5547C151.593 17.5723 151.738 17.5856 151.887 17.5944C152.037 17.6032 152.182 17.6076 152.323 17.6076C152.676 17.6086 153.029 17.5909 153.38 17.5547C153.717 17.5193 154.016 17.4748 154.278 17.4212L154.28 11.7262Z" fill="white"/>
</svg>
