<svg xmlns="http://www.w3.org/2000/svg" width="24" height="25" viewBox="0 0 24 25" >
  <path fill-rule="evenodd" clip-rule="evenodd" d="M5.20004 3.25C4.50969 3.25 3.95004 3.80964 3.95004 4.5V13.9722H20.05V4.5C20.05 3.80964 19.4904 3.25 18.8 3.25H5.20004ZM20.2328 15.4722H3.76733L2.44142 20.1598C2.21575 20.9576 2.81513 21.75 3.64423 21.75H20.3559C21.185 21.75 21.7843 20.9576 21.5587 20.1598L20.2328 15.4722ZM2.45004 14.6182V4.5C2.45004 2.98122 3.68126 1.75 5.20004 1.75H18.8C20.3188 1.75 21.55 2.98122 21.55 4.5V14.6182L23.002 19.7515C23.4985 21.5067 22.1799 23.25 20.3559 23.25H3.64423C1.82021 23.25 0.501588 21.5067 0.998047 19.7515L2.45004 14.6182Z" />

  <path fill-rule="evenodd" clip-rule="evenodd" d="M10.25 19.5C10.25 19.0858 10.5858 18.75 11 18.75H13C13.4142 18.75 13.75 19.0858 13.75 19.5C13.75 19.9142 13.4142 20.25 13 20.25H11C10.5858 20.25 10.25 19.9142 10.25 19.5Z"/>

  <path fill-rule="evenodd" clip-rule="evenodd" d="M16.5303 9.03033C16.8232 8.73744 16.8232 8.26256 16.5303 7.96967L14.5303 5.96967C14.2374 5.67678 13.7626 5.67678 13.4697 5.96967C13.1768 6.26256 13.1768 6.73744 13.4697 7.03033L14.9393 8.5L13.4697 9.96967C13.1768 10.2626 13.1768 10.7374 13.4697 11.0303C13.7626 11.3232 14.2374 11.3232 14.5303 11.0303L16.5303 9.03033ZM7.46967 9.03033C7.17678 8.73744 7.17678 8.26256 7.46967 7.96967L9.46967 5.96967C9.76256 5.67678 10.2374 5.67678 10.5303 5.96967C10.8232 6.26256 10.8232 6.73744 10.5303 7.03033L9.06066 8.5L10.5303 9.96967C10.8232 10.2626 10.8232 10.7374 10.5303 11.0303C10.2374 11.3232 9.76256 11.3232 9.46967 11.0303L7.46967 9.03033Z"/>
</svg>
