<svg width="63" height="46" viewBox="0 0 63 46" fill="none" xmlns="http://www.w3.org/2000/svg">
<path d="M60.8058 32.1459L60.5141 31.9527L60.8058 32.1459ZM31.1939 8.77667L31.3191 9.10355L31.1939 8.77667ZM1.78595 41.5932C1.84476 41.7774 2.04171 41.879 2.22584 41.8202L5.22652 40.8618C5.41066 40.803 5.51226 40.6061 5.45345 40.4219C5.39464 40.2378 5.19769 40.1362 5.01356 40.195L2.34629 41.0469L1.49442 38.3796C1.43561 38.1954 1.23867 38.0938 1.05453 38.1527C0.870394 38.2115 0.768796 38.4084 0.827605 38.5925L1.78595 41.5932ZM3.25911 39.9826C3.34512 39.8095 3.27451 39.5994 3.1014 39.5134C2.92829 39.4274 2.71823 39.498 2.63222 39.6711L3.25911 39.9826ZM4.3414 36.3423C4.25047 36.5129 4.31503 36.7249 4.4856 36.8158C4.65618 36.9068 4.86817 36.8422 4.95911 36.6716L4.3414 36.3423ZM6.76483 33.4212C6.86172 33.2539 6.80466 33.0398 6.63739 32.9429C6.47012 32.846 6.25598 32.9031 6.1591 33.0704L6.76483 33.4212ZM8.0999 29.8622C7.99661 30.0256 8.04533 30.2418 8.20872 30.3451C8.3721 30.4484 8.58829 30.3997 8.69158 30.2363L8.0999 29.8622ZM10.7398 27.1421C10.85 26.9833 10.8105 26.7652 10.6517 26.655C10.4929 26.5448 10.2748 26.5843 10.1646 26.7431L10.7398 27.1421ZM12.3729 23.7142C12.2553 23.8675 12.2842 24.0872 12.4376 24.2049C12.591 24.3226 12.8107 24.2936 12.9283 24.1402L12.3729 23.7142ZM15.2654 21.2562C15.3913 21.1094 15.3743 20.8885 15.2276 20.7627C15.0808 20.6368 14.8599 20.6538 14.734 20.8005L15.2654 21.2562ZM17.2612 18.0291C17.1265 18.1677 17.1296 18.3892 17.2682 18.524C17.4068 18.6587 17.6284 18.6556 17.7631 18.517L17.2612 18.0291ZM20.4374 15.9541C20.5818 15.8256 20.5947 15.6044 20.4663 15.46C20.3378 15.3155 20.1166 15.3026 19.9721 15.431L20.4374 15.9541ZM22.8813 13.0508C22.7266 13.1666 22.6949 13.386 22.8107 13.5408C22.9265 13.6955 23.1459 13.7272 23.3007 13.6114L22.8813 13.0508ZM26.3616 11.5437C26.5271 11.4438 26.5802 11.2287 26.4803 11.0632C26.3804 10.8977 26.1652 10.8446 25.9997 10.9446L26.3616 11.5437ZM29.329 9.18015C29.1532 9.26051 29.0758 9.46817 29.1562 9.64397C29.2365 9.81978 29.4442 9.89716 29.62 9.8168L29.329 9.18015ZM33.1508 8.50283C33.3371 8.45157 33.4467 8.25892 33.3954 8.07254C33.3441 7.88616 33.1515 7.77663 32.9651 7.8279L33.1508 8.50283ZM36.8868 7.13982C36.6941 7.15545 36.5506 7.3243 36.5662 7.51697C36.5819 7.70964 36.7507 7.85316 36.9434 7.83753L36.8868 7.13982ZM40.7992 7.86379C40.9916 7.8815 41.162 7.73982 41.1798 7.54734C41.1975 7.35485 41.0558 7.18445 40.8633 7.16673L40.7992 7.86379ZM44.7781 7.84451C44.5907 7.79694 44.4003 7.91024 44.3527 8.0976C44.3051 8.28495 44.4184 8.4754 44.6058 8.52298L44.7781 7.84451ZM48.2748 9.74662C48.4534 9.82075 48.6582 9.73613 48.7323 9.5576C48.8064 9.37908 48.7218 9.17427 48.5433 9.10014L48.2748 9.74662ZM52.0933 10.8741C51.9268 10.7759 51.7122 10.8312 51.614 10.9977C51.5158 11.1642 51.5711 11.3788 51.7376 11.477L52.0933 10.8741ZM54.9224 13.6723C55.0733 13.7931 55.2936 13.7688 55.4144 13.618C55.5353 13.4671 55.5109 13.2468 55.3601 13.126L54.9224 13.6723ZM58.2628 15.8419C58.1327 15.6989 57.9114 15.6885 57.7684 15.8186C57.6254 15.9487 57.615 16.17 57.7451 16.313L58.2628 15.8419ZM60.067 19.3836C60.1679 19.5485 60.3834 19.6003 60.5482 19.4994C60.7131 19.3984 60.7649 19.183 60.664 19.0181L60.067 19.3836ZM62.3381 22.6482C62.2804 22.4637 62.0841 22.3609 61.8996 22.4186C61.7151 22.4763 61.6123 22.6726 61.67 22.8571L62.3381 22.6482ZM62.2223 26.6058C62.2175 26.799 62.3702 26.9596 62.5635 26.9644C62.7567 26.9692 62.9173 26.8165 62.9221 26.6233L62.2223 26.6058ZM62.064 30.5575C62.1403 30.3799 62.0582 30.1741 61.8806 30.0978C61.703 30.0215 61.4971 30.1036 61.4208 30.2812L62.064 30.5575ZM59.3046 33.6465C59.1872 33.8001 59.2166 34.0197 59.3701 34.1371C59.5237 34.2545 59.7434 34.2251 59.8607 34.0716L59.3046 33.6465ZM57.0855 37.2999C57.2195 37.1606 57.2151 36.939 57.0757 36.805C56.9364 36.6711 56.7148 36.6755 56.5809 36.8148L57.0855 37.2999ZM53.5195 39.6566C53.3702 39.7794 53.3488 40 53.4716 40.1493C53.5944 40.2985 53.815 40.32 53.9642 40.1972L53.5195 39.6566ZM50.4898 42.6734C50.6553 42.5736 50.7085 42.3585 50.6086 42.193C50.5088 42.0275 50.2936 41.9742 50.1281 42.0741L50.4898 42.6734ZM46.395 43.8624C46.2125 43.9263 46.1164 44.126 46.1803 44.3084C46.2442 44.4908 46.4439 44.5869 46.6263 44.523L46.395 43.8624ZM42.3971 45.3487C42.5903 45.343 42.7423 45.1817 42.7366 44.9885C42.7308 44.7952 42.5696 44.6433 42.3763 44.649L42.3971 45.3487ZM38.3827 43.9804C38.2024 43.9107 37.9997 44.0004 37.9301 44.1807C37.8604 44.3611 37.9502 44.5637 38.1305 44.6333L38.3827 43.9804ZM34.4653 42.3511C34.6096 42.4797 34.8309 42.467 34.9595 42.3227C35.0881 42.1784 35.0754 41.9572 34.9311 41.8285L34.4653 42.3511ZM32.4902 38.856C32.4028 38.6836 32.1922 38.6147 32.0198 38.702C31.8474 38.7894 31.7784 39 31.8658 39.1724L32.4902 38.856ZM30.9705 35.3991C30.9736 35.5923 31.1328 35.7465 31.3261 35.7434C31.5194 35.7402 31.6735 35.581 31.6704 35.3877L30.9705 35.3991ZM32.1972 31.7859C32.2506 31.6001 32.1432 31.4062 31.9574 31.3529C31.7717 31.2995 31.5778 31.4068 31.5244 31.5926L32.1972 31.7859ZM32.9208 28.0445C32.8356 28.218 32.9073 28.4277 33.0808 28.5129C33.2543 28.598 33.464 28.5264 33.5492 28.3529L32.9208 28.0445ZM35.3894 25.117C35.4938 24.9543 35.4466 24.7378 35.2839 24.6334C35.1212 24.529 34.9047 24.5763 34.8003 24.7389L35.3894 25.117ZM36.9743 21.6473C36.8572 21.801 36.8868 22.0206 37.0406 22.1378C37.1943 22.2549 37.4139 22.2253 37.5311 22.0715L36.9743 21.6473ZM39.8886 19.1744C40.015 19.0281 39.9989 18.8071 39.8526 18.6807C39.7063 18.5544 39.4853 18.5705 39.3589 18.7168L39.8886 19.1744ZM41.8986 15.9239C41.7652 16.0637 41.7705 16.2853 41.9103 16.4187C42.0502 16.5521 42.2717 16.5469 42.4052 16.407L41.8986 15.9239ZM45.0462 13.7536C45.1853 13.6194 45.1893 13.3978 45.055 13.2587C44.9208 13.1196 44.6992 13.1157 44.5601 13.2499L45.0462 13.7536ZM47.322 10.6812C47.1781 10.8104 47.1662 11.0316 47.2953 11.1755C47.4244 11.3193 47.6457 11.3313 47.7896 11.2021L47.322 10.6812ZM50.6194 8.74468C50.7673 8.62027 50.7864 8.39949 50.662 8.25154C50.5376 8.1036 50.3168 8.08451 50.1688 8.20892L50.6194 8.74468ZM53.0873 5.82891C52.9357 5.94886 52.9101 6.16897 53.03 6.32056C53.15 6.47215 53.3701 6.49779 53.5217 6.37785L53.0873 5.82891ZM56.4933 4.09421C56.6482 3.97857 56.68 3.75926 56.5644 3.60437C56.4488 3.44947 56.2295 3.41764 56.0745 3.53328L56.4933 4.09421ZM59.1244 1.32061C58.9664 1.43199 58.9286 1.65036 59.04 1.80834C59.1514 1.96632 59.3698 2.00409 59.5277 1.89271L59.1244 1.32061ZM2.43041 41.6472C2.61943 41.2808 2.89833 40.7087 3.25911 39.9826L2.63222 39.6711C2.26713 40.4059 1.99414 40.9661 1.80831 41.3263L2.43041 41.6472ZM4.95911 36.6716C5.48842 35.6787 6.09074 34.585 6.76483 33.4212L6.1591 33.0704C5.48034 34.2423 4.87402 35.3432 4.3414 36.3423L4.95911 36.6716ZM8.69158 30.2363C9.32949 29.2272 10.0124 28.1906 10.7398 27.1421L10.1646 26.7431C9.43112 27.8005 8.74267 28.8455 8.0999 29.8622L8.69158 30.2363ZM12.9283 24.1402C13.671 23.1723 14.4502 22.2069 15.2654 21.2562L14.734 20.8005C13.9099 21.7617 13.1227 22.7369 12.3729 23.7142L12.9283 24.1402ZM17.7631 18.517C18.6215 17.6342 19.513 16.7762 20.4374 15.9541L19.9721 15.431C19.0342 16.2653 18.1304 17.135 17.2612 18.0291L17.7631 18.517ZM23.3007 13.6114C24.2892 12.8719 25.3096 12.1791 26.3616 11.5437L25.9997 10.9446C24.9265 11.5927 23.8869 12.2986 22.8813 13.0508L23.3007 13.6114ZM29.62 9.8168C30.1786 9.56148 30.745 9.32328 31.3191 9.10355L31.0688 8.4498C30.4806 8.67497 29.9006 8.91889 29.329 9.18015L29.62 9.8168ZM31.3191 9.10355C31.9246 8.87176 32.5357 8.67201 33.1508 8.50283L32.9651 7.8279C32.3285 8.003 31.6958 8.2098 31.0688 8.4498L31.3191 9.10355ZM36.9434 7.83753C38.2299 7.73318 39.5198 7.74605 40.7992 7.86379L40.8633 7.16673C39.5459 7.04549 38.2155 7.03204 36.8868 7.13982L36.9434 7.83753ZM44.6058 8.52298C45.8595 8.84135 47.0874 9.25354 48.2748 9.74662L48.5433 9.10014C47.3257 8.59454 46.0657 8.1715 44.7781 7.84451L44.6058 8.52298ZM51.7376 11.477C52.8643 12.1417 53.9313 12.8783 54.9224 13.6723L55.3601 13.126C54.3427 12.3109 53.2482 11.5555 52.0933 10.8741L51.7376 11.477ZM57.7451 16.313C58.6374 17.2938 59.4181 18.3238 60.067 19.3836L60.664 19.0181C59.9902 17.9176 59.1823 16.8525 58.2628 15.8419L57.7451 16.313ZM61.67 22.8571C62.0603 24.1054 62.2534 25.3637 62.2223 26.6058L62.9221 26.6233C62.9553 25.2964 62.7488 23.9616 62.3381 22.6482L61.67 22.8571ZM61.4208 30.2812C61.1777 30.8472 60.8767 31.4053 60.5141 31.9527L61.0976 32.3392C61.4828 31.7578 61.8039 31.1628 62.064 30.5575L61.4208 30.2812ZM60.5141 31.9527C60.1522 32.499 59.7475 33.067 59.3046 33.6465L59.8607 34.0716C60.3127 33.4803 60.7265 32.8995 61.0976 32.3392L60.5141 31.9527ZM56.5809 36.8148C55.6358 37.798 54.6081 38.7609 53.5195 39.6566L53.9642 40.1972C55.0757 39.2826 56.1233 38.3009 57.0855 37.2999L56.5809 36.8148ZM50.1281 42.0741C48.9143 42.8065 47.6623 43.4186 46.395 43.8624L46.6263 44.523C47.9466 44.0607 49.2422 43.4263 50.4898 42.6734L50.1281 42.0741ZM42.3763 44.649C41.0287 44.689 39.6896 44.4852 38.3827 43.9804L38.1305 44.6333C39.5307 45.1742 40.9633 45.3913 42.3971 45.3487L42.3763 44.649ZM34.9311 41.8285C34.4422 41.3927 33.9606 40.9002 33.4882 40.3468L32.9558 40.8013C33.4476 41.3773 33.9513 41.8928 34.4653 42.3511L34.9311 41.8285ZM33.4882 40.3468C33.086 39.8757 32.7547 39.378 32.4902 38.856L31.8658 39.1724C32.156 39.7451 32.5184 40.289 32.9558 40.8013L33.4882 40.3468ZM31.6704 35.3877C31.6522 34.2603 31.8324 33.0556 32.1972 31.7859L31.5244 31.5926C31.1444 32.9152 30.9509 34.1896 30.9705 35.3991L31.6704 35.3877ZM33.5492 28.3529C34.0658 27.3001 34.6821 26.2193 35.3894 25.117L34.8003 24.7389C34.0806 25.8604 33.4508 26.9645 32.9208 28.0445L33.5492 28.3529ZM37.5311 22.0715C38.2602 21.1147 39.0479 20.1476 39.8886 19.1744L39.3589 18.7168C38.5097 19.6999 37.7129 20.678 36.9743 21.6473L37.5311 22.0715ZM42.4052 16.407C43.2482 15.5233 44.1299 14.6379 45.0462 13.7536L44.5601 13.2499C43.6372 14.1405 42.7487 15.0328 41.8986 15.9239L42.4052 16.407ZM47.7896 11.2021C48.7071 10.3785 49.6514 9.55859 50.6194 8.74468L50.1688 8.20892C49.1953 9.02752 48.2453 9.85242 47.322 10.6812L47.7896 11.2021ZM53.5217 6.37785C54.4945 5.60809 55.486 4.84616 56.4933 4.09421L56.0745 3.53328C55.0621 4.28909 54.0654 5.05501 53.0873 5.82891L53.5217 6.37785ZM59.5277 1.89271C60.0378 1.53309 60.5509 1.17641 61.0668 0.822934L60.6711 0.245485C60.1527 0.600729 59.637 0.959189 59.1244 1.32061L59.5277 1.89271Z" fill="white"/>
</svg>
