<svg width="137" height="170" viewBox="0 0 137 170" fill="none" xmlns="http://www.w3.org/2000/svg">
<path id="Vector 3" d="M69.154 126.512L69.4014 126.759L69.154 126.512ZM5 75.5L5.33385 75.6051L5 75.5ZM103.235 57.8716L102.964 58.0931L103.235 57.8716ZM134.578 169.235C134.449 169.378 134.228 169.39 134.084 169.261L131.738 167.158C131.595 167.029 131.582 166.808 131.712 166.664C131.841 166.52 132.062 166.508 132.206 166.637L134.29 168.507L136.16 166.422C136.289 166.278 136.51 166.266 136.654 166.395C136.798 166.524 136.81 166.745 136.681 166.889L134.578 169.235ZM133.882 167.097C133.874 166.903 134.025 166.741 134.218 166.733C134.411 166.725 134.574 166.876 134.581 167.069L133.882 167.097ZM134.424 163.144C134.432 163.337 134.282 163.5 134.089 163.508C133.896 163.516 133.733 163.367 133.724 163.174L134.424 163.144ZM133.539 159.28C133.529 159.087 133.677 158.923 133.87 158.912C134.063 158.902 134.228 159.05 134.238 159.244L133.539 159.28ZM134.009 155.308C134.021 155.501 133.875 155.668 133.682 155.68C133.489 155.693 133.323 155.546 133.31 155.353L134.009 155.308ZM133.038 151.475C133.024 151.283 133.168 151.114 133.361 151.1C133.554 151.085 133.722 151.229 133.736 151.422L133.038 151.475ZM133.415 147.52C133.432 147.713 133.289 147.883 133.097 147.9C132.904 147.917 132.734 147.775 132.717 147.582L133.415 147.52ZM132.346 143.688C132.326 143.496 132.466 143.324 132.658 143.304C132.851 143.285 133.023 143.425 133.042 143.617L132.346 143.688ZM132.618 139.719C132.64 139.911 132.503 140.085 132.311 140.107C132.119 140.129 131.945 139.992 131.923 139.8L132.618 139.719ZM131.447 135.92C131.422 135.728 131.557 135.552 131.749 135.527C131.94 135.503 132.116 135.638 132.141 135.829L131.447 135.92ZM131.609 131.948C131.636 132.14 131.504 132.317 131.312 132.345C131.121 132.373 130.943 132.24 130.916 132.049L131.609 131.948ZM130.328 128.187C130.298 127.996 130.428 127.817 130.619 127.786C130.809 127.756 130.989 127.886 131.019 128.077L130.328 128.187ZM130.371 124.215C130.405 124.405 130.278 124.587 130.087 124.62C129.897 124.654 129.715 124.527 129.682 124.336L130.371 124.215ZM128.974 120.496C128.938 120.306 129.062 120.123 129.252 120.086C129.441 120.05 129.625 120.174 129.661 120.364L128.974 120.496ZM128.887 116.524C128.927 116.713 128.806 116.899 128.617 116.938C128.428 116.978 128.242 116.857 128.202 116.668L128.887 116.524ZM127.364 112.853C127.321 112.665 127.439 112.477 127.627 112.434C127.815 112.391 128.003 112.509 128.046 112.697L127.364 112.853ZM127.135 108.885C127.182 109.073 127.068 109.263 126.88 109.31C126.693 109.356 126.503 109.242 126.456 109.055L127.135 108.885ZM125.475 105.274C125.424 105.087 125.535 104.895 125.721 104.845C125.908 104.794 126.1 104.905 126.151 105.091L125.475 105.274ZM125.089 101.317C125.143 101.503 125.037 101.697 124.851 101.752C124.666 101.806 124.472 101.699 124.417 101.514L125.089 101.317ZM123.28 97.7782C123.221 97.5939 123.323 97.3972 123.508 97.3388C123.692 97.2805 123.889 97.3826 123.947 97.5668L123.28 97.7782ZM122.721 93.8445C122.784 94.0273 122.686 94.2263 122.503 94.289C122.32 94.3516 122.121 94.2541 122.059 94.0712L122.721 93.8445ZM120.749 90.3953C120.682 90.214 120.775 90.0127 120.956 89.9455C121.137 89.8784 121.339 89.971 121.406 90.1522L120.749 90.3953ZM119.997 86.4934C120.069 86.6729 119.982 86.8766 119.802 86.9484C119.623 87.0203 119.419 86.933 119.347 86.7536L119.997 86.4934ZM117.847 83.1514C117.77 82.974 117.852 82.768 118.029 82.6911C118.206 82.6143 118.412 82.6958 118.489 82.8732L117.847 83.1514ZM116.878 79.2974C116.96 79.4725 116.885 79.6808 116.71 79.7629C116.535 79.8449 116.326 79.7696 116.244 79.5945L116.878 79.2974ZM114.534 76.0895C114.446 75.9172 114.515 75.7065 114.687 75.6189C114.859 75.5314 115.07 75.6001 115.158 75.7725L114.534 76.0895ZM113.323 72.3055C113.416 72.4748 113.355 72.6876 113.186 72.781C113.016 72.8743 112.803 72.8127 112.71 72.6434L113.323 72.3055ZM110.768 69.2633C110.669 69.0975 110.723 68.8826 110.888 68.7832C111.054 68.6839 111.269 68.7378 111.368 68.9036L110.768 69.2633ZM109.288 65.5751C109.393 65.737 109.348 65.9538 109.186 66.0595C109.024 66.1651 108.807 66.1195 108.701 65.9576L109.288 65.5751ZM106.506 62.7374C106.394 62.5799 106.431 62.3614 106.588 62.2492C106.746 62.1371 106.964 62.1738 107.076 62.3312L106.506 62.7374ZM104.73 59.1832C104.849 59.3356 104.822 59.5555 104.669 59.6744C104.517 59.7933 104.297 59.7662 104.178 59.6137L104.73 59.1832ZM101.698 56.6038C101.57 56.459 101.583 56.2378 101.728 56.1098C101.873 55.9817 102.094 55.9953 102.222 56.1401L101.698 56.6038ZM99.5108 53.3085C99.65 53.4426 99.6541 53.6642 99.5199 53.8034C99.3858 53.9426 99.1642 53.9467 99.025 53.8125L99.5108 53.3085ZM96.1346 51.2486C95.9848 51.1265 95.9624 50.906 96.0845 50.7562C96.2066 50.6063 96.4271 50.5839 96.5769 50.706L96.1346 51.2486ZM93.4334 48.3585C93.5931 48.4674 93.6342 48.6852 93.5253 48.8448C93.4163 49.0045 93.1985 49.0456 93.0389 48.9367L93.4334 48.3585ZM89.7565 46.8974C89.5881 46.8026 89.5285 46.5891 89.6234 46.4207C89.7182 46.2523 89.9317 46.1927 90.1001 46.2876L89.7565 46.8974ZM86.6018 44.5089C86.7777 44.5891 86.8552 44.7967 86.775 44.9726C86.6948 45.1484 86.4872 45.226 86.3113 45.1457L86.6018 44.5089ZM82.7301 43.6896C82.5482 43.6242 82.4537 43.4238 82.519 43.2418C82.5844 43.0599 82.7848 42.9654 82.9667 43.0308L82.7301 43.6896ZM79.2238 41.8546C79.4104 41.9051 79.5206 42.0974 79.4701 42.2839C79.4195 42.4705 79.2273 42.5808 79.0407 42.5302L79.2238 41.8546ZM75.2703 41.6631C75.0804 41.627 74.9558 41.4438 74.9919 41.2539C75.0281 41.064 75.2113 40.9393 75.4012 40.9755L75.2703 41.6631ZM71.5247 40.384C71.7168 40.4063 71.8544 40.58 71.8321 40.772C71.8098 40.964 71.6361 41.1016 71.4441 41.0793L71.5247 40.384ZM67.5845 40.7669C67.3915 40.7578 67.2423 40.594 67.2513 40.4009C67.2604 40.2078 67.4242 40.0586 67.6173 40.0676L67.5845 40.7669ZM63.6985 40.0123C63.8918 40.0088 64.0513 40.1627 64.0547 40.3559C64.0582 40.5492 63.9043 40.7087 63.7111 40.7121L63.6985 40.0123ZM59.8402 40.9011C59.6476 40.9163 59.479 40.7725 59.4637 40.5798C59.4484 40.3871 59.5923 40.2185 59.785 40.2033L59.8402 40.9011ZM55.8906 40.6265C56.0821 40.6001 56.2587 40.734 56.2851 40.9255C56.3115 41.1169 56.1777 41.2936 55.9862 41.32L55.8906 40.6265ZM52.1607 41.9561C51.971 41.993 51.7872 41.8691 51.7503 41.6794C51.7134 41.4896 51.8373 41.3059 52.027 41.269L52.1607 41.9561ZM48.2044 42.1189C48.392 42.072 48.582 42.186 48.6289 42.3735C48.6758 42.561 48.5618 42.7511 48.3743 42.798L48.2044 42.1189ZM44.6359 43.8357C44.4511 43.8921 44.2554 43.7879 44.199 43.6031C44.1426 43.4182 44.2467 43.2226 44.4316 43.1661L44.6359 43.8357ZM40.7167 44.4024C40.8986 44.3368 41.0991 44.4311 41.1647 44.6129C41.2303 44.7947 41.1361 44.9953 40.9542 45.0609L40.7167 44.4024ZM37.3374 46.467C37.159 46.5415 36.954 46.4573 36.8796 46.2789C36.8051 46.1005 36.8894 45.8955 37.0678 45.8211L37.3374 46.467ZM33.4929 47.4173C33.6674 47.3342 33.8763 47.4083 33.9594 47.5828C34.0426 47.7573 33.9685 47.9662 33.794 48.0493L33.4929 47.4173ZM30.3333 49.8046C30.1632 49.8963 29.9509 49.8327 29.8592 49.6625C29.7674 49.4924 29.831 49.2801 30.0012 49.1884L30.3333 49.8046ZM26.6029 51.1331C26.7681 51.0328 26.9834 51.0855 27.0836 51.2507C27.1839 51.416 27.1313 51.6312 26.966 51.7315L26.6029 51.1331ZM23.7049 53.8306C23.5453 53.9396 23.3275 53.8985 23.2186 53.7388C23.1096 53.5791 23.1507 53.3614 23.3104 53.2524L23.7049 53.8306ZM20.1393 55.5492C20.2925 55.4314 20.5123 55.46 20.6301 55.6133C20.7479 55.7665 20.7192 55.9863 20.566 56.1041L20.1393 55.5492ZM17.5696 58.5558C17.4239 58.6828 17.2028 58.6677 17.0758 58.5219C16.9488 58.3762 16.9639 58.1551 17.1097 58.0281L17.5696 58.5558ZM14.2416 60.7019C14.3783 60.5652 14.5999 60.5653 14.7366 60.702C14.8732 60.8388 14.8731 61.0604 14.7364 61.197L14.2416 60.7019ZM12.0998 64.0389C11.9741 64.1857 11.7531 64.2027 11.6063 64.077C11.4595 63.9512 11.4424 63.7303 11.5682 63.5835L12.0998 64.0389ZM9.14449 66.6771C9.25655 66.5196 9.47508 66.4828 9.63258 66.5948C9.79008 66.7069 9.82692 66.9254 9.71487 67.0829L9.14449 66.6771ZM7.64823 70.3316C7.55362 70.5002 7.34028 70.5602 7.17172 70.4656C7.00314 70.371 6.94318 70.1576 7.03778 69.9891L7.64823 70.3316ZM5.32804 73.5444C5.39986 73.3649 5.60357 73.2776 5.78303 73.3495C5.96249 73.4213 6.04975 73.625 5.97792 73.8045L5.32804 73.5444ZM4.75177 77.515C4.69715 77.7004 4.50255 77.8065 4.31713 77.7518C4.13171 77.6972 4.02568 77.5026 4.0803 77.3172L4.75177 77.515ZM3.05426 81.0609C3.10168 80.8735 3.29203 80.76 3.47942 80.8075C3.66681 80.8549 3.78029 81.0452 3.73287 81.2326L3.05426 81.0609ZM2.85104 85.0627C2.81189 85.252 2.62671 85.3737 2.43741 85.3346C2.24812 85.2955 2.1264 85.1103 2.16554 84.921L2.85104 85.0627ZM1.46366 88.7764C1.49356 88.5854 1.67261 88.4549 1.86358 88.4848C2.05456 88.5147 2.18513 88.6937 2.15523 88.8847L1.46366 88.7764ZM1.65994 92.7106C1.64044 92.9029 1.46872 93.043 1.27641 93.0235C1.08409 93.0039 0.944008 92.8322 0.963524 92.6399L1.65994 92.7106ZM0.684646 96.5662C0.692273 96.373 0.855042 96.2227 1.04819 96.2303C1.24134 96.2379 1.39173 96.4007 1.3841 96.5938L0.684646 96.5662ZM1.36308 100.489C1.3689 100.682 1.21698 100.844 1.02377 100.849C0.830561 100.855 0.669213 100.703 0.6634 100.51L1.36308 100.489ZM0.93242 104.436C0.911539 104.244 1.05039 104.071 1.24256 104.05C1.43473 104.029 1.60744 104.168 1.62833 104.36L0.93242 104.436ZM2.21159 108.189C2.24919 108.379 2.12596 108.563 1.93635 108.6C1.74674 108.638 1.56255 108.515 1.52496 108.325L2.21159 108.189ZM2.47407 112.145C2.41826 111.96 2.52305 111.765 2.70812 111.709C2.89318 111.653 3.08845 111.758 3.14426 111.943L2.47407 112.145ZM4.45236 115.58C4.52748 115.758 4.44399 115.963 4.26589 116.038C4.08778 116.114 3.8825 116.03 3.80738 115.852L4.45236 115.58ZM5.54116 119.391C5.4463 119.223 5.50595 119.01 5.67437 118.915C5.84279 118.82 6.05623 118.879 6.15108 119.048L5.54116 119.391ZM8.24014 122.293C8.35428 122.449 8.32034 122.668 8.16434 122.782C8.00833 122.896 7.78934 122.862 7.6752 122.706L8.24014 122.293ZM10.1907 125.742C10.0586 125.601 10.066 125.38 10.2072 125.248C10.3483 125.116 10.5698 125.123 10.7019 125.264L10.1907 125.742ZM13.5038 127.923C13.6517 128.047 13.6706 128.268 13.5461 128.416C13.4215 128.564 13.2007 128.582 13.0529 128.458L13.5038 127.923ZM16.2128 130.822C16.0517 130.715 16.0077 130.498 16.1146 130.337C16.2214 130.176 16.4386 130.132 16.5997 130.239L16.2128 130.822ZM19.9348 132.197C20.1065 132.286 20.1736 132.497 20.0848 132.669C19.996 132.84 19.7848 132.908 19.6131 132.819L19.9348 132.197ZM23.2017 134.448C23.022 134.377 22.9338 134.174 23.0048 133.994C23.0758 133.814 23.2791 133.726 23.4589 133.797L23.2017 134.448ZM27.1256 135.046C27.3113 135.1 27.4183 135.294 27.3646 135.48C27.3109 135.665 27.1168 135.772 26.9311 135.719L27.1256 135.046ZM30.7597 136.642C30.57 136.605 30.4462 136.421 30.4832 136.232C30.5203 136.042 30.7041 135.918 30.8938 135.955L30.7597 136.642ZM34.7274 136.536C34.9195 136.557 35.0583 136.729 35.0374 136.922C35.0164 137.114 34.8437 137.252 34.6515 137.232L34.7274 136.536ZM38.5782 137.499C38.385 137.493 38.2327 137.333 38.2381 137.139C38.2435 136.946 38.4045 136.794 38.5977 136.799L38.5782 137.499ZM42.4777 136.754C42.6708 136.744 42.8352 136.892 42.8451 137.085C42.855 137.278 42.7065 137.443 42.5135 137.453L42.4777 136.754ZM46.4322 137.098C46.2405 137.123 46.0648 136.988 46.0398 136.796C46.0148 136.604 46.15 136.429 46.3416 136.404L46.4322 137.098ZM50.1634 135.749C50.3524 135.709 50.5383 135.83 50.5786 136.019C50.6188 136.208 50.4981 136.394 50.3091 136.434L50.1634 135.749ZM54.123 135.456C53.9379 135.512 53.7426 135.407 53.6868 135.222C53.6309 135.037 53.7356 134.841 53.9207 134.786L54.123 135.456ZM57.5813 133.502C57.7606 133.43 57.9645 133.517 58.0367 133.696C58.1088 133.875 58.0219 134.079 57.8426 134.151L57.5813 133.502ZM61.4238 132.506C61.2524 132.595 61.041 132.529 60.9516 132.357C60.8623 132.186 60.9289 131.975 61.1003 131.885L61.4238 132.506ZM64.4243 129.92C64.5849 129.812 64.8023 129.855 64.9099 130.016C65.0174 130.176 64.9744 130.394 64.8137 130.501L64.4243 129.92ZM67.959 128.103C67.8132 128.23 67.5921 128.215 67.4653 128.069C67.3384 127.923 67.3538 127.702 67.4997 127.575L67.959 128.103ZM70.2575 124.862C70.389 124.72 70.6105 124.712 70.7521 124.843C70.8937 124.975 70.9019 125.196 70.7704 125.338L70.2575 124.862ZM73.3812 122.327C73.2594 122.477 73.039 122.5 72.8889 122.378C72.7388 122.256 72.7159 122.036 72.8378 121.886L73.3812 122.327ZM75.2299 118.753C75.3428 118.597 75.5615 118.561 75.7184 118.674C75.8753 118.787 75.911 119.005 75.7981 119.162L75.2299 118.753ZM78.0351 115.872C77.9306 116.034 77.714 116.081 77.5514 115.977C77.3888 115.872 77.3417 115.656 77.4462 115.493L78.0351 115.872ZM79.4967 112.125C79.5932 111.958 79.8073 111.9 79.9747 111.997C80.1422 112.093 80.1996 112.307 80.1031 112.475L79.4967 112.125ZM82.0102 108.987C81.9212 109.159 81.71 109.226 81.5384 109.137C81.3667 109.048 81.2997 108.837 81.3886 108.665L82.0102 108.987ZM83.1272 105.124C83.2086 104.949 83.4168 104.873 83.5921 104.955C83.7674 105.036 83.8434 105.244 83.7619 105.419L83.1272 105.124ZM85.3618 101.781C85.2877 101.96 85.0828 102.044 84.9043 101.97C84.7258 101.896 84.6412 101.691 84.7153 101.513L85.3618 101.781ZM86.1545 97.8382C86.2214 97.6569 86.4226 97.564 86.6039 97.6308C86.7853 97.6977 86.8782 97.8989 86.8113 98.0803L86.1545 97.8382ZM88.1106 94.3234C88.0511 94.5073 87.8537 94.6082 87.6698 94.5487C87.4859 94.4892 87.385 94.2919 87.4445 94.108L88.1106 94.3234ZM88.584 90.3286C88.6361 90.1424 88.8292 90.0338 89.0153 90.0858C89.2015 90.1379 89.3102 90.331 89.2581 90.5172L88.584 90.3286ZM90.2516 86.6676C90.2071 86.8557 90.0185 86.9721 89.8304 86.9276C89.6423 86.8831 89.5259 86.6946 89.5704 86.5064L90.2516 86.6676ZM90.4 82.6484C90.4367 82.4587 90.6204 82.3346 90.8101 82.3713C90.9999 82.4081 91.124 82.5917 91.0872 82.7815L90.4 82.6484ZM91.7606 78.8665C91.7318 79.0576 91.5536 79.1893 91.3624 79.1606C91.1713 79.1318 91.0396 78.9535 91.0684 78.7624L91.7606 78.8665ZM91.5711 74.8507C91.5916 74.6585 91.764 74.5193 91.9562 74.5398C92.1484 74.5603 92.2876 74.7327 92.2671 74.9249L91.5711 74.8507ZM92.6007 70.9638C92.5888 71.1568 92.4227 71.3035 92.2298 71.2916C92.0368 71.2797 91.8901 71.1137 91.902 70.9207L92.6007 70.9638ZM92.0545 66.9801C92.0574 66.7869 92.2165 66.6326 92.4098 66.6356C92.6031 66.6386 92.7574 66.7977 92.7544 66.991L92.0545 66.9801ZM92.7211 63.0147C92.7274 63.2079 92.5758 63.3696 92.3826 63.3759C92.1894 63.3821 92.0277 63.2306 92.0215 63.0374L92.7211 63.0147ZM91.7957 59.1017C91.7798 58.9091 91.9231 58.74 92.1157 58.7241C92.3084 58.7082 92.4774 58.8515 92.4933 59.0441L91.7957 59.1017ZM92.0637 55.0897C92.0896 55.2813 91.9553 55.4576 91.7637 55.4835C91.5722 55.5094 91.3959 55.3751 91.37 55.1835L92.0637 55.0897ZM90.7374 51.2951C90.7012 51.1052 90.8258 50.922 91.0157 50.8857C91.2055 50.8495 91.3888 50.9741 91.425 51.164L90.7374 51.2951ZM90.571 47.279C90.6178 47.4665 90.5038 47.6565 90.3162 47.7033C90.1287 47.7501 89.9387 47.636 89.8919 47.4485L90.571 47.279ZM88.8281 43.6573C88.7705 43.4728 88.8733 43.2765 89.0578 43.2189C89.2423 43.1612 89.4386 43.2641 89.4963 43.4486L88.8281 43.6573ZM88.1969 39.6873C88.2655 39.868 88.1746 40.0701 87.9939 40.1387C87.8132 40.2073 87.6111 40.1164 87.5425 39.9356L88.1969 39.6873ZM86.0329 36.2978C85.9534 36.1216 86.0317 35.9143 86.2079 35.8347C86.384 35.7552 86.5913 35.8335 86.6709 36.0097L86.0329 36.2978ZM84.9185 32.4314C85.0089 32.6022 84.9437 32.814 84.7729 32.9044C84.602 32.9949 84.3902 32.9297 84.2998 32.7588L84.9185 32.4314ZM82.3523 29.3437C82.2513 29.1789 82.303 28.9634 82.4678 28.8624C82.6326 28.7614 82.8481 28.8131 82.9491 28.9779L82.3523 29.3437ZM80.7655 25.6554C80.8768 25.8135 80.8387 26.0318 80.6806 26.143C80.5225 26.2542 80.3042 26.2162 80.193 26.0581L80.7655 25.6554ZM77.8292 22.9124C77.7083 22.7616 77.7326 22.5413 77.8834 22.4204C78.0343 22.2995 78.2545 22.3238 78.3754 22.4746L77.8292 22.9124ZM75.7873 19.4435C75.9173 19.5866 75.9067 19.8079 75.7636 19.9379C75.6206 20.0679 75.3992 20.0573 75.2692 19.9143L75.7873 19.4435ZM72.5304 17.0775C72.3921 16.9426 72.3893 16.721 72.5243 16.5826C72.6592 16.4442 72.8808 16.4415 73.0192 16.5765L72.5304 17.0775ZM70.1017 13.8923C70.2477 14.019 70.2633 14.2401 70.1365 14.3861C70.0098 14.532 69.7888 14.5476 69.6428 14.4209L70.1017 13.8923ZM66.5995 11.9258C66.4467 11.8074 66.4187 11.5876 66.5371 11.4348C66.6555 11.2819 66.8753 11.254 67.0281 11.3724L66.5995 11.9258ZM63.8052 9.01284C63.9642 9.12284 64.0039 9.34086 63.8939 9.49982C63.7839 9.65876 63.5659 9.69845 63.4069 9.58845L63.8052 9.01284ZM60.1204 7.43592C59.9561 7.3341 59.9054 7.11837 60.0073 6.95406C60.1091 6.78975 60.3248 6.7391 60.4891 6.84093L60.1204 7.43592ZM57.0702 4.8346C57.2391 4.92846 57.3 5.14154 57.2062 5.31052C57.1123 5.4795 56.8993 5.5404 56.7303 5.44654L57.0702 4.8346ZM53.218 3.59994C53.0449 3.51385 52.9744 3.30376 53.0605 3.13069C53.1466 2.95761 53.3566 2.8871 53.5297 2.97319L53.218 3.59994ZM49.9561 1.28979C50.1327 1.36849 50.212 1.57542 50.1333 1.75197C50.0546 1.92851 49.8477 2.00784 49.6711 1.92913L49.9561 1.28979ZM133.968 169.02C133.94 168.507 133.912 167.862 133.882 167.097L134.581 167.069C134.612 167.834 134.639 168.474 134.667 168.982L133.968 169.02ZM133.724 163.174C133.674 161.998 133.614 160.696 133.539 159.28L134.238 159.244C134.313 160.662 134.373 161.966 134.424 163.144L133.724 163.174ZM133.31 155.353C133.231 154.12 133.141 152.825 133.038 151.475L133.736 151.422C133.84 152.775 133.93 154.072 134.009 155.308L133.31 155.353ZM132.717 147.582C132.605 146.321 132.482 145.022 132.346 143.688L133.042 143.617C133.179 144.954 133.302 146.256 133.415 147.52L132.717 147.582ZM131.923 139.8C131.776 138.531 131.618 137.236 131.447 135.92L132.141 135.829C132.312 137.15 132.471 138.447 132.618 139.719L131.923 139.8ZM130.916 132.049C130.732 130.778 130.537 129.49 130.328 128.187L131.019 128.077C131.228 129.383 131.424 130.675 131.609 131.948L130.916 132.049ZM129.682 124.336C129.459 123.067 129.223 121.787 128.974 120.496L129.661 120.364C129.911 121.658 130.147 122.942 130.371 124.215L129.682 124.336ZM128.202 116.668C127.936 115.403 127.657 114.131 127.364 112.853L128.046 112.697C128.34 113.979 128.62 115.255 128.887 116.524L128.202 116.668ZM126.456 109.055C126.143 107.797 125.816 106.536 125.475 105.274L126.151 105.091C126.493 106.358 126.821 107.624 127.135 108.885L126.456 109.055ZM124.417 101.514C124.053 100.268 123.674 99.0224 123.28 97.7782L123.947 97.5668C124.343 98.8162 124.723 100.067 125.089 101.317L124.417 101.514ZM122.059 94.0712C121.638 92.8423 121.202 91.6165 120.749 90.3953L121.406 90.1522C121.86 91.379 122.298 92.6102 122.721 93.8445L122.059 94.0712ZM119.347 86.7536C118.864 85.5461 118.364 84.3449 117.847 83.1514L118.489 82.8732C119.009 84.0728 119.511 85.2801 119.997 86.4934L119.347 86.7536ZM116.244 79.5945C115.692 78.4163 115.122 77.2474 114.534 76.0895L115.158 75.7725C115.749 76.9372 116.323 78.1127 116.878 79.2974L116.244 79.5945ZM112.71 72.6434C112.082 71.5035 111.435 70.3763 110.768 69.2633L111.368 68.9036C112.04 70.024 112.691 71.1585 113.323 72.3055L112.71 72.6434ZM108.701 65.9576C107.99 64.8676 107.259 63.7937 106.506 62.7374L107.076 62.3312C107.834 63.3955 108.571 64.4773 109.288 65.5751L108.701 65.9576ZM104.178 59.6137C103.779 59.1019 103.374 58.595 102.964 58.0931L103.506 57.6501C103.919 58.1561 104.327 58.6672 104.73 59.1832L104.178 59.6137ZM102.964 58.0931C102.548 57.5841 102.125 57.0877 101.698 56.6038L102.222 56.1401C102.656 56.6309 103.084 57.1341 103.506 57.6501L102.964 58.0931ZM99.025 53.8125C98.0843 52.906 97.1201 52.0519 96.1346 51.2486L96.5769 50.706C97.5775 51.5215 98.5561 52.3885 99.5108 53.3085L99.025 53.8125ZM93.0389 48.9367C91.965 48.2039 90.8701 47.5248 89.7565 46.8974L90.1001 46.2876C91.231 46.9246 92.3429 47.6143 93.4334 48.3585L93.0389 48.9367ZM86.3113 45.1457C85.1339 44.6086 83.9393 44.1239 82.7301 43.6896L82.9667 43.0308C84.1938 43.4715 85.4064 43.9636 86.6018 44.5089L86.3113 45.1457ZM79.0407 42.5302C77.7952 42.1927 76.5375 41.9043 75.2703 41.6631L75.4012 40.9755C76.6855 41.2199 77.9606 41.5122 79.2238 41.8546L79.0407 42.5302ZM71.4441 41.0793C70.1636 40.9309 68.8762 40.8274 67.5845 40.7669L67.6173 40.0676C68.9245 40.1289 70.2278 40.2336 71.5247 40.384L71.4441 41.0793ZM63.7111 40.7121C62.4214 40.7352 61.1303 40.7989 59.8402 40.9011L59.785 40.2033C61.0888 40.1 62.3942 40.0356 63.6985 40.0123L63.7111 40.7121ZM55.9862 41.32C54.7064 41.4964 53.4304 41.709 52.1607 41.9561L52.027 41.269C53.3091 41.0195 54.5978 40.8047 55.8906 40.6265L55.9862 41.32ZM48.3743 42.798C47.1183 43.1121 45.8714 43.4586 44.6359 43.8357L44.4316 43.1661C45.6783 42.7857 46.9368 42.4359 48.2044 42.1189L48.3743 42.798ZM40.9542 45.0609C39.7333 45.5012 38.5268 45.9706 37.3374 46.467L37.0678 45.8211C38.2677 45.3202 39.4849 44.8467 40.7167 44.4024L40.9542 45.0609ZM33.794 48.0493C32.6188 48.6092 31.4643 49.195 30.3333 49.8046L30.0012 49.1884C31.1424 48.5732 32.3073 47.9822 33.4929 47.4173L33.794 48.0493ZM26.966 51.7315C25.8498 52.409 24.7617 53.1095 23.7049 53.8306L23.3104 53.2524C24.3776 52.5241 25.4761 51.8169 26.6029 51.1331L26.966 51.7315ZM20.566 56.1041C19.528 56.9023 18.528 57.7204 17.5696 58.5558L17.1097 58.0281C18.0792 57.1831 19.0903 56.3558 20.1393 55.5492L20.566 56.1041ZM14.7364 61.197C13.8037 62.129 12.9234 63.0775 12.0998 64.0389L11.5682 63.5835C12.4041 62.6077 13.2968 61.646 14.2416 60.7019L14.7364 61.197ZM9.71487 67.0829C8.95105 68.1565 8.26035 69.2409 7.64823 70.3316L7.03778 69.9891C7.66294 68.8751 8.36721 67.7696 9.14449 66.6771L9.71487 67.0829ZM5.97792 73.8045C5.73776 74.4045 5.52278 75.005 5.33385 75.6051L4.66616 75.3949C4.86059 74.7773 5.08156 74.1602 5.32804 73.5444L5.97792 73.8045ZM5.33385 75.6051C5.13163 76.2474 4.93764 76.8841 4.75177 77.515L4.0803 77.3172C4.26742 76.6821 4.46266 76.0413 4.66616 75.3949L5.33385 75.6051ZM3.73287 81.2326C3.40329 82.5351 3.10976 83.8117 2.85104 85.0627L2.16554 84.921C2.42641 83.6596 2.72225 82.373 3.05426 81.0609L3.73287 81.2326ZM2.15523 88.8847C1.95088 90.1898 1.78631 91.465 1.65994 92.7106L0.963524 92.6399C1.0912 91.3814 1.25741 90.0937 1.46366 88.7764L2.15523 88.8847ZM1.3841 96.5938C1.33134 97.9293 1.3251 99.2275 1.36308 100.489L0.6634 100.51C0.624913 99.2318 0.631264 97.9173 0.684646 96.5662L1.3841 96.5938ZM1.62833 104.36C1.77186 105.681 1.96734 106.957 2.21159 108.189L1.52496 108.325C1.27662 107.073 1.0781 105.777 0.93242 104.436L1.62833 104.36ZM3.14426 111.943C3.52572 113.208 3.96318 114.42 4.45236 115.58L3.80738 115.852C3.30841 114.669 2.86257 113.434 2.47407 112.145L3.14426 111.943ZM6.15108 119.048C6.79355 120.189 7.49169 121.27 8.24014 122.293L7.6752 122.706C6.91041 121.661 6.19725 120.556 5.54116 119.391L6.15108 119.048ZM10.7019 125.264C11.5885 126.212 12.5245 127.098 13.5038 127.923L13.0529 128.458C12.0528 127.616 11.0966 126.711 10.1907 125.742L10.7019 125.264ZM16.5997 130.239C17.6752 130.952 18.789 131.604 19.9348 132.197L19.6131 132.819C18.4457 132.215 17.31 131.55 16.2128 130.822L16.5997 130.239ZM23.4589 133.797C24.6579 134.271 25.8822 134.687 27.1256 135.046L26.9311 135.719C25.6672 135.353 24.4219 134.93 23.2017 134.448L23.4589 133.797ZM30.8938 135.955C32.1613 136.202 33.4413 136.395 34.7274 136.536L34.6515 137.232C33.3464 137.089 32.047 136.893 30.7597 136.642L30.8938 135.955ZM38.5977 136.799C39.8934 136.835 41.1888 136.82 42.4777 136.754L42.5135 137.453C41.2064 137.52 39.8925 137.535 38.5782 137.499L38.5977 136.799ZM46.3416 136.404C47.6313 136.235 48.9074 136.017 50.1634 135.749L50.3091 136.434C49.0347 136.705 47.7402 136.927 46.4322 137.098L46.3416 136.404ZM53.9207 134.786C55.1724 134.408 56.3951 133.979 57.5813 133.502L57.8426 134.151C56.6365 134.637 55.3941 135.072 54.123 135.456L53.9207 134.786ZM61.1003 131.885C62.2598 131.281 63.3706 130.625 64.4243 129.92L64.8137 130.501C63.7378 131.222 62.6049 131.891 61.4238 132.506L61.1003 131.885ZM67.4997 127.575C67.9873 127.151 68.4567 126.714 68.9065 126.264L69.4014 126.759C68.9398 127.221 68.4586 127.669 67.959 128.103L67.4997 127.575ZM68.9065 126.264C69.3593 125.811 69.8098 125.344 70.2575 124.862L70.7704 125.338C70.317 125.826 69.8606 126.3 69.4014 126.759L68.9065 126.264ZM72.8378 121.886C73.6488 120.887 74.447 119.842 75.2299 118.753L75.7981 119.162C75.0077 120.261 74.2011 121.317 73.3812 122.327L72.8378 121.886ZM77.4462 115.493C78.1462 114.404 78.8304 113.28 79.4967 112.125L80.1031 112.475C79.4313 113.64 78.7412 114.773 78.0351 115.872L77.4462 115.493ZM81.3886 108.665C81.9869 107.51 82.5671 106.329 83.1272 105.124L83.7619 105.419C83.1976 106.633 82.6131 107.823 82.0102 108.987L81.3886 108.665ZM84.7153 101.513C85.216 100.307 85.6963 99.0818 86.1545 97.8382L86.8113 98.0803C86.3498 99.3327 85.8661 100.567 85.3618 101.781L84.7153 101.513ZM87.4445 94.108C87.8474 92.8627 88.2277 91.6022 88.584 90.3286L89.2581 90.5172C88.8993 91.7999 88.5163 93.0693 88.1106 94.3234L87.4445 94.108ZM89.5704 86.5064C89.8721 85.2307 90.1492 83.9441 90.4 82.6484L91.0872 82.7815C90.8346 84.0867 90.5555 85.3826 90.2516 86.6676L89.5704 86.5064ZM91.0684 78.7624C91.2635 77.4649 91.4315 76.1605 91.5711 74.8507L92.2671 74.9249C92.1265 76.2448 91.9572 77.5593 91.7606 78.8665L91.0684 78.7624ZM91.902 70.9207C91.9828 69.61 92.0341 68.2959 92.0545 66.9801L92.7544 66.991C92.7339 68.3177 92.6822 69.6426 92.6007 70.9638L91.902 70.9207ZM92.0215 63.0374C91.9788 61.7248 91.904 60.4124 91.7957 59.1017L92.4933 59.0441C92.6026 60.3666 92.678 61.6907 92.7211 63.0147L92.0215 63.0374ZM91.37 55.1835C91.1942 53.8833 90.9838 52.5866 90.7374 51.2951L91.425 51.164C91.6738 52.4681 91.8862 53.7772 92.0637 55.0897L91.37 55.1835ZM89.8919 47.4485C89.5745 46.1773 89.2204 44.9131 88.8281 43.6573L89.4963 43.4486C89.8927 44.7175 90.2505 45.9949 90.571 47.279L89.8919 47.4485ZM87.5425 39.9356C87.0783 38.7125 86.5755 37.4994 86.0329 36.2978L86.6709 36.0097C87.2195 37.2245 87.7278 38.451 88.1969 39.6873L87.5425 39.9356ZM84.2998 32.7588C83.6904 31.6074 83.0416 30.4685 82.3523 29.3437L82.9491 28.9779C83.6462 30.1154 84.3023 31.2671 84.9185 32.4314L84.2998 32.7588ZM80.193 26.0581C79.4449 24.9945 78.6573 23.9454 77.8292 22.9124L78.3754 22.4746C79.2127 23.5191 80.009 24.5798 80.7655 25.6554L80.193 26.0581ZM75.2692 19.9143C74.3952 18.9523 73.4826 18.0063 72.5304 17.0775L73.0192 16.5765C73.9814 17.515 74.9038 18.4711 75.7873 19.4435L75.2692 19.9143ZM69.6428 14.4209C68.6652 13.5723 67.651 12.7402 66.5995 11.9258L67.0281 11.3724C68.0899 12.1947 69.1141 13.035 70.1017 13.8923L69.6428 14.4209ZM63.4069 9.58845C62.3457 8.85403 61.2504 8.13623 60.1204 7.43592L60.4891 6.84093C61.629 7.54737 62.7342 8.27162 63.8052 9.01284L63.4069 9.58845ZM56.7303 5.44654C55.5917 4.81417 54.4212 4.19838 53.218 3.59994L53.5297 2.97319C54.7423 3.57628 55.9222 4.197 57.0702 4.8346L56.7303 5.44654ZM49.6711 1.92913C49.0648 1.65886 48.451 1.39272 47.8294 1.13083L48.1012 0.485746C48.7271 0.749492 49.3454 1.01753 49.9561 1.28979L49.6711 1.92913Z" fill="white"/>
</svg>
