<svg width="110" height="110" viewBox="0 0 110 110" fill="none" xmlns="http://www.w3.org/2000/svg">
<g id="Group">
<g id="Vector" filter="url(#filter0_i_818_9927)">
<path d="M100.377 24.4662C99.7501 22.3824 98.2372 20.6876 96.3483 19.6503L57.9881 0.646332C56.9765 0.127704 55.8485 -0.00195312 54.8369 -0.00195312C53.8253 -0.00195312 52.6973 -0.00195312 51.6947 0.257361L13.3255 19.391C11.4366 20.2986 10.058 21.9934 9.54772 24.2069L0.121048 67.0214C-0.254944 69.2349 0.246379 71.4483 1.50864 73.2727L28.0519 107.234C29.5648 108.799 31.7044 109.836 33.835 109.966H76.0984C78.3633 110.225 80.5029 109.188 81.8815 107.234L108.425 73.2727C109.687 71.4483 110.188 69.2349 109.938 67.0214L100.377 24.4662Z" fill="#326DE6"/>
</g>
<path id="Vector_2" d="M94.5141 64.3106C94.3887 64.3106 94.2634 64.3106 94.2634 64.1809C94.2634 64.0513 94.0128 64.0513 93.7621 64.0513C93.2608 63.9216 92.7595 63.9216 92.2493 63.9216C91.9986 63.9216 91.748 63.9216 91.4973 63.792H91.372C89.9845 63.6623 88.4806 63.403 87.0931 63.0141C86.7171 62.8844 86.3411 62.4955 86.2158 62.1065L85.2132 61.8472C85.7145 58.0688 85.4639 54.1701 84.7119 50.3917C83.8346 46.6133 82.3218 42.9739 80.3077 39.7233L81.0596 38.9454V38.8158C81.0596 38.4268 81.1849 37.9082 81.4356 37.6489C82.5635 36.6117 83.7004 35.8246 84.9536 35.0467C85.2043 34.917 85.4549 34.7874 85.7056 34.6577C86.2069 34.3984 86.5828 34.1391 87.0931 33.8798C87.2184 33.7502 87.3437 33.7502 87.469 33.6205C87.5944 33.4909 87.469 33.4909 87.469 33.3612C88.597 32.4537 88.8566 30.8886 87.9703 29.7217C87.5944 29.2031 86.8424 28.8142 86.2069 28.8142C85.5802 28.8142 84.9447 29.0735 84.4434 29.4624L84.318 29.5921C84.1927 29.7217 84.0674 29.8514 83.9421 29.8514C83.5661 30.2403 83.1901 30.6293 82.9395 31.0182C82.8141 31.2775 82.5635 31.4072 82.4382 31.5368C81.5609 32.574 80.424 33.6205 79.2961 34.3984C79.0455 34.5281 78.7948 34.6577 78.5442 34.6577C78.4188 34.6577 78.1682 34.6577 78.0429 34.5281H77.9175L76.915 35.1763C75.9124 34.1391 74.7755 33.0926 73.7729 32.0554C69.118 28.2771 63.3352 25.9434 57.4181 25.2859L57.2927 24.2486V24.3783C56.9168 24.119 56.7914 23.73 56.6661 23.3411C56.6661 21.9057 56.6661 20.4795 56.9168 18.9145V18.7848C56.9168 18.5255 57.0421 18.2662 57.0421 18.0069C57.1674 17.4883 57.1674 16.9697 57.2927 16.4419V15.6454C57.4181 14.3397 56.4155 13.0432 55.1533 12.9135C54.4013 12.7839 53.6404 13.1728 53.0138 13.8211C52.5125 14.3397 52.2619 14.9879 52.2619 15.6454V16.2937C52.2619 16.8123 52.3872 17.3309 52.5125 17.8587C52.6378 18.118 52.6378 18.3773 52.6378 18.6366V18.7663C52.8885 20.2017 52.8885 21.6279 52.8885 23.1929C52.7632 23.5819 52.6378 23.9708 52.2619 24.2301V24.4894L52.1365 25.5266C50.749 25.6563 49.3705 25.9156 47.8576 26.1749C41.9495 27.4806 36.5337 30.7312 32.389 35.2874L31.6371 34.7688H31.5117C31.3864 34.7688 31.2611 34.8985 31.0104 34.8985C30.7598 34.8985 30.5091 34.7688 30.2585 34.6392C29.1306 33.7316 27.9937 32.6852 27.1164 31.648C26.9911 31.3887 26.7405 31.259 26.6151 31.1294C26.2392 30.7404 25.9885 30.3515 25.6125 29.9625C25.4872 29.8329 25.3619 29.8329 25.2366 29.7032C25.1112 29.5736 25.1112 29.5736 25.1112 29.5736C24.6099 29.1846 23.9833 28.9253 23.3477 28.9253C22.5958 28.9253 21.9602 29.1846 21.5843 29.8329C20.8323 30.9997 21.083 32.5648 22.0855 33.4723C22.2109 33.4723 22.2109 33.602 22.2109 33.602C22.2109 33.602 22.4615 33.8613 22.5868 33.8613C22.9628 34.1206 23.4641 34.3799 23.9744 34.6392C24.225 34.7688 24.4757 34.8985 24.7263 35.0281C25.9885 35.806 27.2418 36.5932 28.2443 37.6304C28.495 37.8897 28.7456 38.4083 28.6203 38.7973V38.6676L29.3723 39.4455C29.2469 39.7048 29.1216 39.8345 28.9963 40.0938C25.0933 46.4744 23.4641 54.0219 24.592 61.4397L23.5894 61.699C23.5894 61.8287 23.4641 61.8287 23.4641 61.8287C23.3388 62.2176 22.9628 62.477 22.5868 62.7363C21.1993 63.1252 19.8208 63.3845 18.3079 63.5141C18.0573 63.5141 17.8066 63.5142 17.556 63.6438C17.0547 63.6438 16.5534 63.7735 16.0431 63.7735C15.9178 63.7735 15.7925 63.9031 15.5418 63.9031C15.4165 63.9031 15.4165 63.9031 15.2912 64.0328C13.9037 64.2921 13.0264 65.5978 13.277 67.024C13.5277 68.1908 14.6646 68.978 15.7925 68.8483C16.0431 68.8483 16.1685 68.8483 16.4191 68.7187C16.5444 68.7187 16.5444 68.7187 16.5444 68.589C16.5444 68.4594 16.9204 68.589 17.0457 68.589C17.547 68.4594 18.0483 68.2001 18.4332 68.0704C18.6839 67.9408 18.9345 67.8111 19.1852 67.8111H19.3105C20.698 67.2925 21.9513 66.9036 23.4641 66.6443H23.5894C23.9654 66.6443 24.3414 66.7739 24.592 67.0332C24.7174 67.0332 24.7174 67.1629 24.7174 67.1629L25.8453 67.0332C27.7341 73.0157 31.2521 78.3591 36.1577 82.2579C37.2856 83.1654 38.2971 83.9526 39.5504 84.6008L38.9238 85.5084C38.9238 85.638 39.0491 85.638 39.0491 85.638C39.2997 86.027 39.2997 86.5456 39.1744 86.9438C38.6731 88.2496 37.9122 89.5461 37.1603 90.7222V90.8518C37.035 91.1111 36.9096 91.2408 36.659 91.5001C36.4083 91.7594 36.1577 92.278 35.7817 92.8059C35.6564 92.9355 35.6564 93.0651 35.5311 93.1948C35.5311 93.1948 35.5311 93.3244 35.4057 93.3244C34.7791 94.6302 35.2804 96.186 36.4083 96.8343C36.659 96.9639 37.035 97.0936 37.2856 97.0936C38.2882 97.0936 39.1744 96.4453 39.6757 95.5285C39.6757 95.5285 39.6757 95.3988 39.801 95.3988C39.801 95.2692 39.9264 95.1396 40.0517 95.0099C40.177 94.4913 40.4277 94.1024 40.553 93.5745L40.8036 92.7966C41.1796 91.3612 41.8062 90.0647 42.4418 88.7589C42.6925 88.37 43.0684 88.1107 43.4444 87.981C43.5697 87.981 43.5697 87.981 43.5697 87.8514L44.071 86.8142C47.5891 88.2496 51.2414 88.8978 55.01 88.8978C57.2748 88.8978 59.5396 88.6385 61.8044 87.9903C63.1919 87.731 64.5705 87.2124 65.8327 86.8234L66.334 87.731C66.4593 87.731 66.4593 87.731 66.4593 87.8606C66.8353 87.9903 67.2113 88.2496 67.4619 88.6385C68.0885 89.9443 68.7241 91.2408 69.1001 92.6762V92.8059L69.3507 93.5837C69.4761 94.1023 69.6014 94.621 69.852 95.0192C69.9774 95.1488 69.9774 95.2785 70.1027 95.4081C70.1027 95.4081 70.1027 95.5378 70.228 95.5378C70.7293 96.4453 71.6155 97.1028 72.6181 97.1028C72.9941 97.1028 73.2447 96.9732 73.6207 96.8435C74.122 96.5842 74.6233 96.0656 74.7486 95.4081C74.874 94.7599 74.874 94.1023 74.6233 93.4541C74.6233 93.3244 74.498 93.3244 74.498 93.3244C74.498 93.1948 74.3727 93.0652 74.2473 92.9355C73.9967 92.4169 73.746 92.0279 73.3701 91.6297C73.2447 91.3704 73.1194 91.2408 72.8688 90.9815V90.7222C71.9915 89.5553 71.3559 88.2496 70.8546 86.9438C70.7293 86.5549 70.7293 86.0363 70.9799 85.638C70.9799 85.5084 71.1053 85.5084 71.1053 85.5084L70.7293 84.4712C77.1477 80.4335 82.0532 74.1918 84.318 66.7739L85.3206 66.9036C85.446 66.9036 85.446 66.7739 85.446 66.7739C85.6966 66.5146 86.0726 66.385 86.4486 66.385H86.5739C87.9614 66.6443 89.34 67.0332 90.6022 67.5518H90.7275C90.9781 67.6815 91.2288 67.8111 91.4794 67.8111C91.9807 68.0704 92.3567 68.3297 92.867 68.4594C92.9923 68.4594 93.1176 68.589 93.3682 68.589C93.4936 68.589 93.4936 68.589 93.6189 68.7187C93.8695 68.8483 93.9949 68.8483 94.2455 68.8483C95.3734 68.8483 96.385 68.0704 96.761 67.024C96.6535 65.6163 95.642 64.5699 94.5141 64.3106ZM58.1611 60.2729L54.7683 61.9676L51.3756 60.2729L50.4984 56.4945L52.8885 53.3736H56.6661L59.0562 56.4945L58.1611 60.2729ZM78.6605 51.8178C79.2872 54.5498 79.4125 57.2817 79.1618 60.0136L67.2113 56.5038C66.0833 56.2445 65.4478 55.0684 65.6984 53.9015C65.8237 53.5126 65.9491 53.2533 66.1997 52.994L75.6348 44.1407C77.0224 46.4837 78.0339 49.0859 78.6605 51.8178ZM71.8662 39.3251L61.5538 46.8726C60.6765 47.3912 59.4143 47.2616 58.7877 46.354C58.537 46.0947 58.4117 45.8354 58.4117 45.4465L57.6598 32.3055C63.1919 32.9537 68.0975 35.4264 71.8662 39.3251ZM49.1019 32.6852L51.6173 32.1666L50.9907 45.1779C50.9907 46.3448 49.9881 47.2616 48.8513 47.2616C48.4753 47.2616 48.2246 47.1319 47.8487 47.0023L37.4109 39.3251C40.6694 36.0746 44.6976 33.7316 49.1019 32.6852ZM33.7586 44.1407L43.0684 52.7254C43.9457 53.5033 44.071 54.8091 43.3191 55.7166C43.0684 56.1056 42.8178 56.2352 42.3165 56.3649L30.1153 60.0043C29.7303 54.5498 30.9836 48.9563 33.7586 44.1407ZM31.6192 66.1349L44.071 63.9216C45.0736 63.9216 46.0852 64.5699 46.2105 65.6163C46.3358 66.0053 46.3358 66.5239 46.0852 66.9221L41.3049 78.8962C36.9007 75.8958 33.3737 71.3395 31.6192 66.1349ZM60.1752 82.2671C58.4117 82.6561 56.6572 82.9154 54.7683 82.9154C52.1276 82.9154 49.3615 82.3968 46.8461 81.6096L53.0138 70.0244C53.6404 69.2465 54.652 68.9872 55.5292 69.5058C55.9052 69.7651 56.1559 70.0244 56.5318 70.4134L62.5743 81.7393C61.8044 81.8782 61.0525 82.0078 60.1752 82.2671ZM75.5185 70.9505C73.6297 74.0714 70.9889 76.8033 67.9722 78.7573L63.0666 66.5239C62.816 65.4867 63.3173 64.4402 64.1945 64.0513C64.5705 63.9216 64.9465 63.792 65.3225 63.792L77.8996 66.0053C77.282 67.8204 76.5211 69.5151 75.5185 70.9505Z" fill="#EEEEEE"/>
</g>
<defs>
<filter id="filter0_i_818_9927" x="-0.000976562" y="-0.00195312" width="114.001" height="114.008" filterUnits="userSpaceOnUse" color-interpolation-filters="sRGB">
<feFlood flood-opacity="0" result="BackgroundImageFix"/>
<feBlend mode="normal" in="SourceGraphic" in2="BackgroundImageFix" result="shape"/>
<feColorMatrix in="SourceAlpha" type="matrix" values="0 0 0 0 0 0 0 0 0 0 0 0 0 0 0 0 0 0 127 0" result="hardAlpha"/>
<feOffset dx="4" dy="8"/>
<feGaussianBlur stdDeviation="2"/>
<feComposite in2="hardAlpha" operator="arithmetic" k2="-1" k3="1"/>
<feColorMatrix type="matrix" values="0 0 0 0 0.849924 0 0 0 0 0.849924 0 0 0 0 0.849924 0 0 0 0.25 0"/>
<feBlend mode="normal" in2="shape" result="effect1_innerShadow_818_9927"/>
</filter>
</defs>
</svg>
