<svg width="30" height="30" viewBox="0 0 30 30" fill="none" xmlns="http://www.w3.org/2000/svg">
<g clip-path="url(#clip0_1922_62935)">
<path d="M9.81211 17.1667V18.5916C9.81211 18.7854 9.8891 18.9713 10.0261 19.1083C10.1632 19.2454 10.349 19.3224 10.5428 19.3224C10.7367 19.3224 10.9225 19.2454 11.0596 19.1083C11.1966 18.9713 11.2736 18.7854 11.2736 18.5916V17.07C11.2714 16.8624 11.2195 16.6583 11.1223 16.4749C11.0251 16.2914 10.8854 16.1339 10.7149 16.0155C9.66271 15.2667 8.8276 14.2527 8.29445 13.0765C7.7613 11.9003 7.54911 10.6039 7.67946 9.31907C8.03022 5.85422 10.9195 3.06054 14.3995 2.82052C15.3969 2.74609 16.3989 2.87991 17.3418 3.21347C18.2847 3.54703 19.1479 4.07305 19.8767 4.75811C20.6671 5.49555 21.2831 6.39988 21.6801 7.40533C22.0771 8.41079 22.2449 9.49208 22.1715 10.5706C22.0981 11.649 21.7852 12.6976 21.2556 13.64C20.726 14.5823 19.993 15.3948 19.11 16.0183C18.9403 16.1364 18.8014 16.2935 18.7049 16.4764C18.6085 16.6593 18.5573 16.8627 18.5557 17.0694V18.5916C18.5557 18.7854 18.6327 18.9713 18.7697 19.1083C18.9068 19.2454 19.0927 19.3224 19.2865 19.3224C19.4803 19.3224 19.6661 19.2454 19.8032 19.1083C19.9402 18.9713 20.0172 18.7854 20.0172 18.5916V17.1667C21.0654 16.4123 21.9333 15.4348 22.5584 14.3046C23.1835 13.1745 23.5502 11.9198 23.6321 10.6309C23.7141 9.34207 23.5092 8.05105 23.0322 6.85086C22.5553 5.65068 21.8181 4.57118 20.8739 3.6901C19.999 2.86719 18.9626 2.23533 17.8303 1.83469C16.6981 1.43405 15.4949 1.27341 14.2972 1.36297C10.1179 1.65133 6.64687 5.00825 6.22529 9.17179C6.07042 10.7018 6.32025 12.2457 6.94974 13.6488C7.57923 15.0519 8.5663 16.265 9.81211 17.1667Z" fill="white"/>
<path d="M13.4113 28.1773H16.4191C16.8784 28.1768 17.3188 27.9942 17.6436 27.6694C17.9684 27.3446 18.1511 26.9042 18.1515 26.4448V26.1391C18.6992 25.9237 19.1696 25.5491 19.5021 25.0636C19.8346 24.5781 20.0138 24.0041 20.0166 23.4156V21.4651C20.0166 21.2713 19.9396 21.0854 19.8026 20.9484C19.6655 20.8114 19.4797 20.7344 19.2859 20.7344H10.5423C10.3485 20.7344 10.1626 20.8114 10.0256 20.9484C9.88851 21.0854 9.81152 21.2713 9.81152 21.4651V23.4156C9.81485 24.004 9.99457 24.5779 10.3275 25.0631C10.6603 25.5483 11.1311 25.9225 11.6789 26.1374V26.4432C11.6789 26.9028 11.8613 27.3436 12.1862 27.6688C12.511 27.9939 12.9517 28.1768 13.4113 28.1773ZM11.2753 23.4179V22.1981H18.5551V23.4156C18.553 23.7647 18.4266 24.1016 18.1985 24.3658C17.9704 24.6301 17.6556 24.8044 17.3106 24.8574C17.1374 24.8833 16.9793 24.9705 16.8649 25.1032C16.7506 25.2359 16.6878 25.4052 16.6878 25.5803V26.4432C16.6878 26.515 16.6593 26.5839 16.6085 26.6347C16.5576 26.6856 16.4887 26.7141 16.4169 26.7141H13.4113C13.3394 26.7141 13.2705 26.6856 13.2197 26.6347C13.1689 26.5839 13.1403 26.515 13.1403 26.4432V25.582C13.1404 25.4069 13.0775 25.2376 12.9632 25.1049C12.8489 24.9722 12.6907 24.885 12.5175 24.8591C12.1722 24.806 11.8572 24.6315 11.6291 24.3669C11.401 24.1023 11.2747 23.765 11.273 23.4156L11.2753 23.4179Z" fill="white"/>
<path d="M1.24246 10.8209H3.61906C3.81286 10.8209 3.99873 10.7439 4.13577 10.6068C4.27281 10.4698 4.3498 10.2839 4.3498 10.0901C4.3498 9.89631 4.27281 9.71044 4.13577 9.5734C3.99873 9.43636 3.81286 9.35938 3.61906 9.35938H1.24246C1.04866 9.35938 0.862789 9.43636 0.725748 9.5734C0.588707 9.71044 0.511719 9.89631 0.511719 10.0901C0.511719 10.2839 0.588707 10.4698 0.725748 10.6068C0.862789 10.7439 1.04866 10.8209 1.24246 10.8209Z" fill="white"/>
<path d="M2.78288 4.26069L5.00209 5.71543C5.16411 5.81674 5.35938 5.85055 5.54604 5.80961C5.7327 5.76868 5.8959 5.65625 6.00066 5.49643C6.10542 5.33661 6.1434 5.14211 6.10647 4.95462C6.06954 4.76712 5.96063 4.60156 5.80309 4.4934L3.58445 3.03866C3.50422 2.98534 3.41423 2.9484 3.31967 2.92998C3.22512 2.91157 3.12785 2.91203 3.03347 2.93134C2.93909 2.95065 2.84946 2.98843 2.76974 3.04251C2.69002 3.09659 2.62177 3.1659 2.56894 3.24645C2.5161 3.32701 2.47971 3.41721 2.46187 3.51188C2.44402 3.60655 2.44507 3.70381 2.46495 3.79807C2.48484 3.89233 2.52316 3.98173 2.57772 4.06112C2.63229 4.14052 2.70201 4.20834 2.78288 4.26069Z" fill="white"/>
<path d="M5.00209 14.465L2.78288 15.9197C2.70201 15.972 2.63229 16.0399 2.57772 16.1193C2.52316 16.1987 2.48484 16.2881 2.46495 16.3823C2.44507 16.4766 2.44402 16.5738 2.46187 16.6685C2.47971 16.7632 2.5161 16.8534 2.56894 16.9339C2.62177 17.0145 2.69002 17.0838 2.76974 17.1379C2.84946 17.192 2.93909 17.2297 3.03347 17.249C3.12785 17.2684 3.22512 17.2688 3.31967 17.2504C3.41423 17.232 3.50422 17.1951 3.58445 17.1417L5.80309 15.687C5.96386 15.5801 6.07582 15.414 6.11452 15.2249C6.15321 15.0358 6.11551 14.839 6.00963 14.6776C5.90375 14.5162 5.73831 14.4032 5.54943 14.3634C5.36055 14.3236 5.16357 14.3601 5.00152 14.465H5.00209Z" fill="white"/>
<path d="M28.5614 9.35938H26.1848C25.991 9.35938 25.8052 9.43636 25.6681 9.5734C25.5311 9.71044 25.4541 9.89631 25.4541 10.0901C25.4541 10.2839 25.5311 10.4698 25.6681 10.6068C25.8052 10.7439 25.991 10.8209 26.1848 10.8209H28.5614C28.7552 10.8209 28.9411 10.7439 29.0782 10.6068C29.2152 10.4698 29.2922 10.2839 29.2922 10.0901C29.2922 9.89631 29.2152 9.71044 29.0782 9.5734C28.9411 9.43636 28.7552 9.35938 28.5614 9.35938Z" fill="white"/>
<path d="M24.4012 5.83519C24.5434 5.83527 24.6826 5.79364 24.8014 5.71546L27.0201 4.26072C27.1808 4.15387 27.2928 3.98774 27.3315 3.79862C27.3702 3.6095 27.3325 3.41275 27.2266 3.25134C27.1207 3.08993 26.9553 2.97697 26.7664 2.93712C26.5775 2.89728 26.3806 2.93379 26.2185 3.03869L23.9999 4.49343C23.8683 4.57973 23.7681 4.7062 23.7142 4.85402C23.6602 5.00183 23.6555 5.16311 23.7006 5.31386C23.7457 5.4646 23.8382 5.59677 23.9644 5.6907C24.0907 5.78463 24.2439 5.8353 24.4012 5.83519Z" fill="white"/>
<path d="M24.0001 15.687L26.2187 17.1417C26.3808 17.2466 26.5778 17.2831 26.7666 17.2433C26.9555 17.2035 27.121 17.0905 27.2268 16.9291C27.3327 16.7677 27.3704 16.5709 27.3317 16.3818C27.293 16.1927 27.1811 16.0266 27.0203 15.9197L24.8017 14.465C24.6396 14.3601 24.4426 14.3236 24.2538 14.3634C24.0649 14.4032 23.8994 14.5162 23.7935 14.6776C23.6877 14.839 23.65 15.0358 23.6887 15.2249C23.7274 15.414 23.8393 15.5801 24.0001 15.687Z" fill="white"/>
<path d="M14.9263 6.27786C14.8364 6.24437 14.7407 6.22893 14.6448 6.23242C14.5489 6.2359 14.4546 6.25825 14.3673 6.29818C14.2801 6.33812 14.2015 6.39485 14.1362 6.46514C14.0708 6.53544 14.02 6.61792 13.9865 6.70787L12.661 10.2694C12.62 10.3799 12.6062 10.4987 12.621 10.6156C12.6358 10.7326 12.6786 10.8442 12.7459 10.941C12.8131 11.0378 12.9028 11.1169 13.0073 11.1715C13.1117 11.2262 13.2278 11.2547 13.3457 11.2548H15.4311L14.4727 13.8309C14.4051 14.0126 14.4124 14.2136 14.4931 14.3899C14.5737 14.5662 14.7211 14.7032 14.9027 14.7708C15.0844 14.8384 15.2855 14.8311 15.4617 14.7504C15.638 14.6698 15.775 14.5224 15.8426 14.3408L17.168 10.7792C17.2091 10.6687 17.2228 10.55 17.2081 10.433C17.1933 10.3161 17.1505 10.2044 17.0832 10.1076C17.0159 10.0108 16.9263 9.93174 16.8218 9.8771C16.7174 9.82246 16.6013 9.7939 16.4834 9.79385H14.3957L15.3541 7.2177C15.4218 7.03634 15.4149 6.8355 15.3347 6.65929C15.2544 6.48307 15.1076 6.34589 14.9263 6.27786Z" fill="white"/>
</g>
<defs>
<clipPath id="clip0_1922_62935">
<rect width="28.78" height="28.78" fill="white" transform="translate(0.511719 0.369141)"/>
</clipPath>
</defs>
</svg>
