<svg width="24" height="29" viewBox="0 0 24 29" fill="none" xmlns="http://www.w3.org/2000/svg">
<g id="Group 813">
<path id="Path 177" d="M10.8531 0.090332H6.25207C0.0538715 0.090332 0.484943 5.28151 0.484943 5.28151V25.46C0.481395 25.5233 0.47903 25.5828 0.47903 25.6448C0.47903 25.7069 0.47903 25.7715 0.484943 25.8297C0.530036 26.5388 0.830638 27.2015 1.32334 27.6779C1.81604 28.1542 2.46231 28.4071 3.12582 28.3831C3.78933 28.3592 4.41821 28.0602 4.87978 27.5493C5.34135 27.0385 5.59952 26.3556 5.59985 25.6448C5.59985 25.465 5.55254 8.93685 5.55254 8.47535C5.55254 8.36646 5.5555 8.26137 5.56082 8.15881C5.56082 0.97663 10.8531 0.090332 10.8531 0.090332Z" fill="#4259A1"/>
<path id="Path 178" d="M15.5009 0.090332H12.4425C12.4425 0.090332 7.02344 0.965081 7.02344 8.05367C7.20085 4.91145 13.335 5.21386 13.335 5.21386H13.9557C15.1093 5.21403 16.2183 5.67448 17.0506 6.49891C17.8829 7.32333 18.3742 8.4479 18.4215 9.63743C18.4689 10.827 18.0688 11.9893 17.3049 12.8815C16.541 13.7736 15.4724 14.3265 14.3226 14.4243C14.2015 14.4343 14.0804 14.4412 13.9557 14.4412H12.3814C12.3814 14.4412 8.64372 14.1819 8.64372 17.2048C8.64372 20.2277 12.8821 19.8847 12.8821 19.8847H15.4996C15.6813 19.8847 15.8629 19.8765 16.0416 19.8647C20.4834 19.576 24.0001 15.3372 24.0001 10.035C24.0001 4.73275 20.1952 0.090332 15.5009 0.090332Z" fill="#1CAB98"/>
</g>
</svg>
