<svg width="30" height="30" viewBox="0 0 30 30" fill="none" xmlns="http://www.w3.org/2000/svg">
<path d="M16.7005 11.1618H3.20988C2.21607 11.1618 1.41113 11.9668 1.41113 12.9606V17.4574C1.41113 18.2939 1.98673 18.9909 2.7602 19.1932V20.2185C1.98673 20.4209 1.41113 21.1179 1.41113 21.9543V26.4512C1.41113 27.445 2.21607 28.2499 3.20988 28.2499H16.7005C17.6943 28.2499 18.4993 27.445 18.4993 26.4512V21.9543C18.4993 21.1179 17.9237 20.4209 17.1502 20.2185V19.1932C17.9237 18.9909 18.4993 18.2939 18.4993 17.4574V12.9606C18.4993 11.9668 17.6943 11.1618 16.7005 11.1618ZM16.2508 20.1556H3.65957V19.2562H16.2508V20.1556ZM17.5999 21.9543V26.4512C17.5999 26.9459 17.1952 27.3506 16.7005 27.3506H3.20988C2.71523 27.3506 2.31051 26.9459 2.31051 26.4512V21.9543C2.31051 21.4597 2.71523 21.0549 3.20988 21.0549H16.7005C17.1952 21.0549 17.5999 21.4597 17.5999 21.9543ZM17.5999 17.4574C17.5999 17.9521 17.1952 18.3568 16.7005 18.3568H3.20988C2.71523 18.3568 2.31051 17.9521 2.31051 17.4574V12.9606C2.31051 12.4659 2.71523 12.0612 3.20988 12.0612H16.7005C17.1952 12.0612 17.5999 12.4659 17.5999 12.9606V17.4574ZM5.00863 10.2624C5.25596 10.2624 5.45832 10.0601 5.45832 9.81275V5.89148C5.45832 5.5767 5.71464 5.31588 6.03392 5.31588H20.7477C20.995 5.31588 21.1974 5.11352 21.1974 4.86619C21.1974 4.61886 20.995 4.4165 20.7477 4.4165H6.03392C5.21999 4.4165 4.55895 5.07754 4.55895 5.89148V9.81275C4.55895 10.0601 4.76131 10.2624 5.00863 10.2624ZM24.7949 8.46369C24.5476 8.46369 24.3452 8.66605 24.3452 8.91338V23.6272C24.3452 23.9419 24.0889 24.2028 23.7696 24.2028H19.8483C19.601 24.2028 19.3986 24.4051 19.3986 24.6524C19.3986 24.8998 19.601 25.1021 19.8483 25.1021H23.7696C24.5835 25.1021 25.2446 24.4411 25.2446 23.6272V8.91338C25.2446 8.66605 25.0422 8.46369 24.7949 8.46369Z" fill="white"/>
<path d="M15.8011 14.3096C15.5538 14.3096 15.3514 14.5119 15.3514 14.7593V15.6586C15.3514 15.906 15.5538 16.1083 15.8011 16.1083C16.0484 16.1083 16.2508 15.906 16.2508 15.6586V14.7593C16.2508 14.5119 16.0484 14.3096 15.8011 14.3096ZM14.0023 14.3096C13.755 14.3096 13.5527 14.5119 13.5527 14.7593V15.6586C13.5527 15.906 13.755 16.1083 14.0023 16.1083C14.2497 16.1083 14.452 15.906 14.452 15.6586V14.7593C14.452 14.5119 14.2497 14.3096 14.0023 14.3096ZM12.2036 14.3096C11.9563 14.3096 11.7539 14.5119 11.7539 14.7593V15.6586C11.7539 15.906 11.9563 16.1083 12.2036 16.1083C12.4509 16.1083 12.6533 15.906 12.6533 15.6586V14.7593C12.6533 14.5119 12.4509 14.3096 12.2036 14.3096Z" fill="white"/>
<path d="M4.55855 16.1083C5.05527 16.1083 5.45793 15.7057 5.45793 15.2089C5.45793 14.7122 5.05527 14.3096 4.55855 14.3096C4.06184 14.3096 3.65918 14.7122 3.65918 15.2089C3.65918 15.7057 4.06184 16.1083 4.55855 16.1083Z" fill="white"/>
<path d="M7.2568 16.1083C7.75351 16.1083 8.15617 15.7057 8.15617 15.2089C8.15617 14.7122 7.75351 14.3096 7.2568 14.3096C6.76009 14.3096 6.35742 14.7122 6.35742 15.2089C6.35742 15.7057 6.76009 16.1083 7.2568 16.1083Z" fill="white"/>
<path d="M15.8011 23.3032C15.5538 23.3032 15.3514 23.5056 15.3514 23.7529V24.6523C15.3514 24.8996 15.5538 25.102 15.8011 25.102C16.0484 25.102 16.2508 24.8996 16.2508 24.6523V23.7529C16.2508 23.5056 16.0484 23.3032 15.8011 23.3032ZM14.0023 23.3032C13.755 23.3032 13.5527 23.5056 13.5527 23.7529V24.6523C13.5527 24.8996 13.755 25.102 14.0023 25.102C14.2497 25.102 14.452 24.8996 14.452 24.6523V23.7529C14.452 23.5056 14.2497 23.3032 14.0023 23.3032ZM12.2036 23.3032C11.9563 23.3032 11.7539 23.5056 11.7539 23.7529V24.6523C11.7539 24.8996 11.9563 25.102 12.2036 25.102C12.4509 25.102 12.6533 24.8996 12.6533 24.6523V23.7529C12.6533 23.5056 12.4509 23.3032 12.2036 23.3032Z" fill="white"/>
<path d="M4.55855 25.102C5.05527 25.102 5.45793 24.6993 5.45793 24.2026C5.45793 23.7059 5.05527 23.3032 4.55855 23.3032C4.06184 23.3032 3.65918 23.7059 3.65918 24.2026C3.65918 24.6993 4.06184 25.102 4.55855 25.102Z" fill="white"/>
<path d="M7.2568 25.102C7.75351 25.102 8.15617 24.6993 8.15617 24.2026C8.15617 23.7059 7.75351 23.3032 7.2568 23.3032C6.76009 23.3032 6.35742 23.7059 6.35742 24.2026C6.35742 24.6993 6.76009 25.102 7.2568 25.102Z" fill="white"/>
<path d="M27.9425 1.26855H23.4456C23.2657 1.26855 23.0994 1.37648 23.0319 1.54736C22.9644 1.71375 23.0004 1.90711 23.1308 2.03752L24.3989 3.30564L18.1843 9.52032C18.0089 9.6957 18.0089 9.979 18.1843 10.1544L19.5108 11.481C19.6008 11.5709 19.7132 11.6114 19.8301 11.6114C19.947 11.6114 20.0595 11.5664 20.1494 11.481L26.3641 5.26628L27.6322 6.5344C27.7626 6.6648 27.9515 6.70078 28.1224 6.63333C28.2887 6.56587 28.4012 6.39949 28.4012 6.21961V1.71824C28.4012 1.47091 28.1988 1.26855 27.9515 1.26855H27.9425ZM27.4928 5.13137L26.6744 4.31294C26.499 4.13756 26.2157 4.13756 26.0403 4.31294L19.8256 10.5276L19.1376 9.8396L25.3523 3.62492C25.5277 3.44954 25.5277 3.16624 25.3523 2.99086L24.5339 2.17243H27.4973V5.13587L27.4928 5.13137Z" fill="white"/>
</svg>
