<svg width="30" height="30" viewBox="0 0 30 30" fill="none" xmlns="http://www.w3.org/2000/svg">
<path d="M15.4696 28.0252C16.4196 27.4209 17.3723 26.8194 18.3223 26.2152C18.7523 25.9425 19.1879 25.6727 19.6067 25.3804C20.6016 24.6862 21.5347 23.8965 22.3639 23.0083C24.0052 21.2461 25.2531 19.1579 26.0429 16.8842C26.6865 15.0264 26.9619 13.0674 26.9619 11.1057V7.36483C26.9619 6.86174 26.6106 6.4233 26.1356 6.27996C25.7927 6.17597 25.4526 6.06917 25.1238 5.93145C25.2138 5.96799 25.3037 6.00733 25.3936 6.04387C24.8062 5.79373 24.2554 5.47333 23.7495 5.08547L23.9771 5.26254C23.4768 4.87468 23.0271 4.42781 22.6393 3.92753L22.8164 4.15518C22.4285 3.64928 22.1053 3.09561 21.8551 2.5082C21.8917 2.59814 21.931 2.68808 21.9676 2.77802C21.8833 2.57566 21.8046 2.36768 21.7371 2.15969C21.5853 1.68471 21.1609 1.33339 20.6522 1.33339H10.5652C10.1014 1.33339 9.63489 1.31934 9.17115 1.33339H9.15147C8.63996 1.33339 8.21837 1.68471 8.0666 2.15969C7.99915 2.37049 7.92327 2.57566 7.83614 2.77802C7.87268 2.68808 7.91202 2.59814 7.94856 2.5082C7.69842 3.09561 7.37521 3.64647 6.98735 4.15518L7.16442 3.92753C6.77656 4.42781 6.32688 4.87468 5.8266 5.26254L6.05425 5.08547C5.54835 5.47333 4.99468 5.79373 4.41008 6.04387C4.50002 6.00733 4.58996 5.96799 4.67989 5.93145C4.34825 6.06917 4.01098 6.17597 3.6681 6.27996C3.19312 6.4233 2.8418 6.86174 2.8418 7.36483V10.7543C2.8418 11.3502 2.8418 11.946 2.88396 12.5419C2.97389 13.7532 3.17906 14.9617 3.51914 16.1281C4.19367 18.444 5.36286 20.5772 6.91428 22.4181C8.12 23.8487 9.57306 25.0066 11.147 26.0044L14.2582 27.9774C14.2835 27.9942 14.3116 28.0111 14.3369 28.028C14.8344 28.3428 15.5989 28.1488 15.8743 27.6233C16.1666 27.0668 16.0008 26.4231 15.4696 26.0859C14.9637 25.7655 14.4578 25.4451 13.9547 25.1247C13.3083 24.7143 12.6647 24.3068 12.0182 23.8965C11.5657 23.6098 11.1245 23.3034 10.6973 22.9774L10.9249 23.1545C9.86254 22.331 8.90696 21.3754 8.08347 20.313L8.26053 20.5407C7.42299 19.453 6.72597 18.2613 6.18916 16.9966C6.2257 17.0865 6.26504 17.1764 6.30158 17.2664C5.75352 15.9651 5.37972 14.5992 5.19141 13.1995C5.20547 13.2979 5.21952 13.3991 5.23076 13.4974C5.10991 12.5868 5.09023 11.6762 5.09023 10.7628V7.37607C4.8148 7.73863 4.53937 8.09838 4.26393 8.46094C5.23357 8.16864 6.17229 7.78079 6.99579 7.18776C7.97105 6.48513 8.80297 5.61948 9.42129 4.5852C9.76136 4.01747 10.034 3.39915 10.2363 2.76958C9.87379 3.04502 9.51404 3.32045 9.15147 3.59588H19.2385C19.7023 3.59588 20.1688 3.60713 20.6326 3.59588H20.6522C20.2897 3.32045 19.9299 3.04502 19.5674 2.76958C20.2728 4.97024 21.8748 6.88422 23.9771 7.87354C24.483 8.11243 25.003 8.29793 25.5398 8.46094C25.2643 8.09838 24.9889 7.73863 24.7135 7.37607V11.3614C24.7135 12.0753 24.6657 12.7892 24.5729 13.4974C24.587 13.3991 24.6011 13.2979 24.6123 13.1995C24.4212 14.5964 24.0474 15.9651 23.5021 17.2664C23.5387 17.1764 23.578 17.0865 23.6145 16.9966C23.0777 18.2613 22.3807 19.453 21.5432 20.5407L21.7202 20.313C20.8967 21.3754 19.9412 22.331 18.8788 23.1545L19.1064 22.9774C18.4769 23.4636 17.808 23.8824 17.139 24.3096C16.3971 24.7818 15.6551 25.2511 14.9131 25.7233C14.722 25.8442 14.5281 25.9678 14.3369 26.0887C14.0924 26.2433 13.8985 26.4765 13.8198 26.7604C13.7467 27.0302 13.7804 27.3872 13.9322 27.6261C14.2526 28.1207 14.9384 28.3624 15.4696 28.0252Z" fill="white"/>
<path d="M9.1741 14.6999L12.0605 17.5864L12.4709 17.9967C12.9009 18.4267 13.6316 18.4267 14.0616 17.9967L16.2904 15.7679L19.8176 12.2407L20.6299 11.4284C21.0458 11.0125 21.0768 10.248 20.6299 9.83767C20.1802 9.42452 19.4832 9.39361 19.0391 9.83767L16.8104 12.0664L13.2831 15.5937L12.4709 16.4059H14.0616L11.1752 13.5195L10.7649 13.1092C10.3489 12.6932 9.58444 12.6623 9.1741 13.1092C8.76095 13.5588 8.73003 14.253 9.1741 14.6999Z" fill="white"/>
</svg>
