<svg width="25" height="25" viewBox="0 0 25 25" fill="none" xmlns="http://www.w3.org/2000/svg">
<g clip-path="url(#clip0_3635_70977)">
<path fill-rule="evenodd" clip-rule="evenodd" d="M10.4126 5.90408C11.2878 5.68873 12.1812 5.65666 13.0426 5.78953L13.4229 4.74486C13.5192 4.47452 13.817 4.33707 14.0873 4.43329L15.5215 4.96021C15.7918 5.05643 15.9292 5.35425 15.833 5.62L15.4527 6.66926C16.1996 7.11828 16.8594 7.71393 17.3909 8.44703L18.3989 7.9751C18.6601 7.85597 18.967 7.96593 19.0908 8.2271L19.7368 9.61084C19.8559 9.872 19.7414 10.179 19.4848 10.2981L18.4768 10.7701C18.6921 11.6452 18.7242 12.5387 18.5913 13.4001L19.636 13.7804C19.9063 13.8766 20.0438 14.1744 19.9476 14.4447L19.4252 15.8789C19.3244 16.1492 19.0266 16.2867 18.7609 16.1904L17.7116 15.8101C17.2626 16.557 16.6669 17.2168 15.9338 17.7483L16.4058 18.7563C16.5249 19.0175 16.4149 19.3245 16.1538 19.4482L14.77 20.0942C14.5089 20.2134 14.2019 20.0988 14.0827 19.8422L13.6108 18.8342C12.7357 19.0496 11.8422 19.0816 10.9808 18.9488L10.6005 19.9934C10.5043 20.2638 10.2065 20.4012 9.93612 20.305L8.50198 19.7827C8.23165 19.6819 8.09419 19.384 8.19041 19.1183L8.57071 18.069C7.82844 17.62 7.16407 17.0244 6.63257 16.2912L5.62455 16.7632C5.36338 16.8823 5.05639 16.7723 4.93268 16.5112L4.28663 15.1274C4.1675 14.8663 4.28205 14.5593 4.53864 14.4402L5.54666 13.9682C5.33131 13.0931 5.29923 12.1996 5.43211 11.3382L4.38743 10.9579C4.1171 10.8617 3.97965 10.5639 4.07587 10.2935L4.60278 8.8594C4.699 8.58907 4.99683 8.45162 5.26258 8.54784L6.31183 8.92813C6.76086 8.18586 7.35651 7.52149 8.08961 6.98999L7.61768 5.98197C7.49855 5.7208 7.60851 5.41381 7.86968 5.2901L9.25341 4.64405C9.51458 4.52493 9.82157 4.63947 9.9407 4.89606L10.4126 5.90408ZM12.0117 1.44131H12.0255V0.369141L14.6555 2.17899L12.0255 3.98426V2.93959L12.0117 2.93501C9.4092 2.93501 7.04952 3.99342 5.34047 5.69789C4.2958 6.74715 3.49396 8.03924 3.02661 9.48713L1.76201 8.57533C2.31642 7.08621 3.18239 5.74829 4.28663 4.64405C6.26143 2.66467 8.99683 1.44131 12.0117 1.44131ZM24.0117 12.3829L22.2065 15.0129L20.3966 12.3829H21.4459V12.3691C21.4459 9.76662 20.3874 7.40694 18.683 5.69789C17.6337 4.65322 16.3416 3.85139 14.8937 3.38403L15.8055 2.11943C17.2992 2.67384 18.6371 3.53982 19.7368 4.64405C21.7162 6.61885 22.9396 9.35425 22.9396 12.3691V12.3829H24.0117ZM11.998 24.3691L9.36796 22.5639L11.998 20.754V21.8033H12.0117C14.6188 21.8033 16.9739 20.7449 18.683 19.0404C19.7276 17.9911 20.5295 16.699 20.9968 15.2512L22.2614 16.163C21.707 17.6567 20.841 18.9946 19.7368 20.0942C17.762 22.0736 15.0312 23.297 12.0117 23.297H11.998V24.3691ZM0.0117188 12.3554L1.82157 9.72538L3.62684 12.3554H2.58217L2.57758 12.3691C2.57758 14.9762 3.636 17.3313 5.34047 19.0404C6.38973 20.0851 7.68182 20.8869 9.1297 21.3542L8.21791 22.6189C6.72879 22.0644 5.39087 21.1985 4.28663 20.0942C2.30725 18.1194 1.08388 15.3886 1.08388 12.3691V12.3554H0.0117188ZM13.0656 13.3542V13.9728C13.0656 14.0874 13.0197 14.1836 12.9281 14.2523L11.9247 15.0266L10.9212 14.2523C10.8342 14.1836 10.7838 14.0874 10.7838 13.9728V13.3359L10.7059 13.2534C10.5593 13.1022 10.4814 12.9281 10.4676 12.7174L10.4447 12.36H10.4401C10.3668 12.3371 10.3073 12.3096 10.266 12.2729C10.2202 12.2408 10.1881 12.1904 10.156 12.0942C10.124 12.0026 10.0827 11.856 10.0552 11.7323C10.0278 11.604 10.014 11.4894 10.0048 11.3932C10.0003 11.2924 10.0003 11.2099 10.0232 11.1458C10.0461 11.0816 10.1102 11.0266 10.1515 11.0129C10.1927 11.0037 10.2156 11.0083 10.2385 11.0037C10.2569 10.9992 10.2248 10.99 10.2248 10.9808V10.9671C10.2202 10.9625 10.2156 10.9579 10.211 10.9488C10.0507 10.738 9.92695 10.321 9.89488 9.9499C9.86281 9.57876 9.91779 9.25345 9.97277 8.92355C10.0736 8.9877 10.1744 9.05184 10.3577 8.95104C10.5409 8.85482 10.8113 8.59365 11.1182 8.41038C11.4252 8.23168 11.7689 8.13088 12.1217 8.14921C12.4791 8.16296 12.8456 8.30041 13.0518 8.47452C13.258 8.65322 13.3084 8.87315 13.3588 9.09308C13.5237 9.0885 13.6841 9.08392 13.7987 9.27636C13.9178 9.46422 13.9865 9.84451 13.959 10.179C13.9315 10.5181 13.8078 10.8021 13.6795 10.9533C13.6704 10.9671 13.6566 10.9808 13.6475 10.99L13.6429 11.0037C13.6749 11.0037 13.707 11.0083 13.7345 11.0221C13.7987 11.045 13.8536 11.0862 13.8811 11.1641C13.9086 11.242 13.904 11.352 13.8949 11.4665C13.8857 11.5811 13.8674 11.691 13.8399 11.8056C13.8124 11.9201 13.7758 12.0347 13.7437 12.1126C13.707 12.195 13.6795 12.2454 13.6337 12.2821C13.5879 12.3142 13.5283 12.3417 13.4596 12.3646C13.4459 12.3646 13.4321 12.3691 13.4184 12.3737L13.3955 12.7174C13.3817 12.9281 13.3038 13.1022 13.1618 13.2534L13.0656 13.3542ZM15.6039 15.0908C14.8754 16.0484 13.7712 16.7082 12.5111 16.8502C12.502 16.754 12.4882 16.6715 12.4791 16.5982C12.4103 16.14 12.3508 16.0988 12.3874 15.9751C12.4241 15.8514 12.5524 15.6498 12.6807 15.4436C12.7861 15.5352 12.8869 15.6223 12.9785 15.7552C13.0701 15.888 13.1572 16.0622 13.2397 16.2363C13.258 15.943 13.2763 15.6452 13.3267 15.2878C13.3771 14.935 13.4642 14.5226 13.5467 14.1103C13.7483 14.289 13.9544 14.4722 14.2981 14.6463C14.5684 14.7838 15.1824 14.9213 15.6039 15.0908ZM11.5123 16.8502C10.2523 16.7082 9.14803 16.0484 8.41951 15.0908C8.84562 14.9213 9.45502 14.7838 9.72535 14.6463C10.069 14.4722 10.2752 14.289 10.4768 14.1103C10.5638 14.5226 10.6463 14.935 10.6967 15.2878C10.7471 15.6452 10.7654 15.943 10.7838 16.2363C10.8662 16.0622 10.9533 15.888 11.0449 15.7552C11.1366 15.6223 11.2374 15.5352 11.3428 15.4436C11.4711 15.6498 11.5993 15.8514 11.636 15.9751C11.6727 16.0988 11.6131 16.14 11.5444 16.5982C11.5352 16.6715 11.5215 16.754 11.5123 16.8502ZM9.95445 7.95677C12.392 6.82504 15.2878 7.87888 16.4241 10.3119C17.5604 12.7494 16.5066 15.6452 14.069 16.7815C11.6314 17.9178 8.73566 16.864 7.59935 14.4264C6.46762 11.9888 7.52146 9.09308 9.95445 7.95677Z" fill="white"/>
</g>
<defs>
<clipPath id="clip0_3635_70977">
<rect width="24" height="24" fill="white" transform="translate(0.0117188 0.369141)"/>
</clipPath>
</defs>
</svg>
