<svg width="25" height="25" viewBox="0 0 25 25" fill="none" xmlns="http://www.w3.org/2000/svg">
<g clip-path="url(#clip0_3635_70984)">
<path d="M12.0117 23.6191C14.2368 23.6191 16.4118 22.9593 18.2619 21.7232C20.1119 20.487 21.5539 18.73 22.4054 16.6743C23.2568 14.6187 23.4796 12.3567 23.0456 10.1744C22.6115 7.99209 21.54 5.98753 19.9667 4.41419C18.3933 2.84085 16.3888 1.76939 14.2065 1.33531C12.0242 0.901228 9.7622 1.12402 7.70653 1.9755C5.65086 2.82699 3.89385 4.26893 2.65769 6.11898C1.42152 7.96903 0.761719 10.1441 0.761719 12.3691C0.761719 15.3528 1.94698 18.2143 4.05677 20.3241C6.16655 22.4339 9.02803 23.6191 12.0117 23.6191ZM12.0117 5.33415C12.3084 5.33415 12.5984 5.42212 12.8451 5.58694C13.0917 5.75176 13.284 5.98603 13.3975 6.26012C13.5111 6.53421 13.5408 6.83581 13.4829 7.12678C13.425 7.41775 13.2822 7.68503 13.0724 7.89481C12.8626 8.10458 12.5953 8.24745 12.3044 8.30532C12.0134 8.3632 11.7118 8.3335 11.4377 8.21996C11.1636 8.10643 10.9293 7.91417 10.7645 7.6675C10.5997 7.42083 10.5117 7.13082 10.5117 6.83415C10.5117 6.43632 10.6698 6.05479 10.9511 5.77349C11.2324 5.49218 11.6139 5.33415 12.0117 5.33415ZM10.5117 12.3691C10.5117 11.9713 10.6698 11.5898 10.9511 11.3085C11.2324 11.0272 11.6139 10.8691 12.0117 10.8691C12.4095 10.8691 12.7911 11.0272 13.0724 11.3085C13.3537 11.5898 13.5117 11.9713 13.5117 12.3691V18.3691C13.5117 18.767 13.3537 19.1485 13.0724 19.4298C12.7911 19.7111 12.4095 19.8691 12.0117 19.8691C11.6139 19.8691 11.2324 19.7111 10.9511 19.4298C10.6698 19.1485 10.5117 18.767 10.5117 18.3691V12.3691Z" fill="white"/>
</g>
<defs>
<clipPath id="clip0_3635_70984">
<rect width="24" height="24" fill="white" transform="translate(0.0117188 0.369141)"/>
</clipPath>
</defs>
</svg>
