<svg width="25" height="25" viewBox="0 0 25 25" fill="none" xmlns="http://www.w3.org/2000/svg">
<g clip-path="url(#clip0_3635_70969)">
<path d="M22.9801 15.3671L17.0248 20.6704C16.6148 21.1087 16.035 21.3602 15.435 21.3602H4.96172V16.1531H6.18227C6.80859 16.1531 7.43347 16.3058 7.98984 16.5947C8.6241 16.9244 9.33768 17.0986 10.0531 17.0986H15.4675C15.9979 17.0986 16.4295 17.53 16.4295 18.0604C16.4295 18.07 16.4295 18.0793 16.4291 18.0889C16.4201 18.1217 16.4172 18.156 16.4209 18.1899C16.3574 18.6592 15.9539 19.0223 15.4675 19.0223H10.476C10.3231 19.0223 10.1991 19.1463 10.1991 19.2992C10.1991 19.4521 10.3231 19.5761 10.476 19.5761H15.4675C16.2211 19.5761 16.8478 19.0237 16.9639 18.3025L21.9391 14.3488C22.2139 14.0737 22.6931 14.0737 22.9686 14.3488C23.2523 14.6326 23.2523 15.0943 22.9801 15.3671ZM0.84375 15.2163V22.3277H4.40679V21.6446C4.40679 21.6409 4.40679 21.6409 4.40679 21.6372V15.8772C4.40679 15.8735 4.40679 15.8699 4.40679 15.8699V15.2163H0.84375ZM3.24375 21.7H3.20309C3.05174 21.7 2.92617 21.5745 2.92617 21.4231C2.92617 21.268 3.05174 21.1462 3.20309 21.1462H3.24375C3.3951 21.1462 3.52067 21.268 3.52067 21.4231C3.52067 21.5745 3.3951 21.7 3.24375 21.7ZM18.4265 7.18555V10.9259C18.4265 11.0403 18.3563 11.1437 18.2456 11.1843L13.1207 13.06C13.0874 13.0711 13.0579 13.0785 13.0247 13.0785C12.9914 13.0785 12.9619 13.0711 12.9287 13.06L7.81478 11.1954C7.70404 11.1548 7.63386 11.0514 7.63386 10.9369V7.18555L12.7551 9.05755C12.8401 9.08707 12.9287 9.10186 13.0247 9.10186C13.1281 9.10186 13.2241 9.08707 13.3127 9.05385L18.4265 7.18555Z" fill="white"/>
<path d="M20.9609 5.47292C20.9609 5.59108 20.8907 5.69445 20.7799 5.73509L13.1184 8.53384C13.0888 8.54493 13.0556 8.54862 13.0224 8.54862C12.9891 8.54862 12.9596 8.54493 12.9264 8.53384L5.63778 5.8717V10.9634L7.20701 13.2489C7.29193 13.3745 7.25867 13.548 7.13314 13.6329C7.01416 13.7153 6.84126 13.6918 6.74917 13.5628L5.63778 11.9456V13.404C5.63778 13.5591 5.51221 13.6809 5.36086 13.6809C5.20577 13.6809 5.08394 13.5591 5.08394 13.404V11.9419L3.96885 13.5628C3.88709 13.6854 3.70924 13.7191 3.58484 13.6329C3.45931 13.548 3.42609 13.3745 3.5147 13.2489L5.08394 10.9634V5.48032C5.08394 5.35385 5.17062 5.24873 5.26486 5.21446L12.9264 2.42677C12.9891 2.40462 13.0556 2.40462 13.1184 2.42677L20.7799 5.21446C20.8907 5.25509 20.9609 5.35846 20.9609 5.47292Z" fill="white"/>
</g>
<defs>
<clipPath id="clip0_3635_70969">
<rect width="24" height="24" fill="white" transform="translate(0.0117188 0.369141)"/>
</clipPath>
</defs>
</svg>
