<svg width="25" height="25" viewBox="0 0 25 25" fill="none" xmlns="http://www.w3.org/2000/svg">
<g clip-path="url(#clip0_1852_64186)">
<path d="M19.9314 1.45117H4.26958C2.46591 1.45117 0.996855 2.92026 0.996855 4.7239V18.0112C0.996855 18.2148 1.16049 18.3748 1.36049 18.3748H22.8405C23.0404 18.3748 23.2041 18.2148 23.2041 18.0112V4.7239C23.2041 2.92026 21.735 1.45117 19.9314 1.45117ZM21.3859 16.5566H2.81504V4.7239C2.81504 3.9239 3.46955 3.26935 4.26958 3.26935H19.9314C20.735 3.26935 21.3859 3.9239 21.3859 4.7239V16.5566ZM23.2841 19.3966H14.8441V19.9384C14.8441 20.3457 14.5132 20.6766 14.1059 20.6766H9.92045C9.51318 20.6766 9.18231 20.3457 9.18231 19.9384V19.3966H0.738636C0.538673 19.3966 0.375 19.5603 0.375 19.7603C0.375 21.7057 1.96045 23.2875 3.90231 23.2875H20.1241C22.0659 23.2875 23.6478 21.7057 23.6478 19.7603C23.6477 19.5603 23.4877 19.3966 23.2841 19.3966Z" fill="white"/>
<path d="M14.5535 10.3662C14.2787 10.3662 14.0553 10.5896 14.0553 10.8644C14.0553 11.141 14.2787 11.3662 14.5535 11.3662C14.8302 11.3662 15.0553 11.1411 15.0553 10.8644C15.0553 10.5896 14.8302 10.3662 14.5535 10.3662ZM9.64446 10.3662C9.36959 10.3662 9.14624 10.5896 9.14624 10.8644C9.14624 11.141 9.36962 11.3662 9.64446 11.3662C9.92108 11.3662 10.1462 11.1411 10.1462 10.8644C10.1462 10.5896 9.92111 10.3662 9.64446 10.3662Z" fill="white"/>
<path d="M19.0624 10.2002H18.8733V10.142C18.8733 8.33841 17.4042 6.86932 15.6005 6.86932H12.4805V6.45478C13.0079 6.29841 13.3896 5.81114 13.3896 5.23659C13.3896 4.53478 12.8188 3.96387 12.1133 3.96387C11.4151 3.96387 10.8442 4.53478 10.8442 5.23659C10.8442 5.81114 11.2296 6.29841 11.7533 6.45478V6.86932H8.60055C6.79691 6.86932 5.32782 8.33841 5.32782 10.142V10.2002H5.13873C4.38237 10.2002 3.76782 10.8148 3.76782 11.5711C3.76782 12.3275 4.3824 12.942 5.13873 12.942H5.69146C5.88782 12.942 6.04782 12.7857 6.0551 12.593V10.142C6.0551 8.73841 7.19691 7.59659 8.60055 7.59659H11.7533V8.32387H8.60055C7.59691 8.32387 6.78237 9.14205 6.78237 10.142V14.7748C6.78237 14.9784 6.946 15.1384 7.146 15.1384H17.0551C17.2551 15.1384 17.4187 14.9784 17.4187 14.7748V10.142C17.4187 9.14205 16.6042 8.32387 15.6005 8.32387H12.4805V7.59659H15.6005C17.0042 7.59659 18.146 8.73841 18.146 10.142V12.593C18.1533 12.7857 18.3133 12.942 18.5096 12.942H19.0624C19.8188 12.942 20.4333 12.3275 20.4333 11.5711C20.4333 10.8148 19.8188 10.2002 19.0624 10.2002ZM9.64448 12.0935C8.9687 12.0935 8.41899 11.542 8.41899 10.8644C8.41899 10.1887 8.9687 9.63896 9.64448 9.63896C10.322 9.63896 10.8735 10.1887 10.8735 10.8644C10.8735 11.542 10.322 12.0935 9.64448 12.0935ZM14.5536 9.63896C15.2311 9.63896 15.7826 10.1887 15.7826 10.8644C15.7826 11.542 15.2311 12.0935 14.5536 12.0935C13.8778 12.0935 13.3281 11.542 13.3281 10.8644C13.3281 10.1887 13.8778 9.63896 14.5536 9.63896ZM12.8132 13.825H11.419V13.0978H12.8132V13.825Z" fill="white"/>
</g>
<defs>
<clipPath id="clip0_1852_64186">
<rect width="24" height="24" fill="white" transform="translate(0.0114746 0.369141)"/>
</clipPath>
</defs>
</svg>
