<svg width="25" height="25" viewBox="0 0 25 25" fill="none" xmlns="http://www.w3.org/2000/svg">
<path d="M5.31617 10.8659H13.049C14.3466 10.8659 15.401 9.81148 15.401 8.48668C15.4 7.93128 15.2006 7.39451 14.8387 6.9732C14.4768 6.55189 13.9763 6.27379 13.4274 6.18908C13.1842 4.29628 11.5618 2.80908 9.58817 2.80908C7.99297 2.80908 6.61377 3.78268 5.99217 5.16108C5.56706 5.05967 5.1245 5.05579 4.69768 5.14973C4.27085 5.24367 3.87083 5.43299 3.52758 5.70351C3.18432 5.97404 2.90675 6.31874 2.71566 6.71179C2.52457 7.10484 2.42491 7.53604 2.42417 7.97308C2.42501 8.7399 2.72995 9.47508 3.2721 10.0174C3.81425 10.5597 4.54935 10.8648 5.31617 10.8659ZM19.6258 17.2515C19.3826 15.3587 17.7602 13.8723 15.7866 13.8723C14.1914 13.8723 12.8122 14.8451 12.1906 16.2243C11.7654 16.1227 11.3228 16.1187 10.8958 16.2126C10.4689 16.3065 10.0688 16.4958 9.72542 16.7663C9.38208 17.0369 9.10442 17.3816 8.91329 17.7747C8.72215 18.1679 8.62249 18.5992 8.62177 19.0363C8.62261 19.8032 8.92766 20.5385 9.46998 21.0809C10.0123 21.6232 10.7476 21.9282 11.5146 21.9291H19.2474C20.545 21.9291 21.5994 20.8747 21.5994 19.5499C21.5985 18.9944 21.3991 18.4575 21.0372 18.0361C20.6753 17.6146 20.1747 17.3364 19.6258 17.2515ZM17.4258 5.69708C18.081 5.69708 18.6138 6.22988 18.6138 6.88588V8.77788L18.3618 8.52588C18.2874 8.45161 18.1992 8.3927 18.1021 8.35252C18.005 8.31234 17.901 8.29168 17.7959 8.29172C17.6908 8.29176 17.5868 8.31249 17.4897 8.35274C17.3926 8.39298 17.3044 8.45195 17.2302 8.52628C17.1559 8.60061 17.097 8.68884 17.0568 8.78593C17.0166 8.88303 16.996 8.98709 16.996 9.09216C16.996 9.19724 17.0168 9.30129 17.057 9.39835C17.0973 9.49542 17.1562 9.58361 17.2306 9.65788L18.8466 11.2739C18.9206 11.3485 19.0086 11.4078 19.1056 11.4483C19.2026 11.4888 19.3067 11.5098 19.4118 11.5099C19.517 11.5101 19.6211 11.4894 19.7182 11.4492C19.8153 11.409 19.9035 11.3499 19.9778 11.2755L21.5938 9.66428C21.6682 9.59011 21.7273 9.50201 21.7677 9.405C21.8081 9.30799 21.8289 9.20397 21.8291 9.0989C21.8293 8.99382 21.8088 8.88973 21.7688 8.79258C21.7287 8.69543 21.6699 8.60712 21.5958 8.53268C21.5216 8.45825 21.4335 8.39915 21.3365 8.35877C21.2395 8.31839 21.1355 8.29751 21.0304 8.29732C20.9253 8.29713 20.8212 8.31765 20.7241 8.35769C20.6269 8.39773 20.5386 8.45651 20.4642 8.53068L20.2138 8.78028V6.88588C20.2129 6.14664 19.9189 5.43792 19.3963 4.91512C18.8736 4.39233 18.165 4.09814 17.4258 4.09708C17.2136 4.09708 17.0101 4.18137 16.8601 4.3314C16.7101 4.48143 16.6258 4.68491 16.6258 4.89708C16.6258 5.10926 16.7101 5.31274 16.8601 5.46277C17.0101 5.6128 17.2136 5.69708 17.4258 5.69708ZM6.59777 18.5531C5.94177 18.5531 5.40897 18.0195 5.40897 17.3643V15.4715L5.66097 15.7235C5.73476 15.7999 5.82304 15.8608 5.92064 15.9028C6.01825 15.9447 6.12322 15.9668 6.22945 15.9677C6.33567 15.9686 6.44101 15.9484 6.53933 15.9081C6.63765 15.8679 6.72697 15.8085 6.80208 15.7334C6.8772 15.6583 6.9366 15.569 6.97682 15.4706C7.01705 15.3723 7.03729 15.267 7.03637 15.1608C7.03544 15.0545 7.01338 14.9496 6.97145 14.852C6.92952 14.7544 6.86857 14.6661 6.79217 14.5923L5.17617 12.9763C5.02636 12.8261 4.82303 12.7416 4.6109 12.7413C4.39877 12.741 4.1952 12.8249 4.04497 12.9747L2.42897 14.5859C2.27864 14.7357 2.19398 14.9391 2.1936 15.1513C2.19323 15.3635 2.27717 15.5672 2.42697 15.7175C2.57676 15.8678 2.78014 15.9525 2.99235 15.9528C3.20457 15.9532 3.40824 15.8693 3.55857 15.7195L3.80897 15.4691V17.3643C3.81003 18.1035 4.10421 18.8122 4.62701 19.3348C5.1498 19.8575 5.85853 20.1514 6.59777 20.1523C6.80994 20.1523 7.01342 20.068 7.16345 19.918C7.31348 19.7679 7.39777 19.5645 7.39777 19.3523C7.39777 19.1401 7.31348 18.9366 7.16345 18.7866C7.01342 18.6366 6.80994 18.5531 6.59777 18.5531Z" fill="white"/>
</svg>
