<svg width="25" height="25" viewBox="0 0 25 25" fill="none" xmlns="http://www.w3.org/2000/svg">
<path d="M21.3865 15.7441H2.63647C2.23865 15.7441 1.85712 15.9022 1.57581 16.1835C1.29451 16.4648 1.13647 16.8463 1.13647 17.2441V17.6191C1.13647 18.017 1.29451 18.3985 1.57581 18.6798C1.85712 18.9611 2.23865 19.1191 2.63647 19.1191V22.1191C2.63647 22.517 2.79451 22.8985 3.07581 23.1798C3.35712 23.4611 3.73865 23.6191 4.13647 23.6191H19.8865C20.2843 23.6191 20.6658 23.4611 20.9471 23.1798C21.2284 22.8985 21.3865 22.517 21.3865 22.1191V19.1191C21.7843 19.1191 22.1658 18.9611 22.4471 18.6798C22.7284 18.3985 22.8865 18.017 22.8865 17.6191V17.2441C22.8865 16.8463 22.7284 16.4648 22.4471 16.1835C22.1658 15.9022 21.7843 15.7441 21.3865 15.7441Z" fill="white"/>
<path d="M12.0115 13.8691C12.4257 13.8691 12.7615 13.5334 12.7615 13.1191C12.7615 12.7049 12.4257 12.3691 12.0115 12.3691C11.5973 12.3691 11.2615 12.7049 11.2615 13.1191C11.2615 13.5334 11.5973 13.8691 12.0115 13.8691Z" fill="white"/>
<path d="M7.51147 14.2444H8.58397C8.67934 14.2444 8.77346 14.2227 8.85916 14.1809C8.94486 14.139 9.01987 14.0782 9.07847 14.0029C9.13707 13.9277 9.17771 13.8401 9.19729 13.7467C9.21688 13.6534 9.21489 13.5568 9.19147 13.4644L8.90272 12.3169C8.8708 12.1897 8.86829 12.0569 8.89539 11.9286C8.92248 11.8003 8.97847 11.6799 9.05909 11.5765C9.13972 11.4731 9.24285 11.3895 9.36066 11.3319C9.47847 11.2744 9.60786 11.2444 9.73897 11.2444H14.284C14.4151 11.2444 14.5445 11.2744 14.6623 11.3319C14.7801 11.3895 14.8832 11.4731 14.9639 11.5765C15.0445 11.6799 15.1005 11.8003 15.1276 11.9286C15.1547 12.0569 15.1521 12.1897 15.1202 12.3169L14.8315 13.4644C14.8081 13.5568 14.8061 13.6534 14.8257 13.7467C14.8452 13.8401 14.8859 13.9277 14.9445 14.0029C15.0031 14.0782 15.0781 14.139 15.1638 14.1809C15.2495 14.2227 15.3436 14.2444 15.439 14.2444H16.5115C16.9023 14.2445 17.2777 14.0922 17.5578 13.8197C17.838 13.5473 18.0007 13.1763 18.0115 12.7856C18.0115 10.0894 16.2677 8.02687 13.834 7.29187C13.5937 7.21983 13.3898 7.05891 13.264 6.84187C13.8854 6.55583 14.3904 6.06598 14.6953 5.45355C15.0001 4.84112 15.0865 4.14289 14.9401 3.47463C14.7937 2.80638 14.4233 2.20823 13.8903 1.77937C13.3573 1.35051 12.6937 1.1167 12.0096 1.1167C11.3255 1.1167 10.6619 1.35051 10.1289 1.77937C9.59594 2.20823 9.22553 2.80638 9.07911 3.47463C8.9327 4.14289 9.01908 4.84112 9.32393 5.45355C9.62878 6.06598 10.1338 6.55583 10.7552 6.84187C10.6294 7.05891 10.4255 7.21983 10.1852 7.29187C7.75522 8.02687 6.01147 10.0894 6.01147 12.7856C6.02222 13.1763 6.18499 13.5473 6.46514 13.8197C6.74528 14.0922 7.12069 14.2445 7.51147 14.2444Z" fill="white"/>
</svg>
