<svg width="50" height="50" viewBox="0 0 50 50" fill="none" xmlns="http://www.w3.org/2000/svg">
<circle cx="25" cy="25" r="25" fill="white"/>
<g clip-path="url(#clip0_4050_19095)">
<path d="M11.5213 19.1172C10.8479 19.1172 10.2949 19.6735 10.2949 20.3468V22.1057H22.5628V20.3468C22.5628 19.6735 22.0086 19.1172 21.3357 19.1172H11.5213ZM20.6591 20.6104C20.7644 20.6151 20.864 20.6603 20.9369 20.7366C21.0097 20.8128 21.0504 20.9142 21.0504 21.0197C21.0504 21.1252 21.0097 21.2267 20.9369 21.3029C20.864 21.3792 20.7644 21.4243 20.6591 21.4291H18.8457C18.7905 21.4321 18.7353 21.4239 18.6833 21.4049C18.6313 21.386 18.5837 21.3568 18.5434 21.319C18.503 21.2812 18.4707 21.2356 18.4485 21.185C18.4262 21.1343 18.4144 21.0797 18.4138 21.0244C18.4132 20.9691 18.4238 20.9143 18.4449 20.8632C18.4661 20.8121 18.4973 20.7658 18.5369 20.7271C18.5764 20.6884 18.6233 20.6582 18.6749 20.6381C18.7264 20.618 18.7815 20.6086 18.8367 20.6104H20.6591ZM10.2953 22.9239V30.1584C10.2966 30.4833 10.4262 30.7946 10.6559 31.0243C10.8856 31.2542 11.1967 31.384 11.5217 31.3855H21.3361C21.661 31.3839 21.9722 31.254 22.2021 31.0243C22.4319 30.7945 22.5616 30.4833 22.5632 30.1584V22.9239H10.2953Z" fill="#6C7A8D"/>
</g>
<path d="M27.6951 19.1172C27.0217 19.1172 26.4688 19.6735 26.4688 20.3468V22.1057H38.7367V20.3468C38.7367 19.6735 38.1824 19.1172 37.5095 19.1172H27.6951ZM36.8329 20.6104C36.9382 20.6151 37.0378 20.6603 37.1107 20.7366C37.1836 20.8128 37.2243 20.9142 37.2243 21.0197C37.2243 21.1252 37.1836 21.2267 37.1107 21.3029C37.0378 21.3792 36.9382 21.4243 36.8329 21.4291H35.0196C34.9643 21.4321 34.9091 21.4239 34.8571 21.4049C34.8052 21.386 34.7576 21.3568 34.7172 21.319C34.6768 21.2812 34.6446 21.2356 34.6223 21.185C34.6 21.1343 34.5882 21.0797 34.5876 21.0244C34.587 20.9691 34.5976 20.9143 34.6187 20.8632C34.6399 20.8121 34.6712 20.7658 34.7107 20.7271C34.7502 20.6884 34.7972 20.6582 34.8487 20.6381C34.9002 20.618 34.9553 20.6086 35.0106 20.6104H36.8329ZM26.4692 22.9239V30.1584C26.4705 30.4833 26.6 30.7946 26.8297 31.0243C27.0594 31.2542 27.3706 31.384 27.6955 31.3855H37.5099C37.8348 31.3839 38.146 31.254 38.3759 31.0243C38.6057 30.7945 38.7354 30.4833 38.737 30.1584V22.9239H26.4692Z" fill="#6C7A8D"/>
<mask id="path-4-inside-1_4050_19095" fill="white">
<path d="M50 25C50 38.8071 38.8071 50 25 50C11.1929 50 0 38.8071 0 25C0 11.1929 11.1929 0 25 0C38.8071 0 50 11.1929 50 25ZM1.7854 25C1.7854 37.8211 12.1789 48.2146 25 48.2146C37.8211 48.2146 48.2146 37.8211 48.2146 25C48.2146 12.1789 37.8211 1.7854 25 1.7854C12.1789 1.7854 1.7854 12.1789 1.7854 25Z"/>
</mask>
<path d="M50 25C50 38.8071 38.8071 50 25 50C11.1929 50 0 38.8071 0 25C0 11.1929 11.1929 0 25 0C38.8071 0 50 11.1929 50 25ZM1.7854 25C1.7854 37.8211 12.1789 48.2146 25 48.2146C37.8211 48.2146 48.2146 37.8211 48.2146 25C48.2146 12.1789 37.8211 1.7854 25 1.7854C12.1789 1.7854 1.7854 12.1789 1.7854 25Z" stroke="url(#paint0_linear_4050_19095)" stroke-width="6" mask="url(#path-4-inside-1_4050_19095)"/>
<defs>
<linearGradient id="paint0_linear_4050_19095" x1="53.8672" y1="-6.34766" x2="-8.85016" y2="52.2963" gradientUnits="userSpaceOnUse">
<stop offset="1" stop-color="#03A587"/>
</linearGradient>
<clipPath id="clip0_4050_19095">
<rect width="12.2683" height="12.2683" fill="white" transform="translate(10.2949 19.1172)"/>
</clipPath>
</defs>
</svg>
