<svg width="18" height="624" viewBox="0 0 18 624" fill="none" xmlns="http://www.w3.org/2000/svg">
<path d="M8.99357 624L17.702 609.028L0.381591 608.972L8.99357 624ZM9.50001 -0.00482313L9.45821 12.9952L12.4582 13.0048L12.5 0.00482313L9.50001 -0.00482313ZM9.37461 38.9952L9.291 64.9952L12.291 65.0048L12.3746 39.0048L9.37461 38.9952ZM9.2074 90.9952L9.1238 116.995L12.1238 117.005L12.2074 91.0048L9.2074 90.9952ZM9.0402 142.995L8.9566 168.995L11.9566 169.005L12.0402 143.005L9.0402 142.995ZM8.873 194.995L8.7894 220.995L11.7894 221.005L11.873 195.005L8.873 194.995ZM8.7058 246.995L8.62219 272.995L11.6222 273.005L11.7058 247.005L8.7058 246.995ZM8.53859 298.995L8.45499 324.995L11.455 325.005L11.5386 299.005L8.53859 298.995ZM8.37139 350.995L8.28779 376.995L11.2878 377.005L11.3714 351.005L8.37139 350.995ZM8.20419 402.995L8.12059 428.995L11.1206 429.005L11.2042 403.005L8.20419 402.995ZM8.03699 454.995L7.95338 480.995L10.9534 481.005L11.037 455.005L8.03699 454.995ZM7.86978 506.995L7.78618 532.995L10.7862 533.005L10.8698 507.005L7.86978 506.995ZM7.70258 558.995L7.61898 584.995L10.619 585.005L10.7026 559.005L7.70258 558.995Z" fill="#04A688"/>
</svg>
