<svg width="25" height="25" viewBox="0 0 25 25" fill="none" xmlns="http://www.w3.org/2000/svg">
<g clip-path="url(#clip0_4026_2967)">
<path d="M21.5117 9.86914C20.1117 9.86914 19.0117 10.9691 19.0117 12.3691C19.0117 13.7691 17.9117 14.8691 16.5117 14.8691C15.1117 14.8691 14.0117 13.7691 14.0117 12.3691C14.2117 11.4691 14.6117 10.5691 15.2117 9.86914C16.0117 8.46914 17.0117 6.96914 17.0117 5.36914C17.0117 2.56914 14.8117 0.369141 12.0117 0.369141C5.41172 0.369141 0.0117188 5.76914 0.0117188 12.3691C0.0117188 18.9691 5.41172 24.3691 12.0117 24.3691C18.6117 24.3691 24.0117 18.9691 24.0117 12.3691C24.0117 10.9691 22.9117 9.86914 21.5117 9.86914ZM12.0117 3.36914C13.1117 3.36914 14.0117 4.26914 14.0117 5.36914C14.0117 6.46914 13.1117 7.36914 12.0117 7.36914C10.9117 7.36914 10.0117 6.46914 10.0117 5.36914C10.0117 4.26914 10.9117 3.36914 12.0117 3.36914ZM3.01172 12.3691C3.01172 11.2691 3.91172 10.3691 5.01172 10.3691C6.11172 10.3691 7.01172 11.2691 7.01172 12.3691C7.01172 13.4691 6.11172 14.3691 5.01172 14.3691C3.91172 14.3691 3.01172 13.4691 3.01172 12.3691ZM7.01172 19.3691C5.91172 19.3691 5.01172 18.4691 5.01172 17.3691C5.01172 16.2691 5.91172 15.3691 7.01172 15.3691C8.11172 15.3691 9.01172 16.2691 9.01172 17.3691C9.01172 18.4691 8.11172 19.3691 7.01172 19.3691ZM7.01172 9.36914C5.91172 9.36914 5.01172 8.46914 5.01172 7.36914C5.01172 6.26914 5.91172 5.36914 7.01172 5.36914C8.11172 5.36914 9.01172 6.26914 9.01172 7.36914C9.01172 8.46914 8.11172 9.36914 7.01172 9.36914ZM12.0117 21.3691C10.9117 21.3691 10.0117 20.4691 10.0117 19.3691C10.0117 18.2691 10.9117 17.3691 12.0117 17.3691C13.1117 17.3691 14.0117 18.2691 14.0117 19.3691C14.0117 20.4691 13.1117 21.3691 12.0117 21.3691Z" fill="white"/>
</g>
<defs>
<clipPath id="clip0_4026_2967">
<rect width="24" height="24" fill="white" transform="translate(0.0117188 0.369141)"/>
</clipPath>
</defs>
</svg>
