<svg width="25" height="25" viewBox="0 0 25 25" fill="none" xmlns="http://www.w3.org/2000/svg">
<g clip-path="url(#clip0_4026_2983)">
<path d="M4.15944 12.2972C4.55174 12.5926 4.79174 12.8326 5.68713 13.7234C5.92713 13.9634 6.22251 14.2541 6.5779 14.6095C6.52251 14.388 6.50405 14.1618 6.53174 13.9357C6.55943 13.7141 6.63328 13.5018 6.73944 13.308C5.86417 12.8088 5.13665 12.0868 4.63081 11.2153C4.12497 10.3439 3.85883 9.35407 3.85944 8.34645C3.85944 5.18953 6.42097 2.62799 9.5779 2.62799C12.7348 2.62799 15.2964 5.18953 15.2964 8.34645C15.2964 9.94799 14.6364 11.3972 13.5748 12.4311C13.8471 12.4726 14.1241 12.528 14.3964 12.6065C14.581 12.6572 14.7656 12.7172 14.9456 12.7818C15.9425 11.5772 16.5425 10.0265 16.5425 8.34645C16.5425 4.49722 13.4225 1.38184 9.5779 1.38184C5.72867 1.38184 2.61328 4.49722 2.61328 8.34645C2.61328 9.67568 2.98713 10.9218 3.6379 11.9788C3.81328 12.0665 3.98867 12.1726 4.15944 12.2972Z" fill="white"/>
<path d="M9.76415 3.78517V3.04117C9.76521 3.02321 9.76259 3.00522 9.75645 2.98831C9.75031 2.9714 9.74078 2.95592 9.72844 2.94283C9.7161 2.92974 9.70121 2.91931 9.68469 2.91218C9.66817 2.90505 9.65037 2.90137 9.63238 2.90137C9.61439 2.90137 9.59659 2.90505 9.58007 2.91218C9.56355 2.91931 9.54866 2.92974 9.53632 2.94283C9.52398 2.95592 9.51445 2.9714 9.50831 2.98831C9.50217 3.00522 9.49955 3.02321 9.50061 3.04117V3.78517C9.49955 3.80313 9.50217 3.82112 9.50831 3.83803C9.51445 3.85494 9.52398 3.87042 9.53632 3.88351C9.54866 3.8966 9.56355 3.90703 9.58007 3.91416C9.59659 3.92129 9.61439 3.92497 9.63238 3.92497C9.65037 3.92497 9.66817 3.92129 9.68469 3.91416C9.70121 3.90703 9.7161 3.8966 9.72844 3.88351C9.74078 3.87042 9.75031 3.85494 9.75645 3.83803C9.76259 3.82112 9.76521 3.80313 9.76415 3.78517ZM5.78384 5.89855L5.13953 5.52655C5.12451 5.51719 5.10775 5.51095 5.09026 5.50819C5.07277 5.50544 5.05491 5.50623 5.03773 5.51052C5.02055 5.51481 5.00442 5.52252 4.99028 5.53317C4.97614 5.54383 4.96429 5.55722 4.95543 5.57255C4.94657 5.58788 4.94089 5.60483 4.93872 5.6224C4.93655 5.63998 4.93794 5.6578 4.9428 5.67483C4.94766 5.69185 4.9559 5.70772 4.96702 5.7215C4.97814 5.73528 4.99192 5.74667 5.00753 5.75502L5.6523 6.12702C5.68244 6.14229 5.71729 6.14542 5.74967 6.13576C5.78205 6.12611 5.80949 6.10441 5.82635 6.07513C5.84321 6.04585 5.8482 6.01122 5.84029 5.97837C5.83238 5.94552 5.81218 5.91695 5.78384 5.89855ZM5.11138 11.0027L5.75615 10.6307C5.78521 10.6126 5.8061 10.5839 5.81441 10.5507C5.82271 10.5174 5.81777 10.4823 5.80064 10.4526C5.7835 10.423 5.75551 10.4012 5.72258 10.3917C5.68965 10.3823 5.65436 10.3861 5.62415 10.4022L4.97984 10.7742C4.9515 10.7926 4.9313 10.8212 4.92339 10.8541C4.91548 10.8869 4.92047 10.9215 4.93733 10.9508C4.95419 10.9801 4.98163 11.0018 5.01401 11.0115C5.04639 11.0211 5.08124 11.018 5.11138 11.0027ZM13.4246 10.6792L14.0689 11.0512C14.0839 11.0605 14.1007 11.0668 14.1182 11.0695C14.1357 11.0723 14.1535 11.0715 14.1707 11.0672C14.1879 11.0629 14.204 11.0552 14.2182 11.0446C14.2323 11.0339 14.2442 11.0205 14.253 11.0052C14.2619 10.9898 14.2676 10.9729 14.2697 10.9553C14.2719 10.9377 14.2705 10.9199 14.2657 10.9029C14.2608 10.8859 14.2526 10.87 14.2414 10.8562C14.2303 10.8424 14.2165 10.831 14.2009 10.8227L13.5566 10.4507C13.5416 10.4413 13.5248 10.4351 13.5073 10.4323C13.4898 10.4296 13.472 10.4304 13.4548 10.4347C13.4376 10.439 13.4215 10.4467 13.4074 10.4573C13.3932 10.468 13.3814 10.4814 13.3725 10.4967C13.3637 10.512 13.358 10.529 13.3558 10.5466C13.3536 10.5641 13.355 10.582 13.3599 10.599C13.3647 10.616 13.373 10.6319 13.3841 10.6457C13.3952 10.6594 13.409 10.6708 13.4246 10.6792ZM14.0975 5.57502L13.4532 5.94702C13.4242 5.96513 13.4033 5.99383 13.395 6.02705C13.3867 6.06028 13.3916 6.09543 13.4087 6.12508C13.4259 6.15474 13.4539 6.17657 13.4868 6.18597C13.5197 6.19538 13.555 6.19161 13.5852 6.17548L14.2295 5.80348C14.2451 5.79514 14.2589 5.78374 14.27 5.76996C14.2812 5.75619 14.2894 5.74031 14.2943 5.72329C14.2991 5.70626 14.3005 5.68844 14.2983 5.67087C14.2962 5.65329 14.2905 5.63634 14.2816 5.62101C14.2728 5.60568 14.2609 5.59229 14.2468 5.58163C14.2326 5.57098 14.2165 5.56327 14.1993 5.55898C14.1822 5.55469 14.1643 5.5539 14.1468 5.55665C14.1293 5.55941 14.1126 5.56565 14.0975 5.57502ZM12.2375 3.59732C12.207 3.58045 12.171 3.57637 12.1374 3.58597C12.1039 3.59557 12.0755 3.61807 12.0585 3.64855L11.6975 4.29932C11.6821 4.3298 11.6791 4.36506 11.6891 4.39771C11.6992 4.43036 11.7215 4.45785 11.7513 4.47441C11.7812 4.49096 11.8163 4.49528 11.8493 4.48648C11.8823 4.47767 11.9106 4.45641 11.9283 4.42717L12.2888 3.7764C12.3056 3.74584 12.3097 3.70985 12.3001 3.67628C12.2905 3.64272 12.268 3.61433 12.2375 3.59732ZM7.37753 4.52686C7.40742 4.50877 7.42891 4.47956 7.4373 4.44565C7.4457 4.41174 7.4403 4.37588 7.4223 4.34594L7.03923 3.70809C7.02093 3.67861 6.99176 3.65751 6.95802 3.64937C6.92429 3.64123 6.88871 3.6467 6.85898 3.6646C6.82925 3.6825 6.80776 3.71138 6.79917 3.74501C6.79058 3.77863 6.79557 3.81428 6.81307 3.84425L7.19615 4.48209C7.21424 4.51198 7.24345 4.53347 7.27736 4.54186C7.31127 4.55026 7.34713 4.54486 7.37707 4.52686H7.37753ZM5.23323 8.33686C5.2325 8.30201 5.21802 8.26887 5.19294 8.24466C5.16786 8.22045 5.13423 8.20714 5.09938 8.20763L4.35492 8.22055C4.33697 8.21985 4.31907 8.22282 4.30231 8.22928C4.28555 8.23574 4.27028 8.24556 4.25744 8.25812C4.24461 8.27068 4.23447 8.28574 4.22765 8.30235C4.22083 8.31897 4.21748 8.33681 4.21779 8.35477C4.21811 8.37273 4.22209 8.39043 4.22948 8.4068C4.23688 8.42317 4.24753 8.43786 4.2608 8.44996C4.27407 8.46207 4.28967 8.47134 4.30665 8.47721C4.32362 8.48308 4.34162 8.48542 4.35953 8.48409L5.10353 8.47117C5.13838 8.47044 5.17153 8.45596 5.19574 8.43088C5.21995 8.40581 5.23326 8.37218 5.23276 8.33732L5.23323 8.33686ZM7.3023 12.6476L7.50999 12.2784C7.54692 12.2138 7.52384 12.1353 7.45922 12.0984C7.4445 12.0897 7.42815 12.0841 7.41119 12.082C7.39423 12.0799 7.37701 12.0812 7.36059 12.086C7.34417 12.0907 7.32889 12.0988 7.31569 12.1096C7.30249 12.1205 7.29166 12.134 7.28384 12.1492L6.91923 12.7999C6.90999 12.8184 6.90538 12.8415 6.90538 12.8599C6.90538 12.9061 6.92384 12.943 6.96538 12.9707C7.0623 12.8507 7.17769 12.7399 7.3023 12.6476ZM11.8161 12.2784C11.9223 12.2876 12.0331 12.2922 12.1392 12.3015L12.0146 12.0938C11.9958 12.0649 11.9666 12.0444 11.933 12.0366C11.8994 12.0289 11.8641 12.0345 11.8346 12.0522C11.8195 12.0608 11.8064 12.0723 11.7958 12.0861C11.7853 12.0999 11.7777 12.1157 11.7734 12.1325C11.7691 12.1493 11.7682 12.1667 11.7708 12.1839C11.7734 12.201 11.7794 12.2175 11.7885 12.2322L11.8161 12.2784ZM13.9761 8.2404C13.9764 8.25774 13.9802 8.27484 13.9871 8.29074C13.994 8.30664 14.004 8.32102 14.0164 8.33307C14.0289 8.34511 14.0436 8.35458 14.0598 8.36093C14.0759 8.36729 14.0931 8.3704 14.1105 8.37009L14.8545 8.35717C14.8724 8.35787 14.8903 8.3549 14.9071 8.34844C14.9238 8.34198 14.9391 8.33217 14.9519 8.3196C14.9648 8.30704 14.9749 8.29199 14.9817 8.27537C14.9885 8.25875 14.9919 8.24092 14.9916 8.22296C14.9913 8.205 14.9873 8.18729 14.9799 8.17092C14.9725 8.15455 14.9618 8.13987 14.9486 8.12776C14.9353 8.11565 14.9197 8.10638 14.9027 8.10051C14.8857 8.09464 14.8678 8.0923 14.8498 8.09363L14.1058 8.10655C14.071 8.10728 14.0378 8.12176 14.0136 8.14684C13.9894 8.17191 13.9757 8.20555 13.9761 8.2404Z" fill="white"/>
<path d="M15.6146 14.0698C15.1346 13.8483 14.65 13.6267 14.1377 13.4929C13.5469 13.3221 12.9192 13.2806 12.31 13.2391C11.3961 13.1698 10.4869 13.1144 9.57767 13.059C9.14383 13.0406 8.70075 13.0129 8.28998 13.1514C7.88383 13.2852 7.50537 13.6221 7.44998 14.0467C7.3946 14.4944 7.68998 14.9191 8.08229 15.1544C8.46537 15.3806 8.92229 15.4544 9.36537 15.5237C10.7038 15.7267 10.8561 15.8929 12.1992 16.096C10.4684 16.1744 9.90998 16.2991 8.17921 16.3821C7.86537 16.396 7.54229 16.4098 7.23767 16.3083C6.86383 16.1883 6.55921 15.8975 6.27767 15.6114C4.32998 13.6867 4.06229 13.3821 3.61921 13.0452C2.18383 12.0114 0.923828 12.7037 0.923828 13.8806C0.946905 14.3744 1.3346 14.776 1.65767 15.1037C2.87614 16.3175 4.0946 17.536 5.31306 18.7498C5.57152 19.0129 5.84383 19.2852 6.18998 19.4144C6.48537 19.5252 6.80844 19.5252 7.12229 19.516C8.92229 19.5114 10.7131 19.4975 12.5131 19.4929C13.0531 19.4883 13.6069 19.4929 14.11 19.696C14.2715 19.7606 14.4146 19.8437 14.5577 19.9406L14.7423 19.5714L17.1469 14.776C16.4269 14.4437 15.6977 14.1114 15.6146 14.0698ZM22.6946 16.6498L21.7946 16.1975L18.9838 14.7898C18.6284 14.6098 18.19 14.7529 18.01 15.1083L15.5684 19.9867L15.3331 20.4529C15.1669 20.799 15.2961 21.2098 15.6284 21.4037L19.3761 23.2775C19.7315 23.4621 20.1746 23.3144 20.35 22.9544L23.0223 17.6283C23.2023 17.2683 23.0592 16.8298 22.6946 16.6498ZM18.3838 21.3206C18.2263 21.321 18.0722 21.2746 17.9411 21.1873C17.8099 21.1 17.7077 20.9757 17.6472 20.8302C17.5868 20.6848 17.5708 20.5246 17.6015 20.3701C17.6321 20.2156 17.708 20.0737 17.8193 19.9623C17.9307 19.8509 18.0727 19.775 18.2272 19.7444C18.3817 19.7138 18.5419 19.7297 18.6873 19.7901C18.8328 19.8506 18.9571 19.9529 19.0443 20.084C19.1316 20.2151 19.178 20.3692 19.1777 20.5267C19.1777 20.9652 18.8223 21.3206 18.3838 21.3206ZM9.34691 8.88213C9.40229 9.19597 9.4946 9.40828 9.60537 9.40828H9.60998C9.72075 9.40367 9.81306 9.19136 9.86383 8.88213L9.91921 8.85444C10.7131 9.6252 11.9961 10.8298 12.1023 10.9267C12.0192 10.8252 10.8931 9.42674 10.1777 8.57751C10.2284 8.48982 10.2515 8.3929 10.2515 8.29136C10.2515 8.0329 10.1038 7.81136 9.88691 7.70982C9.80844 6.5929 9.60537 4.48828 9.60537 4.48828C9.60537 4.48828 9.41152 6.52367 9.33306 7.65444C9.05152 7.4052 8.82075 7.26674 8.75614 7.32674V7.33136C8.69614 7.39597 8.82075 7.64059 9.06075 7.9452C8.99614 8.04674 8.95921 8.16213 8.95921 8.29136C8.95921 8.55443 9.11614 8.7852 9.34691 8.88213Z" fill="white"/>
</g>
<defs>
<clipPath id="clip0_4026_2983">
<rect width="24" height="24" fill="white" transform="translate(0.0117188 0.369141)"/>
</clipPath>
</defs>
</svg>
