<svg width="24" height="25" viewBox="0 0 24 25" fill="none" xmlns="http://www.w3.org/2000/svg">
<path d="M7.20521 13.6282C7.20521 14.0953 6.82613 14.4744 6.35904 14.4744H5.23082C4.76374 14.4744 4.38466 14.0953 4.38466 13.6282C4.38466 13.1611 4.76374 12.7821 5.23082 12.7821H6.35904C6.82613 12.7821 7.20521 13.1611 7.20521 13.6282ZM7.48726 9.39744H5.23082C4.76374 9.39744 4.38466 9.77651 4.38466 10.2436C4.38466 10.7107 4.76374 11.0897 5.23082 11.0897H7.48726C7.95435 11.0897 8.33343 10.7107 8.33343 10.2436C8.33343 9.77651 7.95435 9.39744 7.48726 9.39744ZM5.23082 7.70513H10.8719C11.339 7.70513 11.7181 7.32605 11.7181 6.85897C11.7181 6.3919 11.339 6.01282 10.8719 6.01282H5.23082C4.76374 6.01282 4.38466 6.3919 4.38466 6.85897C4.38466 7.32605 4.76374 7.70513 5.23082 7.70513ZM17.1313 11.8242L14.6334 13.7061L13.6383 12.9535C13.2671 12.6715 12.7369 12.7448 12.4526 13.1183C12.1705 13.4906 12.2438 14.0208 12.6173 14.3029L14.1212 15.4424C14.2724 15.5574 14.4518 15.6138 14.6323 15.6138C14.8117 15.6138 14.9911 15.5563 15.1422 15.4435L18.1512 13.1769C18.5246 12.8949 18.598 12.3646 18.317 11.9912C18.035 11.6189 17.5047 11.5444 17.1313 11.8253V11.8242ZM22.7521 19.8672C22.5874 20.0319 22.3707 20.1154 22.1541 20.1154C21.9375 20.1154 21.7209 20.033 21.5562 19.8672L19.9349 18.246C19.5062 18.6679 19.0188 19.0289 18.4885 19.32V20.3974C18.4885 22.1089 17.0974 23.5 15.3859 23.5H4.1026C2.39109 23.5 1 22.1089 1 20.3974V4.60256C1 2.89108 2.39109 1.5 4.1026 1.5H15.3848C17.0963 1.5 18.4874 2.89108 18.4874 4.60256V7.93303C20.5024 9.03528 21.8721 11.1744 21.8721 13.6282C21.8721 14.8207 21.5426 15.9365 20.9785 16.8977L22.7521 18.6713C23.0826 19.0018 23.0826 19.5366 22.7521 19.8672ZM16.7951 19.9552C16.3404 20.0567 15.8699 20.1143 15.3848 20.1143C11.8083 20.1143 8.89754 17.2046 8.89754 13.6271C8.89754 10.0495 11.8083 7.1399 15.3848 7.1399C15.8699 7.1399 16.3404 7.19744 16.7951 7.29897V4.60144C16.7951 3.8241 16.1621 3.19118 15.3848 3.19118H4.1026C3.32526 3.19118 2.69233 3.8241 2.69233 4.60144V20.3963C2.69233 21.1736 3.32526 21.8066 4.1026 21.8066H15.3848C16.1621 21.8066 16.7951 21.1736 16.7951 20.3963V19.9552ZM20.1797 13.6271C20.1797 10.9837 18.0282 8.8322 15.3848 8.8322C12.7414 8.8322 10.5899 10.9837 10.5899 13.6271C10.5899 16.2705 12.7414 18.4219 15.3848 18.4219C18.0282 18.4219 20.1797 16.2716 20.1797 13.6271Z" fill="black"/>
</svg>
