<svg width="24" height="25" viewBox="0 0 24 25" fill="none" xmlns="http://www.w3.org/2000/svg">
<path d="M10.9351 11.0699C11.0339 11.0676 11.1283 11.0283 11.1996 10.9598C11.2708 10.8913 11.3138 10.7986 11.3201 10.6999L11.4451 8.41992L11.0001 8.49992C10.1979 8.68129 9.46319 9.08506 8.88006 9.66492L10.7751 11.0199C10.823 11.0505 10.8782 11.0678 10.9351 11.0699ZM10.0651 13.9999L7.80006 14.3849C8.13485 15.3035 8.75969 16.0881 9.58006 16.6199L10.4501 14.5249C10.4732 14.45 10.4732 14.3698 10.4501 14.2949C10.4295 14.2091 10.38 14.1329 10.3099 14.0792C10.2398 14.0255 10.1533 13.9975 10.0651 13.9999ZM12.1451 14.9699C12.0689 14.9337 11.9828 14.9239 11.9004 14.942C11.8181 14.9601 11.7441 15.0051 11.6901 15.0699L10.5651 17.1099C11.0312 17.2563 11.5165 17.3321 12.0051 17.3349C12.3414 17.3341 12.6766 17.2972 13.0051 17.2249L13.4201 17.1099L12.3201 15.1099C12.2714 15.0523 12.2119 15.0048 12.1451 14.9699ZM12.7601 10.9099C12.8169 10.9851 12.9003 11.0358 12.9932 11.0516C13.0861 11.0674 13.1816 11.0471 13.2601 10.9949L15.1301 9.66992C14.4378 8.98134 13.5347 8.54474 12.5651 8.42992L12.6901 10.7549C12.698 10.8123 12.7223 10.8661 12.7601 10.9099ZM11.3751 13.3599L12.0051 13.6599L12.6301 13.3599L12.7751 12.6949L12.3451 12.1499H11.6451L11.2201 12.6949L11.3751 13.3599ZM9.92506 12.5649C9.98603 12.4873 10.0153 12.3894 10.0069 12.2911C9.99858 12.1927 9.95324 12.1012 9.88006 12.0349L8.18506 10.5349C7.67807 11.3741 7.45374 12.3538 7.54506 13.3299L9.75006 12.6899C9.82184 12.6713 9.88418 12.6268 9.92506 12.5649Z" fill="black"/>
<path d="M20.5401 6.93427C20.4926 6.73309 20.4012 6.54491 20.2724 6.38325C20.1436 6.22159 19.9806 6.09046 19.7951 5.99927L12.5851 2.57427C12.4016 2.49018 12.2019 2.4475 12.0001 2.44927C11.7952 2.45043 11.5921 2.48766 11.4001 2.55927L4.19508 5.99927C4.01017 6.08796 3.84762 6.21718 3.71951 6.37732C3.5914 6.53746 3.50101 6.7244 3.45508 6.92427L1.67508 14.6743C1.63196 14.8764 1.63379 15.0855 1.68045 15.2868C1.72711 15.4881 1.81745 15.6767 1.94508 15.8393L6.94508 22.0393C7.07437 22.1977 7.23772 22.3249 7.42297 22.4115C7.60822 22.4981 7.81061 22.5417 8.01508 22.5393H16.0001C16.2037 22.541 16.4051 22.4969 16.5894 22.4104C16.7738 22.3239 16.9363 22.197 17.0651 22.0393L22.0651 15.8393C22.1983 15.6798 22.2921 15.4913 22.339 15.289C22.3859 15.0866 22.3845 14.876 22.3351 14.6743L20.5401 6.93427ZM19.1851 14.8593C19.1471 14.8666 19.1081 14.8666 19.0701 14.8593C19.0638 14.8565 19.057 14.8551 19.0501 14.8551C19.0432 14.8551 19.0364 14.8565 19.0301 14.8593H18.9401C18.8518 14.8351 18.7663 14.8016 18.6851 14.7593L18.5551 14.7043C18.3151 14.6064 18.0653 14.5343 17.8101 14.4893H17.7851C17.7184 14.4963 17.6547 14.5204 17.6001 14.5593C17.6001 14.5593 17.6001 14.5593 17.5701 14.5593L17.3901 14.4993C17.2446 14.951 17.0431 15.3827 16.7901 15.7843C16.3208 16.5388 15.6758 17.1684 14.9101 17.6193L14.9801 17.7943C14.9594 17.8695 14.9594 17.949 14.9801 18.0243C15.0746 18.2623 15.199 18.4874 15.3501 18.6943C15.3751 18.7343 15.4051 18.7643 15.4351 18.8093C15.4935 18.8794 15.5454 18.9547 15.5901 19.0343C15.6073 19.0561 15.6224 19.0795 15.6351 19.1043C15.6351 19.1043 15.6351 19.1043 15.6351 19.1343C15.6883 19.2449 15.699 19.3713 15.6651 19.4893C15.6303 19.6008 15.5531 19.6942 15.4501 19.7493C15.397 19.7748 15.339 19.7885 15.2801 19.7893C15.1917 19.7859 15.1058 19.7591 15.0311 19.7117C14.9564 19.6642 14.8957 19.5978 14.8551 19.5193C14.852 19.5095 14.852 19.499 14.8551 19.4893C14.8551 19.4643 14.8251 19.4493 14.8101 19.4193C14.7773 19.3358 14.7489 19.2507 14.7251 19.1643L14.6851 19.0343C14.6042 18.79 14.5039 18.5525 14.3851 18.3243C14.365 18.2909 14.3381 18.2622 14.3063 18.2398C14.2744 18.2174 14.2383 18.2019 14.2001 18.1943C14.2001 18.1943 14.2001 18.1943 14.1701 18.1943L14.0851 18.0393C13.8425 18.1244 13.5955 18.1962 13.3451 18.2543C12.9389 18.351 12.5226 18.398 12.1051 18.3943C11.4212 18.3964 10.7429 18.2709 10.1051 18.0243L10.0051 18.2093H9.97508C9.90232 18.2342 9.83815 18.2793 9.79008 18.3393C9.66424 18.5642 9.56363 18.8023 9.49008 19.0493L9.45008 19.1793C9.42008 19.2643 9.40508 19.3343 9.36508 19.4343C9.34782 19.4561 9.33275 19.4795 9.32008 19.5043C9.31701 19.514 9.31701 19.5245 9.32008 19.5343C9.27945 19.6128 9.21871 19.6792 9.14404 19.7267C9.06938 19.7741 8.98347 19.8009 8.89508 19.8043C8.83618 19.8035 8.77816 19.7898 8.72508 19.7643C8.61763 19.7151 8.53382 19.6257 8.49172 19.5154C8.44963 19.405 8.45263 19.2825 8.50008 19.1743C8.50242 19.1644 8.50242 19.1541 8.50008 19.1443C8.51275 19.1195 8.52782 19.0961 8.54508 19.0743C8.60008 18.9893 8.64508 18.9193 8.70008 18.8493C8.75508 18.7793 8.76008 18.7743 8.78508 18.7343C8.93015 18.5228 9.05567 18.2985 9.16008 18.0643C9.18022 17.9866 9.16946 17.9042 9.13008 17.8343L9.21508 17.6493C8.02883 16.9609 7.13856 15.8588 6.71508 14.5543L6.51508 14.5843H6.49008C6.43753 14.5417 6.37266 14.5171 6.30508 14.5143H6.27508C6.0213 14.5587 5.77316 14.6308 5.53508 14.7293C5.49008 14.7293 5.45008 14.7693 5.40508 14.7843C5.32387 14.8266 5.23839 14.8601 5.15008 14.8843H5.03508C4.99692 14.8894 4.95824 14.8894 4.92008 14.8843C4.81832 14.8912 4.71731 14.8626 4.63431 14.8033C4.55132 14.7441 4.4915 14.6578 4.46508 14.5593C4.4463 14.4367 4.47377 14.3115 4.54215 14.208C4.61053 14.1045 4.71493 14.0301 4.83508 13.9993C4.84972 13.9947 4.86543 13.9947 4.88008 13.9993H4.96508C5.05422 13.9827 5.14446 13.9727 5.23508 13.9693C5.28315 13.9622 5.332 13.9622 5.38008 13.9693C5.64066 13.957 5.89899 13.915 6.15008 13.8443C6.21966 13.8101 6.27593 13.7538 6.31008 13.6843C6.31008 13.6843 6.31008 13.6843 6.31008 13.6593L6.50008 13.5993C6.30704 12.2912 6.58909 10.9573 7.29508 9.83927C7.31472 9.79881 7.33815 9.7603 7.36508 9.72427L7.22508 9.59427V9.56927C7.23035 9.53048 7.22679 9.49099 7.21467 9.45376C7.20255 9.41654 7.18218 9.38252 7.15508 9.35427C6.9541 9.18803 6.73818 9.04074 6.51008 8.91427C6.47192 8.88384 6.42989 8.85861 6.38508 8.83927C6.30028 8.79832 6.21841 8.75154 6.14008 8.69927C6.11508 8.69927 6.10008 8.65427 6.07008 8.63927C6.04008 8.62427 6.07008 8.63927 6.04008 8.63927C5.94891 8.56157 5.88867 8.45372 5.87031 8.33534C5.85196 8.21696 5.87672 8.09593 5.94008 7.99427C5.9794 7.94473 6.02965 7.90496 6.0869 7.87807C6.14415 7.85118 6.20684 7.8379 6.27008 7.83927C6.38518 7.8402 6.49645 7.88082 6.58508 7.95427C6.58508 7.95427 6.58508 7.95427 6.58508 7.98427L6.66008 8.03927C6.73008 8.10927 6.78508 8.16927 6.84508 8.23927C6.88086 8.27006 6.91429 8.30349 6.94508 8.33927C7.113 8.53682 7.30442 8.71312 7.51508 8.86427C7.55095 8.89209 7.5947 8.90784 7.64008 8.90927H7.75508L7.89508 9.00927C8.65496 8.20566 9.63946 7.64981 10.7201 7.41427C10.9743 7.36093 11.2314 7.32253 11.4901 7.29927V7.11427L11.5201 7.08427C11.5814 7.04026 11.6228 6.97373 11.6351 6.89927C11.6485 6.64173 11.6334 6.3835 11.5901 6.12927C11.5855 6.08201 11.5771 6.0352 11.5651 5.98927C11.5344 5.9026 11.5191 5.81121 11.5201 5.71927V5.60427C11.5181 5.48142 11.5648 5.36278 11.6501 5.27427C11.6886 5.21536 11.7402 5.16618 11.801 5.13061C11.8617 5.09504 11.9299 5.07404 12.0001 5.06927C12.1212 5.07319 12.2359 5.12476 12.3192 5.21277C12.4025 5.30077 12.4478 5.41811 12.4451 5.53927V5.66927C12.4451 5.76927 12.4151 5.85427 12.4001 5.93927C12.3929 5.98567 12.3929 6.03288 12.4001 6.07927C12.3642 6.33429 12.3492 6.59181 12.3551 6.84927C12.3684 6.92335 12.4095 6.98953 12.4701 7.03427L12.5001 7.06427V7.24927C13.593 7.3449 14.6349 7.75471 15.5001 8.42927C15.6997 8.60769 15.8884 8.79804 16.0651 8.99927L16.2351 8.88427H16.2651C16.2929 8.89194 16.3223 8.89194 16.3501 8.88427C16.3954 8.88284 16.4392 8.86709 16.4751 8.83927C16.6826 8.69374 16.8737 8.52609 17.0451 8.33927C17.083 8.31281 17.1167 8.28078 17.1451 8.24427C17.2027 8.17402 17.2645 8.10723 17.3301 8.04427C17.3601 8.04427 17.3751 7.99927 17.4051 7.98427C17.4937 7.91082 17.605 7.8702 17.7201 7.86927C17.7833 7.8679 17.846 7.88118 17.9033 7.90807C17.9605 7.93496 18.0108 7.97473 18.0501 8.02427C18.1121 8.12546 18.136 8.24541 18.1177 8.36265C18.0994 8.4799 18.04 8.58681 17.9501 8.66427C17.9501 8.66427 17.9501 8.66427 17.9201 8.69427C17.8989 8.71518 17.8754 8.73363 17.8501 8.74927C17.7718 8.8031 17.6899 8.85155 17.6051 8.89427C17.5651 8.92427 17.5201 8.93427 17.4801 8.96427C17.2518 9.09233 17.0358 9.2413 16.8351 9.40927C16.7875 9.46871 16.7627 9.54317 16.7651 9.61927V9.64927L16.6251 9.77927C16.9971 10.3497 17.2661 10.9809 17.4201 11.6443C17.5737 12.2995 17.6076 12.977 17.5201 13.6443L17.7051 13.6993V13.7293C17.7189 13.7644 17.7398 13.7962 17.7665 13.8229C17.7931 13.8495 17.825 13.8704 17.8601 13.8843C18.1119 13.9526 18.3698 13.9962 18.6301 14.0143C18.6782 14.0209 18.727 14.0209 18.7751 14.0143C18.865 14.0075 18.9552 14.0075 19.0451 14.0143C19.0451 14.0143 19.1001 14.0143 19.1301 14.0143H19.1601C19.2692 14.0404 19.3677 14.0995 19.4419 14.1836C19.5162 14.2677 19.5627 14.3727 19.5751 14.4843C19.5529 14.5776 19.5043 14.6626 19.4352 14.7291C19.366 14.7956 19.2792 14.8408 19.1851 14.8593Z" fill="black"/>
<path d="M13.7151 14.0304C13.6266 14.0672 13.5553 14.1361 13.5154 14.2232C13.4755 14.3104 13.4701 14.4094 13.5001 14.5004L14.3951 16.6504C14.9478 16.2969 15.4156 15.8257 15.7651 15.2704C15.9485 15.0048 16.087 14.7109 16.1751 14.4004L13.9101 14.0004C13.8438 13.9973 13.7775 14.0075 13.7151 14.0304ZM15.8051 10.5254L14.0851 12.0804C14.0408 12.1215 14.011 12.1759 14.0001 12.2354C13.9772 12.3314 13.9925 12.4327 14.0429 12.5176C14.0933 12.6025 14.1748 12.6645 14.2701 12.6904L16.4501 13.3204C16.5347 12.3441 16.309 11.3659 15.8051 10.5254Z" fill="black"/>
</svg>
