<svg width="24" height="25" viewBox="0 0 24 25" fill="none" xmlns="http://www.w3.org/2000/svg">
<path fill-rule="evenodd" clip-rule="evenodd" d="M5.6775 14.2013C6.42838 13.7678 6.42962 12.3642 5.68028 11.0664C4.93094 9.76849 3.71476 9.06782 2.96388 9.50137C2.213 9.9349 2.21175 11.3385 2.96109 12.6363C3.71044 13.9342 4.92662 14.6349 5.6775 14.2013ZM5.68199 16.9804C6.43133 18.2782 6.43009 19.6818 5.67921 20.1154C4.92831 20.5489 3.71214 19.8482 2.9628 18.5503C2.21346 17.2525 2.2147 15.8489 2.96559 15.4154C3.71647 14.9818 4.93264 15.6825 5.68199 16.9804ZM10.799 19.9388C11.5484 21.2366 11.5471 22.6401 10.7962 23.0738C10.0454 23.5073 8.82917 22.8066 8.07982 21.5087C7.3305 20.2109 7.33175 18.8073 8.08263 18.3738C8.83351 17.9402 10.0497 18.6409 10.799 19.9388ZM10.7973 14.0248C11.5467 15.3227 11.5454 16.7263 10.7946 17.1598C10.0437 17.5933 8.82752 16.8927 8.07817 15.5948C7.32883 14.2969 7.33008 12.8934 8.08096 12.4598C8.83184 12.0263 10.048 12.727 10.7973 14.0248Z" fill="black"/>
<path fill-rule="evenodd" clip-rule="evenodd" d="M21.0338 12.6402C21.7831 11.3424 21.7819 9.9388 21.031 9.50527C20.2801 9.07173 19.064 9.77241 18.3146 11.0703C17.5653 12.3681 17.5665 13.7717 18.3174 14.2052C19.0683 14.6388 20.2845 13.9381 21.0338 12.6402ZM21.0339 15.4179C21.7848 15.8514 21.7861 17.255 21.0368 18.5529C20.2874 19.8507 19.0712 20.5514 18.3203 20.1179C17.5695 19.6843 17.5682 18.2807 18.3176 16.9829C19.0669 15.685 20.2831 14.9843 21.0339 15.4179ZM15.9179 18.3714C16.6688 18.805 16.6701 20.2085 15.9207 21.5064C15.1714 22.8042 13.9552 23.5049 13.2043 23.0714C12.4534 22.6379 12.4522 21.2343 13.2015 19.9364C13.9509 18.6386 15.1671 17.9379 15.9179 18.3714ZM15.9151 12.4588C16.6659 12.8923 16.6672 14.2959 15.9178 15.5937C15.1685 16.8916 13.9523 17.5923 13.2014 17.1587C12.4505 16.7252 12.4493 15.3217 13.1986 14.0238C13.948 12.7259 15.1642 12.0252 15.9151 12.4588Z" fill="black"/>
<path fill-rule="evenodd" clip-rule="evenodd" d="M14.7102 4.47036C14.7102 5.33743 13.4953 6.04033 11.9966 6.04033C10.4979 6.04033 9.28297 5.33743 9.28297 4.47036C9.28297 3.60329 10.4979 2.90039 11.9966 2.90039C13.4953 2.90039 14.7102 3.60329 14.7102 4.47036ZM9.59421 7.42088C9.59421 8.28794 8.37929 8.99085 6.8806 8.99085C5.38191 8.99085 4.16699 8.28794 4.16699 7.42088C4.16699 6.55381 5.38191 5.8509 6.8806 5.8509C8.37929 5.8509 9.59421 6.55381 9.59421 7.42088ZM17.1192 8.99085C18.6179 8.99085 19.8328 8.28794 19.8328 7.42088C19.8328 6.55381 18.6179 5.8509 17.1192 5.8509C15.6205 5.8509 14.4056 6.55381 14.4056 7.42088C14.4056 8.28794 15.6205 8.99085 17.1192 8.99085ZM14.7102 10.378C14.7102 11.2451 13.4953 11.948 11.9966 11.948C10.4979 11.948 9.28297 11.2451 9.28297 10.378C9.28297 9.51095 10.4979 8.80804 11.9966 8.80804C13.4953 8.80804 14.7102 9.51095 14.7102 10.378Z" fill="black"/>
</svg>
