<svg width="24" height="25" viewBox="0 0 24 25" fill="none" xmlns="http://www.w3.org/2000/svg">
<g clip-path="url(#clip0_4113_21270)">
<path fill-rule="evenodd" clip-rule="evenodd" d="M16.4286 23.2684C16.3171 23.2774 16.2496 23.4604 16.2496 23.6602C16.2496 24.1223 16.6096 24.4973 17.0533 24.4973C17.0533 24.4973 17.4454 24.5565 17.7262 24.1178C17.7498 24.081 17.8805 23.8767 18.0648 23.5877C19.3303 21.6121 20 19.142 20 17.191C20 14.9297 17.9105 12.2788 15.3142 12.2207C15.3184 12.2207 13.7819 11.8725 13.7819 11.8725C13.6586 11.8446 13.5708 11.7308 13.5708 11.599V8.03405C13.5708 7.3677 13.3168 6.72926 12.8646 6.25824C12.4124 5.78723 11.7995 5.5227 11.1598 5.5227C10.5201 5.5227 9.90717 5.78723 9.45498 6.25824C9.00279 6.72926 8.74883 7.3677 8.74883 8.03405V14.2555L8.42737 13.8916C7.95697 13.357 7.29797 13.0467 6.60147 13.0311C5.90604 13.0154 5.23418 13.2967 4.74235 13.809C4.74235 13.8101 4.74127 13.8101 4.7402 13.8113C3.76082 14.8314 3.75224 16.4833 4.72092 17.5158L7.37726 20.3452C8.00411 20.9993 8.36951 21.3621 8.55917 21.8096C8.74455 22.2472 8.74883 22.755 8.74883 23.6602C8.74883 24.1223 9.10887 24.4973 9.55249 24.4973C9.99611 24.4973 10.3561 24.1223 10.3561 23.6602C10.3561 22.4213 10.2843 21.7337 10.0293 21.1332C9.77965 20.5428 9.34247 20.026 8.51738 19.1655L5.86961 16.3449C5.51707 15.9688 5.52028 15.3672 5.87711 14.9955L5.87925 14.9933C6.06141 14.8035 6.31001 14.6986 6.56718 14.7053C6.82542 14.7109 7.06973 14.8258 7.24332 15.0234C8.05233 15.9409 8.95993 16.9711 8.95993 16.9711C9.18495 17.2256 9.53534 17.3104 9.84395 17.1854C10.1526 17.0604 10.3561 16.7501 10.3561 16.4052V8.03405C10.3561 7.81193 10.4408 7.59874 10.5919 7.44248C10.7419 7.28511 10.9466 7.19693 11.1598 7.19693C11.373 7.19693 11.5777 7.28511 11.7277 7.44248C11.8788 7.59874 11.9635 7.81193 11.9635 8.03405C11.9635 9.18369 11.9635 10.6659 11.9635 11.599C11.9635 12.5176 12.5774 13.3123 13.44 13.5077C14.1515 13.6695 15.0559 13.8749 15.0559 13.8749C15.1127 13.8872 15.1695 13.8939 15.2274 13.8939C16.9761 13.8939 18.3927 15.6741 18.3927 17.191C18.3927 18.8607 17.8098 20.9692 16.7275 22.659C16.5432 22.9481 16.3889 23.1892 16.3889 23.1892L16.4286 23.2684ZM8.62346 2.76356C9.31461 2.38519 10.0979 2.17423 10.9283 2.17423C11.7588 2.17423 12.5432 2.38519 13.2332 2.76245C13.6254 2.97786 14.1119 2.82049 14.3187 2.41197C14.5244 2.00234 14.3733 1.49561 13.9812 1.28131C13.0661 0.780155 12.0288 0.5 10.9283 0.5C9.82787 0.5 8.79062 0.780155 7.87553 1.28131C7.48335 1.49561 7.33226 2.00234 7.53799 2.41086C7.7448 2.82049 8.23021 2.97786 8.62346 2.76356Z" fill="black"/>
<path fill-rule="evenodd" clip-rule="evenodd" d="M9.84906 5.53395C10.1941 5.35195 10.5851 5.25195 11.0001 5.25195C11.4151 5.25195 11.8061 5.35195 12.1511 5.53395C12.5171 5.72595 12.9711 5.58495 13.1641 5.21895C13.3561 4.85195 13.2151 4.39895 12.8491 4.20595C12.2951 3.91495 11.6661 3.75195 11.0001 3.75195C10.3341 3.75195 9.70506 3.91495 9.15106 4.20595C8.78506 4.39795 8.64406 4.85195 8.83606 5.21895C9.02906 5.58495 9.48206 5.72595 9.84906 5.53395Z" fill="black"/>
</g>
<defs>
<clipPath id="clip0_4113_21270">
<rect width="24" height="24" fill="white" transform="translate(0 0.5)"/>
</clipPath>
</defs>
</svg>
