<svg width="24" height="25" viewBox="0 0 24 25" fill="none" xmlns="http://www.w3.org/2000/svg">
<path d="M19.1591 12.4996L17.9154 10.3652H15.5311L14.3911 12.4996L15.6349 14.634H17.9154L19.1591 12.4996Z" fill="black"/>
<path d="M5.89288 10.3652L4.75244 12.4996L5.99622 14.634H8.27668L9.52045 12.4996L8.27668 10.3652H5.89288Z" fill="black"/>
<path d="M10.7116 7.48242L9.57153 9.61683L10.8153 11.7512H13.0954L14.3391 9.61683L13.0954 7.48242H10.7116Z" fill="black"/>
<path d="M10.7116 13.2441L9.57153 15.3785L10.8153 17.5129H13.0954L14.3391 15.3785L13.0954 13.2441H10.7116Z" fill="black"/>
<path d="M17.9618 3.49805V5.83438L20.4975 7.34605V17.5156L17.8281 19.0273V21.5009L22.4996 18.7524V6.2465L17.9618 3.49805Z" fill="black"/>
<path d="M3.41372 7.34605L5.94935 5.83438V3.49805L1.41162 6.2465V18.7524L6.08305 21.5009V19.0273L3.41372 17.5156V7.34605Z" fill="black"/>
</svg>
