<svg width="386" height="84" viewBox="0 0 386 84" fill="none" xmlns="http://www.w3.org/2000/svg">
<rect x="2.65596" y="3.04561" width="380.688" height="77.9083" rx="17.7064" stroke="url(#paint0_linear_1994_55500)" stroke-width="5.31193"/>
<path d="M29.2679 72.1003C30.2156 72.0974 31.1238 71.711 31.794 71.0255C32.4642 70.34 32.8419 69.411 32.8447 68.4416V53.8025C33.0289 53.9865 33.1425 54.2297 33.3224 54.4115C33.6081 54.8045 33.9271 55.171 34.2755 55.5069C34.6255 55.8642 35.0045 56.1903 35.4085 56.4818C36.2504 57.1007 37.1743 57.5935 38.1523 57.9453C38.4016 58.054 38.6615 58.1355 38.9276 58.1885C39.0402 58.2383 39.163 58.2594 39.2853 58.2498C39.4267 58.2825 39.5661 58.3235 39.703 58.3725C40.2372 58.4437 40.7749 58.4847 41.3136 58.4952C41.5512 58.5257 41.7915 58.5257 42.029 58.4952C42.2888 58.509 42.5492 58.4899 42.8044 58.4383C43.329 58.4217 43.8497 58.34 44.3551 58.1951C44.475 58.1951 44.5928 58.1337 44.7127 58.1337C44.8541 58.101 44.9936 58.0601 45.1304 58.011C45.2571 57.9978 45.3793 57.9559 45.4881 57.8884C45.6148 57.8751 45.7369 57.8332 45.8458 57.7657C45.9657 57.7043 46.0835 57.7043 46.2035 57.643L46.5612 57.4546C46.6878 57.4414 46.81 57.3995 46.9189 57.3319L47.0988 57.2092L47.283 57.1479L47.6407 56.9594C47.7477 56.9106 47.8479 56.8472 47.9384 56.771L48.2961 56.5914C48.4064 56.5257 48.5068 56.4438 48.5938 56.3482C49.035 56.0781 49.454 55.7719 49.8468 55.4324C50.6142 54.7792 51.3121 54.0448 51.9286 53.2416C52.5746 52.4651 53.1163 51.6038 53.5393 50.6805C54.0132 49.8102 54.3931 48.8898 54.6724 47.9354C54.8389 47.4755 54.9783 47.0058 55.09 46.5289C55.1982 46.0465 55.2776 45.5577 55.3278 45.0654C55.4956 44.0994 55.5752 43.1196 55.5655 42.1385C55.5753 41.6498 55.5553 41.1611 55.5055 40.675L55.3213 39.2115C55.2761 38.7388 55.1967 38.2701 55.0836 37.8094C54.9719 37.3138 54.8325 36.8251 54.6659 36.3459C54.5336 35.868 54.3741 35.3983 54.1883 34.9394C53.9939 34.4799 53.7751 34.0316 53.5329 33.5964C53.1106 32.6765 52.5704 31.8182 51.9265 31.0441C51.6288 30.6782 51.3311 30.251 50.9734 29.8852C50.6157 29.5193 50.258 29.2148 49.8403 28.8533C49.4826 28.5488 49.065 28.2442 48.6473 27.9375C48.1697 27.633 47.752 27.3876 47.2765 27.1444C46.8105 26.9156 46.3329 26.7123 45.8458 26.5354C45.3582 26.3358 44.8571 26.1725 44.3465 26.0468C43.8518 25.9358 43.3512 25.8546 42.8472 25.8036C42.3318 25.7539 41.8141 25.7334 41.2965 25.7423C40.7578 25.7528 40.2201 25.7938 39.6858 25.865L38.8505 26.049C38.6128 26.1104 38.3729 26.233 38.1351 26.2922C37.1386 26.6423 36.1948 27.1335 35.3314 27.7513C35.2609 27.8635 35.1563 27.9489 35.0337 27.9945C34.9467 28.09 34.8464 28.172 34.736 28.2377L34.1984 28.7875C34.0246 28.9347 33.8646 29.0983 33.7208 29.2761L33.483 29.5806C33.3896 29.6697 33.3095 29.7723 33.2453 29.8852L32.8276 30.4351V29.4032C32.8248 28.4337 32.447 27.5048 31.7768 26.8193C31.1067 26.1338 30.1985 25.7474 29.2507 25.7445C28.3029 25.7474 27.3948 26.1338 26.7246 26.8193C26.0544 27.5048 25.6767 28.4337 25.6738 29.4032L25.6738 68.4394C25.6778 69.4081 26.056 70.3359 26.7261 71.0205C27.3962 71.705 28.3037 72.0908 29.2507 72.0937L29.2679 72.1003ZM33.5516 38.3615C33.7777 37.7744 34.0788 37.2204 34.4469 36.714C34.7611 36.1966 35.1422 35.7249 35.5799 35.3118C36.359 34.5122 37.2958 33.8916 38.3279 33.4913C38.4478 33.4299 38.5656 33.4299 38.6856 33.3686C38.7455 33.3686 38.8055 33.3072 38.8698 33.3072L39.0497 33.2459C39.1696 33.2459 39.2296 33.1846 39.3474 33.1846C39.3807 33.1899 39.4147 33.1871 39.4467 33.1764C39.4787 33.1657 39.5078 33.1475 39.5316 33.1232H39.7115C39.8147 33.1389 39.92 33.1172 40.0092 33.0619H40.3669C40.5871 33.052 40.8076 33.0726 41.0223 33.1232C41.5076 33.1396 41.9887 33.2214 42.4531 33.3664C42.9264 33.5321 43.3862 33.7357 43.8282 33.9754C44.2889 34.1878 44.7123 34.4765 45.0811 34.8299C45.5012 35.1463 45.8817 35.5142 46.2142 35.9253C46.9419 36.7656 47.5087 37.7384 47.8848 38.7931C48.0519 39.3345 48.1913 39.8844 48.3025 40.4406C48.4018 41.0042 48.442 41.5771 48.4224 42.1494C48.4441 42.7218 48.4039 43.2949 48.3025 43.8583C48.206 44.4179 48.0664 44.9688 47.8848 45.5058C47.5087 46.5604 46.9419 47.5333 46.2142 48.3736C45.8626 48.7888 45.4795 49.1749 45.0683 49.5281C44.8799 49.6847 44.6809 49.8275 44.4729 49.9554L44.2929 50.078C44.2929 50.1394 44.233 50.1394 44.173 50.2007C44.113 50.2007 44.0531 50.2621 43.9931 50.2621L43.8132 50.3848C43.6125 50.5224 43.3911 50.6252 43.1578 50.6893C43.1344 50.713 43.106 50.7308 43.0748 50.7414C43.0436 50.7521 43.0104 50.7552 42.9778 50.7506C42.954 50.7749 42.9249 50.7932 42.8929 50.8038C42.8609 50.8145 42.8269 50.8173 42.7936 50.812C42.6848 50.8795 42.5626 50.9215 42.436 50.9347C42.2394 51.0592 42.0118 51.1231 41.7806 51.1187C41.6461 51.165 41.5046 51.1858 41.3629 51.18C41.3029 51.18 41.2429 51.2414 41.183 51.2414H41.0116C40.7739 51.2414 40.534 51.3027 40.3562 51.3027C40.1185 51.3027 39.8786 51.2414 39.6408 51.2414C39.4609 51.18 39.2232 51.18 38.9854 51.1187C38.7388 51.0653 38.4988 50.9838 38.2701 50.8755C37.7957 50.6674 37.3374 50.4228 36.8993 50.1438C36.4368 49.8341 35.9979 49.4892 35.5863 49.1119C35.1622 48.6636 34.7827 48.1734 34.4533 47.6484C34.0852 47.142 33.7841 46.588 33.558 46.0009C33.1088 44.7706 32.8669 43.4713 32.8426 42.1582C32.844 40.8601 33.0883 39.5744 33.5623 38.3702L33.5516 38.3615ZM63.9037 58.2455C64.8515 58.2426 65.7597 57.8562 66.4299 57.1707C67.1 56.4852 67.4778 55.5562 67.4806 54.5868V15.5571C67.4778 14.5877 67.1 13.6587 66.4299 12.9732C65.7597 12.2877 64.8515 11.9013 63.9037 11.8984C62.956 11.9013 62.0478 12.2877 61.3776 12.9732C60.7074 13.6587 60.3297 14.5877 60.3268 15.5571L60.3268 54.5933C60.3297 55.5628 60.7074 56.4917 61.3776 57.1772C62.0478 57.8627 62.956 58.2491 63.9037 58.252V58.2455ZM99.2657 44.2767L99.1565 39.1633V38.3702C99.1565 38.0657 99.0965 37.7612 99.0965 37.5158C99.0365 36.9659 98.9166 36.4204 98.7988 35.807C98.4957 34.6862 98.0756 33.6021 97.5458 32.5733C96.9449 31.5351 96.202 30.5901 95.3397 29.7669C94.519 28.9879 93.5954 28.3308 92.596 27.8148C91.6352 27.2961 90.6129 26.9066 89.5546 26.6559C88.542 26.3743 87.5016 26.2104 86.4531 26.1673C84.4386 26.0413 82.4184 26.2892 80.4902 26.8991C78.5209 27.4543 76.6636 28.363 75.005 29.5828C74.3736 30.0529 73.9502 30.7598 73.8273 31.5486C73.7045 32.3375 73.8923 33.1439 74.3495 33.7914C74.5641 34.1257 74.8423 34.4123 75.1677 34.634C75.493 34.8557 75.8587 35.008 76.2429 35.0818C76.627 35.1555 77.0216 35.1493 77.4032 35.0635C77.7849 34.9777 78.1457 34.814 78.464 34.5823C79.5575 33.789 80.7958 33.2288 82.1052 32.9348C83.3852 32.5717 84.7188 32.4478 86.0419 32.5689C87.2934 32.6429 88.514 32.995 89.6188 33.6008C90.0935 33.8702 90.5343 34.1975 90.9318 34.5757C91.296 34.9506 91.5984 35.3834 91.8271 35.8574C92.2467 36.6876 92.4712 37.6066 92.4825 38.5411H83.7137C82.3386 38.5411 72.2634 38.9683 72.2634 48.9103C72.2634 57.8774 81.8632 59.9499 88.006 56.9616C89.5642 56.1771 90.993 55.1481 92.2404 53.912V54.7051C92.2678 55.6729 92.6639 56.5915 93.3441 57.2648C94.0244 57.9381 94.935 58.3128 95.8816 58.309C96.8312 58.2917 97.7354 57.8899 98.3959 57.1917C99.0564 56.4936 99.4193 55.556 99.4049 54.5846L99.2657 44.2767ZM92.2404 47.3899C91.0614 49.2788 89.3268 50.7363 87.2863 51.5525C84.2449 52.8341 79.415 51.857 79.415 48.5642C79.415 44.8398 83.6987 44.7171 84.4248 44.7171H92.2404V47.3899ZM107.745 25.9811C107.274 25.9773 106.808 26.0692 106.372 26.2517C105.936 26.4341 105.54 26.7033 105.207 27.0437C104.874 27.3843 104.611 27.7893 104.433 28.235C104.255 28.6807 104.165 29.1582 104.168 29.6398V54.5868C104.171 55.5562 104.549 56.4852 105.219 57.1707C105.889 57.8562 106.798 58.2426 107.745 58.2455C108.693 58.2426 109.601 57.8562 110.271 57.1707C110.942 56.4852 111.319 55.5562 111.322 54.5868V40.009C111.389 39.8761 111.43 39.7309 111.442 39.5818C111.544 38.044 112.016 36.5559 112.817 35.2505C113.137 34.7023 113.562 34.2254 114.066 33.8484C114.552 33.4879 115.098 33.2193 115.677 33.0553C116.259 32.8961 116.863 32.8325 117.465 32.8669H117.883C118.003 32.8669 118.063 32.9282 118.12 32.9282H118.358C118.418 32.9282 118.478 32.9896 118.538 32.9896H118.776C118.896 33.0509 119.014 33.0509 119.134 33.1123C119.275 33.145 119.414 33.1859 119.551 33.2349L119.909 33.419L120.267 33.603C120.374 33.6518 120.474 33.7152 120.564 33.7914C121.022 34.105 121.443 34.4727 121.817 34.8868C122.183 35.3651 122.502 35.8787 122.77 36.4204L123.128 37.3362C123.254 37.6519 123.354 37.978 123.426 38.3111C123.57 39.0324 123.65 39.7658 123.664 40.5019V40.7451L123.724 41.0496V54.6525C123.721 55.1309 123.812 55.605 123.992 56.0468C124.171 56.4885 124.435 56.889 124.769 57.2245C125.102 57.5602 125.498 57.824 125.933 58.0005C126.368 58.177 126.833 58.2625 127.3 58.252C127.768 58.2546 128.232 58.1613 128.663 57.9777C129.095 57.7941 129.487 57.5238 129.815 57.1829C130.143 56.8419 130.401 56.437 130.574 55.9922C130.746 55.5474 130.83 55.0717 130.819 54.5933L130.759 43.1879V40.2609C130.708 39.0941 130.569 37.9332 130.342 36.7885C130.094 35.5972 129.736 34.433 129.271 33.3116C128.73 32.1509 128.049 31.0644 127.243 30.0779C127.041 29.8191 126.822 29.5747 126.587 29.3462C126.454 29.2633 126.333 29.1607 126.229 29.0417C126.126 28.9227 126.005 28.8201 125.872 28.7372C125.759 28.6025 125.615 28.498 125.454 28.4326C125.35 28.3136 125.23 28.211 125.096 28.1281C124.947 28.0414 124.808 27.9393 124.679 27.8236C124.532 27.7559 124.393 27.6745 124.261 27.5804C123.104 26.9105 121.823 26.4949 120.5 26.3601C119.869 26.2566 119.23 26.2155 118.592 26.2374C118.438 26.2917 118.276 26.3126 118.114 26.2988C117.994 26.2988 117.816 26.3601 117.696 26.3601L116.801 26.5441C116.503 26.6668 116.206 26.7282 115.906 26.8487C115.618 26.9229 115.339 27.0248 115.07 27.1532C114.533 27.3964 113.999 27.7031 113.46 28.0076L112.029 29.103L111.374 29.7734C111.374 29.7815 111.372 29.7896 111.369 29.7972C111.367 29.8047 111.362 29.8115 111.356 29.8172C111.351 29.823 111.344 29.8275 111.337 29.8306C111.329 29.8336 111.322 29.835 111.314 29.8348V29.6442C111.317 29.163 111.227 28.6859 111.049 28.2406C110.87 27.7953 110.607 27.3907 110.275 27.0502C109.943 26.7109 109.548 26.4423 109.114 26.2599C108.68 26.0775 108.215 25.985 107.745 25.9877V25.9811ZM138.567 32.0869V47.0306C138.575 49.9395 139.709 52.7269 141.719 54.7838C143.73 56.8408 146.455 58.0002 149.299 58.0089C149.77 58.0127 150.237 57.9207 150.673 57.7383C151.108 57.5559 151.504 57.2867 151.837 56.9463C152.17 56.6056 152.433 56.2006 152.612 55.7549C152.79 55.3092 152.88 54.8317 152.876 54.3502C152.885 53.8672 152.798 53.3875 152.622 52.9395C152.445 52.4916 152.182 52.0846 151.848 51.7431C151.514 51.4016 151.116 51.1324 150.678 50.9517C150.241 50.771 149.771 50.6825 149.299 50.6915C148.352 50.6886 147.443 50.3022 146.773 49.6167C146.103 48.9312 145.725 48.0022 145.722 47.0328V32.0891H149.897C150.686 32.0845 151.442 31.7618 152 31.1908C152.558 30.6199 152.874 29.8469 152.878 29.0395C152.883 28.6386 152.81 28.2407 152.663 27.8691C152.516 27.4974 152.298 27.1595 152.022 26.875C151.743 26.5925 151.413 26.3695 151.05 26.219C150.686 26.0686 150.297 25.9936 149.906 25.9986H145.725V20.2039C145.733 19.7209 145.647 19.2412 145.47 18.7932C145.294 18.3453 145.03 17.9384 144.697 17.5968C144.363 17.2553 143.965 16.9861 143.527 16.8054C143.089 16.6247 142.62 16.5362 142.148 16.5452C141.677 16.5414 141.21 16.6333 140.774 16.8157C140.339 16.9982 139.943 17.2674 139.61 17.6077C139.277 17.9484 139.014 18.3534 138.835 18.7991C138.657 19.2448 138.567 19.7223 138.571 20.2039V25.9986H136.185C135.399 26.0055 134.647 26.3278 134.091 26.8961C133.535 27.4644 133.219 28.2333 133.212 29.0373C133.224 29.8424 133.541 30.6112 134.098 31.1806C134.655 31.7499 135.406 32.0751 136.193 32.0869H138.567ZM181.618 53.4957C184.307 50.3638 185.758 46.3191 185.687 42.1516C185.77 37.9615 184.319 33.8911 181.618 30.7396C180.205 29.1621 178.483 27.9073 176.564 27.0572C174.644 26.207 172.571 25.7806 170.48 25.8058C168.395 25.7785 166.328 26.2041 164.415 27.0546C162.502 27.9051 160.788 29.1611 159.385 30.7396C156.673 33.887 155.206 37.9565 155.273 42.1516C155.219 46.3245 156.686 50.3685 159.387 53.4957C160.789 55.0762 162.502 56.3344 164.415 57.1872C166.327 58.04 168.394 58.4679 170.48 58.4426C172.573 58.4722 174.648 58.0467 176.568 57.1942C178.488 56.3418 180.209 55.0797 181.618 53.4957ZM164.697 48.6168C163.199 46.8146 162.394 44.5166 162.431 42.1516C162.384 39.7663 163.189 37.4455 164.697 35.6251C165.428 34.807 166.323 34.1601 167.321 33.7286C168.32 33.2972 169.397 33.0914 170.48 33.1254C171.572 33.0909 172.659 33.2962 173.667 33.7274C174.674 34.1586 175.58 34.8057 176.323 35.6251C177.811 37.453 178.594 39.7742 178.525 42.1516C178.584 44.5088 177.801 46.8072 176.323 48.6168C175.58 49.4358 174.674 50.0825 173.666 50.5133C172.658 50.9441 171.572 51.1491 170.48 51.1143C169.397 51.1483 168.32 50.9425 167.321 50.5111C166.323 50.0796 165.428 49.4349 164.697 48.6168ZM194.04 25.9877C193.57 25.9838 193.103 26.0758 192.667 26.2582C192.231 26.4406 191.835 26.7099 191.502 27.0502C191.17 27.3909 190.906 27.7959 190.728 28.2416C190.55 28.6873 190.46 29.1648 190.464 29.6464V54.5933C190.466 55.5628 190.844 56.4917 191.514 57.1772C192.185 57.8627 193.093 58.2491 194.04 58.252C194.988 58.2491 195.896 57.8627 196.567 57.1772C197.237 56.4917 197.615 55.5628 197.617 54.5933V40.0156C197.685 39.8827 197.725 39.7375 197.737 39.5883C197.838 38.051 198.309 36.5629 199.108 35.2571C199.428 34.7088 199.853 34.232 200.357 33.8549C200.843 33.4945 201.389 33.2259 201.967 33.0619C202.55 32.9027 203.154 32.8391 203.756 32.8735H204.174C204.294 32.8735 204.354 32.9348 204.411 32.9348H204.649C204.709 32.9348 204.769 32.9961 204.829 32.9961H205.067C205.187 33.0575 205.304 33.0575 205.424 33.1188C205.566 33.1515 205.705 33.1925 205.842 33.2415L206.2 33.4255L206.557 33.6096C206.665 33.6584 206.765 33.7218 206.855 33.798C207.313 34.1116 207.734 34.4793 208.108 34.8934C208.474 35.3717 208.793 35.8853 209.061 36.427L209.419 37.3427C209.545 37.6585 209.645 37.9846 209.717 38.3177C209.861 39.039 209.941 39.7723 209.954 40.5085V40.7517L210.014 41.0562V54.6591C210.012 55.1375 210.103 55.6116 210.282 56.0533C210.462 56.4951 210.726 56.8956 211.06 57.2311C211.393 57.5668 211.789 57.8306 212.224 58.0071C212.659 58.1836 213.124 58.2691 213.591 58.2586C214.059 58.2613 214.523 58.1681 214.954 57.9845C215.386 57.8008 215.778 57.5305 216.106 57.1895C216.434 56.8484 216.692 56.4435 216.864 55.9988C217.037 55.554 217.121 55.0783 217.11 54.5999L217.05 43.1945V40.2675C216.999 39.1007 216.86 37.9397 216.633 36.795C216.385 35.6038 216.026 34.4395 215.562 33.3182C215.021 32.1565 214.338 31.0693 213.531 30.0823C213.329 29.8235 213.11 29.579 212.876 29.3506C212.743 29.2677 212.622 29.1651 212.518 29.0461C212.414 28.9271 212.294 28.8244 212.161 28.7415C212.048 28.6069 211.904 28.5024 211.743 28.437C211.639 28.318 211.518 28.2154 211.385 28.1325C211.236 28.0457 211.096 27.9437 210.968 27.828C210.821 27.7603 210.681 27.6789 210.55 27.5848C209.393 26.9149 208.112 26.4993 206.789 26.3645C206.158 26.261 205.519 26.2199 204.88 26.2418C204.727 26.2961 204.564 26.317 204.403 26.3031C204.283 26.3031 204.105 26.3645 203.985 26.3645L203.09 26.5485C202.792 26.6712 202.494 26.7326 202.195 26.853C201.907 26.9273 201.628 27.0292 201.359 27.1576C200.822 27.4008 200.288 27.7075 199.749 28.012L198.318 29.1074L197.662 29.7778C197.663 29.7859 197.661 29.794 197.658 29.8015C197.655 29.8091 197.651 29.8159 197.645 29.8216C197.64 29.8274 197.633 29.8319 197.626 29.835C197.618 29.838 197.61 29.8394 197.602 29.8392V29.6442C197.606 29.1635 197.516 28.6869 197.338 28.242C197.16 27.7971 196.898 27.3928 196.566 27.0524C196.234 26.712 195.839 26.4425 195.404 26.2593C194.97 26.0762 194.504 25.9831 194.034 25.9855L194.04 25.9877Z" fill="#03A587"/>
<path d="M240.524 49.7598C241.517 49.7643 242.509 49.6955 243.493 49.5539C244.388 49.421 245.152 49.2749 245.786 49.1157L247.575 57.0158C246.718 57.2072 245.694 57.3883 244.501 57.5592C243.184 57.7386 241.857 57.8243 240.528 57.8155C240.118 57.8155 239.699 57.806 239.269 57.787C238.839 57.768 238.399 57.7395 237.949 57.7016C236.069 57.5162 234.227 57.0328 232.492 56.2688C230.789 55.5279 229.241 54.46 227.932 53.1227C226.579 51.7704 225.489 50.1684 224.719 48.4015C223.91 46.5601 223.498 44.562 223.511 42.5432C223.495 40.5218 223.906 38.5206 224.715 36.6762C225.485 34.9092 226.575 33.3073 227.928 31.9549C229.237 30.6169 230.785 29.5482 232.488 28.8067C234.223 28.0442 236.065 27.5623 237.945 27.3783C238.393 27.3403 238.832 27.3118 239.26 27.2928C239.689 27.2739 240.108 27.2644 240.52 27.2644C241.848 27.2555 243.176 27.3412 244.493 27.5207C245.686 27.693 246.712 27.8741 247.571 28.064L245.782 35.951C245.147 35.7962 244.382 35.6501 243.488 35.5128C242.505 35.3728 241.514 35.3054 240.522 35.3113C240.223 35.3113 239.916 35.3208 239.599 35.3398C239.282 35.3587 238.974 35.3872 238.675 35.4252C237.651 35.4872 236.645 35.7396 235.709 36.1701C234.867 36.5535 234.092 37.0753 233.415 37.7146C232.803 38.3308 232.31 39.0591 231.961 39.8616C231.612 40.7098 231.442 41.6234 231.462 42.5432C231.445 43.4462 231.617 44.3424 231.965 45.1722C232.319 45.9632 232.812 46.6812 233.419 47.2907C234.084 47.9613 234.861 48.5045 235.713 48.8944C236.65 49.3249 237.655 49.5773 238.68 49.6393C238.978 49.6773 239.286 49.7058 239.603 49.7248C239.92 49.7437 240.227 49.7554 240.524 49.7598ZM258.543 43.7547C258.525 44.5032 258.658 45.2475 258.932 45.9416C259.207 46.6357 259.617 47.2649 260.139 47.7902C260.653 48.3233 261.268 48.7429 261.947 49.0233C262.625 49.3036 263.353 49.4387 264.084 49.4202V57.3072C262.286 57.318 260.505 56.9449 258.856 56.2118C257.269 55.517 255.824 54.5217 254.598 53.2783C253.378 52.0266 252.401 50.5504 251.717 48.9273C251.001 47.2403 250.636 45.4189 250.646 43.5795V17.307C251.716 16.9114 252.81 16.5865 253.921 16.3343C255.444 15.9903 256.985 15.7415 258.537 15.5894L258.543 43.7547ZM291.896 31.8432C293.214 33.2355 294.267 34.8661 295.002 36.6521C295.774 38.5165 296.166 40.5228 296.152 42.5476C296.166 44.5723 295.776 46.5785 295.004 48.4431C294.262 50.2396 293.188 51.8724 291.841 53.252C290.489 54.6319 288.894 55.7386 287.141 56.5141C285.323 57.3216 283.36 57.7313 281.378 57.7169C279.395 57.7313 277.432 57.3216 275.614 56.5141C273.86 55.7388 272.265 54.6321 270.912 53.252C269.566 51.8723 268.492 50.2394 267.751 48.4431C266.98 46.5784 266.59 44.5721 266.605 42.5476C266.594 40.514 266.995 38.5001 267.781 36.6324C268.534 34.8273 269.616 33.1856 270.97 31.795C272.319 30.4175 273.916 29.3194 275.672 28.5613C277.495 27.7729 279.456 27.374 281.435 27.3892C283.424 27.3781 285.392 27.7876 287.218 28.592C288.972 29.3497 290.562 30.4546 291.896 31.8432ZM281.375 49.6459C282.289 49.6504 283.194 49.4656 284.036 49.1026C284.861 48.7489 285.611 48.234 286.244 47.5865C286.878 46.9389 287.382 46.1709 287.728 45.3256C288.087 44.4444 288.268 43.4978 288.259 42.5432C288.265 41.5817 288.085 40.6286 287.728 39.7389C287.395 38.894 286.901 38.1254 286.274 37.478C285.648 36.8416 284.907 36.3362 284.091 35.9904C283.25 35.6274 282.345 35.4426 281.431 35.4471C280.5 35.4392 279.577 35.624 278.717 35.9904C277.897 36.3401 277.154 36.8566 276.535 37.5087C275.914 38.1658 275.412 38.9306 275.053 39.7674C274.677 40.6419 274.486 41.5879 274.494 42.5432C274.486 43.4956 274.667 44.4398 275.025 45.319C275.371 46.1643 275.875 46.9323 276.509 47.5799C277.136 48.2229 277.876 48.7375 278.692 49.096C279.54 49.4661 280.453 49.6533 281.375 49.6459ZM327.657 42.3241C327.678 44.4045 327.376 46.4751 326.761 48.4585C326.204 50.2586 325.279 51.9171 324.048 53.3243C322.792 54.7284 321.243 55.8242 319.515 56.5295C317.492 57.3331 315.333 57.7224 313.163 57.6753C310.983 57.7205 308.816 57.3313 306.782 56.5295C305.049 55.8339 303.498 54.7367 302.25 53.3243C301.034 51.9107 300.119 50.2536 299.564 48.4585C298.95 46.4751 298.648 44.4045 298.669 42.3241V29.2734C299.74 28.8757 300.833 28.5414 301.942 28.2721C303.46 27.9116 305.004 27.6728 306.559 27.5579V42.3241C306.554 43.2697 306.667 44.2122 306.896 45.1284C307.102 45.9686 307.473 46.7573 307.986 47.4463C308.518 48.1368 309.212 48.6787 310.003 49.0215C311.007 49.4342 312.084 49.6289 313.165 49.5933C314.246 49.6289 315.323 49.4342 316.326 49.0215C317.118 48.6787 317.812 48.1368 318.344 47.4463C318.857 46.7573 319.228 45.9686 319.434 45.1284C319.663 44.2122 319.776 43.2697 319.77 42.3241V29.2712C320.829 28.8651 321.913 28.5307 323.015 28.2699C324.544 27.9111 326.097 27.6723 327.661 27.5557L327.657 42.3241ZM352.446 17.2479C353.518 16.8503 354.61 16.516 355.719 16.2467C357.236 15.8857 358.779 15.6461 360.333 15.5303V55.4275L357.702 56.3433C357.628 56.3812 357.348 56.4769 356.863 56.6302C356.377 56.7836 355.725 56.9457 354.905 57.1166C354.084 57.289 353.114 57.4511 351.994 57.603C350.77 57.759 349.536 57.8322 348.302 57.8221C347.892 57.8221 347.472 57.8126 347.042 57.7936C346.613 57.7746 346.193 57.7461 345.783 57.7081C343.885 57.527 342.026 57.0436 340.274 56.2753C338.571 55.5341 337.022 54.4654 335.712 53.1271C334.36 51.7747 333.27 50.1728 332.499 48.4059C331.691 46.5631 331.299 44.5579 331.351 42.5388C331.34 40.5081 331.731 38.496 332.499 36.6236C333.235 34.8161 334.309 33.173 335.661 31.7862C337.016 30.404 338.623 29.3055 340.39 28.5526C342.221 27.7671 344.188 27.3684 346.173 27.3805C348.288 27.3447 350.398 27.6147 352.44 28.1823L352.446 17.2479ZM352.446 37.11C351.703 36.5778 350.881 36.1717 350.011 35.9072C348.762 35.5635 347.47 35.4093 346.177 35.4493C345.246 35.4414 344.323 35.6262 343.463 35.9926C342.637 36.3467 341.886 36.8624 341.253 37.5109C340.62 38.1587 340.116 38.9267 339.771 39.7718C339.413 40.651 339.232 41.5952 339.24 42.5476C339.223 43.4506 339.394 44.3468 339.743 45.1766C340.097 45.9676 340.59 46.6856 341.197 47.2951C341.862 47.9647 342.638 48.5071 343.489 48.8966C344.426 49.3271 345.431 49.5795 346.456 49.6415C346.754 49.6795 347.062 49.708 347.379 49.7269C347.696 49.7459 348.003 49.7554 348.302 49.7554C349.049 49.7575 349.797 49.7194 350.54 49.6415C351.254 49.5656 351.888 49.4699 352.442 49.3545L352.446 37.11Z" fill="#3F4F8F"/>
<defs>
<linearGradient id="paint0_linear_1994_55500" x1="386" y1="41.9997" x2="0" y2="41.9997" gradientUnits="userSpaceOnUse">
<stop stop-color="#3F4F8F"/>
<stop offset="1" stop-color="#03A587"/>
</linearGradient>
</defs>
</svg>
