<svg width="221" height="148" viewBox="0 0 221 148" fill="none" xmlns="http://www.w3.org/2000/svg">
<g clip-path="url(#clip0_4874_153)">
<path d="M116.597 89.2845C115.087 88.2493 113.352 87.5885 111.536 87.3567C112.053 83.0531 110.278 78.601 106.478 75.9754C104.83 74.833 102.958 74.2138 101.032 74.006C101.268 69.9227 99.5004 65.8147 95.8871 63.3313C94.7586 62.5672 93.5551 62.0498 92.3102 61.7006L98.9962 51.9891C100.787 49.4108 101.422 46.274 100.823 43.1957C100.535 41.6794 99.9417 40.2373 99.0807 38.9561C98.2196 37.6749 97.1083 36.5813 95.8134 35.741C93.2767 34.081 90.1925 33.4763 87.2167 34.0554C84.241 34.6345 81.6086 36.3517 79.8795 38.8418L59.9639 67.7896C57.8617 61.6469 54.6794 58.2328 49.9503 56.9748C46.6718 56.0923 43.4702 56.5449 40.9404 58.2473C38.3619 59.9908 36.6908 62.8683 36.3054 66.3606C35.9467 69.4304 36.1446 73.0804 36.9476 77.2695C37.6836 81.1819 37.1435 85.9717 36.6334 90.6193C36.4031 92.5973 36.1952 94.5229 36.0847 96.3664C35.6473 102.936 32.7406 110.491 28.5082 119.831C27.7059 121.625 28.2757 123.761 29.9086 124.866L66.8677 150.303C67.0807 150.456 67.3311 150.595 67.5666 150.696C68.0898 150.921 68.6319 151.03 69.219 151.034C86.9184 150.894 109.539 120.629 112.153 117.072L119.746 106.045C123.447 100.537 122.083 93.0377 116.597 89.2845ZM112.971 101.397L105.45 112.33C97.1729 123.651 80.6803 141.392 70.2979 142.756L37.3108 120.05C41.1574 111.319 43.7386 103.873 44.2027 96.8803C44.3205 95.164 44.5095 93.3543 44.721 91.4923C45.2991 86.2538 45.9184 80.8472 44.9594 75.7229C44.3349 72.4165 44.14 69.4807 44.3967 67.2971C44.5251 66.2053 44.9112 65.3793 45.5137 64.9873C46.2135 64.5132 47.152 64.6377 47.8137 64.8291C49.1483 65.1859 52.2587 66.027 54.0249 78.2872L54.0398 78.3246C54.0919 78.564 54.144 78.8034 54.2335 79.0279L54.2633 79.1027C54.5205 79.8023 54.9648 80.4273 55.5925 80.9141C55.6187 80.9254 55.6336 80.9628 55.686 80.9853C55.7383 81.0078 55.7532 81.0452 55.8055 81.0677C55.9513 81.1614 56.1344 81.2401 56.2801 81.3337L56.3848 81.3787C56.4371 81.4012 56.4782 81.4499 56.5305 81.4724C56.5829 81.4949 56.6726 81.5025 56.7249 81.525C57.0501 81.6338 57.4128 81.7277 57.7605 81.7841C57.8241 81.7805 57.9138 81.7881 57.9661 81.8106C58.2092 81.822 58.4635 81.8074 58.7178 81.7927C58.845 81.7854 58.9572 81.7406 59.0694 81.6959C59.1704 81.6773 59.2452 81.6475 59.3462 81.6289C59.7353 81.5171 60.0571 81.3455 60.4013 81.1215C60.4762 81.0917 60.5361 81.0244 60.5847 80.9833C60.9141 80.7219 61.2173 80.4493 61.4645 80.0906C61.4758 80.0644 61.5019 80.0757 61.5132 80.0495L86.6653 43.464C87.7253 41.9357 89.8312 41.5081 91.3707 42.5419C92.1404 43.0588 92.6706 43.8447 92.8378 44.7536C93.0051 45.6625 92.8283 46.5785 92.3114 47.3483L79.2465 66.3454C79.2353 66.3715 79.1979 66.3864 79.1979 66.3864L72.8415 75.6197C72.2594 76.513 72.0503 77.5987 72.259 78.6443C72.4677 79.6899 73.0775 80.6122 73.9579 81.2137C74.8384 81.8151 75.9193 82.0478 76.9692 81.862C78.0191 81.6761 78.9545 81.0865 79.5749 80.2194L80.3877 79.0498L80.399 79.0237L85.9538 70.9338C87.1823 69.23 89.5686 68.7989 91.2949 69.975C93.0624 71.1998 93.4935 73.5862 92.2948 75.3648L86.9048 83.2155L85.3054 85.5659C84.7693 86.3394 84.5185 87.2751 84.5959 88.2131C84.6733 89.151 85.074 90.033 85.7296 90.7082C85.914 90.9167 86.131 91.0938 86.3722 91.2325C86.9431 91.6351 87.615 91.8702 88.3123 91.9115C88.3759 91.9078 88.4544 91.9416 88.5179 91.9379C88.9143 91.9533 89.307 91.9052 89.6848 91.8196C89.7596 91.7897 89.8606 91.7712 89.9242 91.7675C90.2871 91.6445 90.6612 91.4953 90.9793 91.2601L91.1253 91.1369C91.4547 90.8755 91.7953 90.5879 92.0538 90.203L96.5747 83.6527C97.1771 82.8493 98.0673 82.3105 99.0585 82.1496C100.05 81.9887 101.065 82.2181 101.89 82.7897C102.716 83.3613 103.288 84.2305 103.486 85.2149C103.684 86.1993 103.493 87.2222 102.953 88.0688L99.9978 92.3472L99.9866 92.3734L96.8215 96.9956L96.8103 97.0218L96.3872 97.4289C96.0448 97.9243 95.8167 98.4896 95.7193 99.0839C95.622 99.6781 95.6578 100.287 95.8242 100.865C95.9907 101.444 96.2836 101.979 96.6818 102.43C97.08 102.882 97.5735 103.24 98.1268 103.478C99.8798 104.231 101.978 103.677 103.083 102.044L103.353 101.633L103.364 101.606L104.952 99.2822L106.541 96.958C107.754 95.2167 110.178 94.7707 111.919 95.9842C113.739 97.2316 114.196 99.6291 112.971 101.397ZM109.937 -3.60174C115.955 -1.0147 122.977 -3.79275 125.575 -9.83665C128.162 -15.8544 125.384 -22.8766 119.34 -25.4749C113.296 -28.0732 106.3 -25.2839 103.702 -19.24C101.115 -13.2223 103.919 -6.18879 109.937 -3.60174ZM116.123 -17.992C118.007 -17.1821 118.887 -14.9748 118.077 -13.091C117.268 -11.2072 115.06 -10.3271 113.176 -11.137C111.293 -11.9469 110.413 -14.1542 111.222 -16.038C112.032 -17.9218 114.24 -18.8018 116.123 -17.992ZM97.4405 25.4665C103.458 28.0536 110.48 25.2755 113.079 19.2316C115.666 13.2139 112.888 6.19167 106.844 3.59338C100.8 0.995083 93.8038 3.78438 91.2056 9.82829C88.6185 15.846 91.434 22.8533 97.4405 25.4665ZM103.627 11.0763C105.511 11.8862 106.391 14.0935 105.581 15.9773C104.771 17.8611 102.564 18.7412 100.68 17.9313C98.7961 17.1214 97.916 14.9141 98.7259 13.0303C99.5357 11.1465 101.743 10.2664 103.627 11.0763ZM140.47 9.52471C146.488 12.1118 153.51 9.33371 156.109 3.2898C158.696 -2.72793 155.918 -9.75016 149.874 -12.3485C143.83 -14.9468 136.834 -12.1575 134.236 -6.11355C131.637 -0.0696516 134.453 6.93766 140.47 9.52471ZM146.646 -4.83937C148.529 -4.02951 149.41 -1.82219 148.6 0.0616191C147.79 1.94543 145.582 2.82548 143.699 2.01562C141.815 1.20576 140.935 -1.00155 141.745 -2.88537C142.555 -4.76918 144.762 -5.64923 146.646 -4.83937ZM127.974 38.593C133.992 41.18 141.014 38.402 143.612 32.3581C146.21 26.3142 143.421 19.3181 137.377 16.7198C131.333 14.1215 124.337 16.9108 121.739 22.9547C119.152 28.9725 121.956 36.0059 127.974 38.593ZM134.16 24.2028C136.044 25.0126 136.924 27.2199 136.114 29.1037C135.304 30.9876 133.097 31.8676 131.213 31.0577C129.33 30.2479 128.45 28.0406 129.259 26.1568C130.069 24.2729 132.277 23.3929 134.16 24.2028Z" fill="white" fill-opacity="0.04"/>
<path d="M115.489 67.635C121.506 70.222 128.529 67.444 131.127 61.4001C133.714 55.3823 130.936 48.3601 124.892 45.7618C118.848 43.1635 111.852 45.9528 109.254 51.9967C106.655 58.0406 109.445 65.0367 115.489 67.635ZM121.664 53.2709C123.548 54.0807 124.428 56.2881 123.618 58.1719C122.808 60.0557 120.601 60.9357 118.717 60.1259C116.833 59.316 115.953 57.1087 116.763 55.2249C117.547 53.3298 119.754 52.4498 121.664 53.2709ZM171.004 22.651C177.022 25.2381 184.044 22.46 186.642 16.4161C189.229 10.3984 186.451 3.37614 180.407 0.77784C174.363 -1.82045 167.367 0.968845 164.769 7.01275C162.171 13.0566 164.986 20.064 171.004 22.651ZM177.179 8.28693C179.063 9.09679 179.943 11.3041 179.133 13.1879C178.323 15.0717 176.116 15.9518 174.232 15.1419C172.348 14.3321 171.468 12.1247 172.278 10.2409C173.088 8.35712 175.295 7.47707 177.179 8.28693ZM167.911 29.8461C161.867 27.2478 154.871 30.0371 152.273 36.081C149.674 42.1249 152.464 49.121 158.507 51.7193C164.525 54.3063 171.547 51.5283 174.146 45.4844C176.733 39.4667 173.955 32.4444 167.911 29.8461ZM161.736 44.2102C159.852 43.4004 158.972 41.193 159.782 39.3092C160.591 37.4254 162.799 36.5454 164.683 37.3552C166.566 38.1651 167.446 40.3724 166.637 42.2562C165.827 44.14 163.619 45.0201 161.736 44.2102ZM155.414 58.9144C149.37 56.3161 142.374 59.1054 139.776 65.1493C137.189 71.1671 139.967 78.1893 146.011 80.7876C152.029 83.3746 159.051 80.5966 161.649 74.5527C164.247 68.5088 161.432 61.5015 155.414 58.9144ZM149.239 73.2785C147.355 72.4686 146.475 70.2613 147.285 68.3775C148.095 66.4937 150.302 65.6137 152.186 66.4235C154.07 67.2334 154.95 69.4407 154.14 71.3245C153.33 73.2083 151.123 74.0884 149.239 73.2785Z" fill="white" fill-opacity="0.04"/>
</g>
<defs>
<clipPath id="clip0_4874_153">
<rect width="182.268" height="182.268" fill="white" transform="translate(52.9883 -54) rotate(23.263)"/>
</clipPath>
</defs>
</svg>
