<svg width="125" height="81" viewBox="0 0 125 81" fill="none" xmlns="http://www.w3.org/2000/svg">
<path d="M115.184 62.1651L114.928 61.9261L115.184 62.1651ZM65.9509 4.70422L66.0078 5.04958L65.9509 4.70422ZM0.578734 56.2246C0.607169 56.4158 0.785216 56.5478 0.976413 56.5193L4.09214 56.056C4.28334 56.0275 4.41529 55.8495 4.38685 55.6583C4.35842 55.4671 4.18037 55.3351 3.98917 55.3636L1.21963 55.7755L0.807741 53.0059C0.779306 52.8147 0.601259 52.6828 0.410063 52.7112C0.218865 52.7397 0.0869215 52.9177 0.115356 53.1089L0.578734 56.2246ZM2.3374 54.8125C2.44969 54.6552 2.41318 54.4366 2.25584 54.3243C2.0985 54.212 1.87992 54.2486 1.76763 54.4059L2.3374 54.8125ZM4.01878 51.2755C3.90495 51.4317 3.93933 51.6506 4.09555 51.7645C4.25178 51.8783 4.47071 51.8439 4.58454 51.6877L4.01878 51.2755ZM6.88653 48.5834C7.00304 48.4291 6.97245 48.2096 6.81821 48.0931C6.66397 47.9766 6.44448 48.0072 6.32797 48.1614L6.88653 48.5834ZM8.68835 45.0974C8.56891 45.2494 8.59528 45.4694 8.74726 45.5889C8.89924 45.7083 9.11928 45.682 9.23872 45.53L8.68835 45.0974ZM11.6579 42.515C11.7804 42.3655 11.7585 42.145 11.609 42.0225C11.4595 41.9 11.239 41.9219 11.1165 42.0714L11.6579 42.515ZM13.6018 39.1035C13.4761 39.2503 13.4932 39.4713 13.6401 39.597C13.7869 39.7227 14.0079 39.7055 14.1335 39.5587L13.6018 39.1035ZM16.6794 36.6513C16.8084 36.5073 16.7962 36.286 16.6523 36.157C16.5083 36.028 16.287 36.0402 16.158 36.1841L16.6794 36.6513ZM18.7737 33.3339C18.6413 33.4747 18.6481 33.6962 18.7889 33.8286C18.9297 33.961 19.1512 33.9542 19.2837 33.8134L18.7737 33.3339ZM21.9629 31.0348C22.0989 30.8974 22.0977 30.6758 21.9603 30.5398C21.8229 30.4039 21.6013 30.4051 21.4653 30.5425L21.9629 31.0348ZM24.2312 27.8214C24.0915 27.955 24.0867 28.1766 24.2203 28.3162C24.354 28.4559 24.5755 28.4607 24.7152 28.3271L24.2312 27.8214ZM27.536 25.704C27.6795 25.5745 27.6908 25.3531 27.5613 25.2097C27.4317 25.0662 27.2104 25.0549 27.0669 25.1844L27.536 25.704ZM29.9841 22.6317C29.8366 22.7566 29.8184 22.9775 29.9434 23.125C30.0683 23.2724 30.2892 23.2907 30.4367 23.1657L29.9841 22.6317ZM33.4188 20.7228C33.5705 20.6029 33.5962 20.3828 33.4762 20.2312C33.3563 20.0796 33.1362 20.0539 32.9846 20.1738L33.4188 20.7228ZM36.0708 17.8223C35.9149 17.9366 35.8811 18.1556 35.9954 18.3115C36.1097 18.4675 36.3287 18.5012 36.4846 18.3869L36.0708 17.8223ZM39.6353 16.1711C39.7956 16.0632 39.838 15.8456 39.73 15.6853C39.6221 15.525 39.4045 15.4826 39.2442 15.5906L39.6353 16.1711ZM42.5082 13.4918C42.3434 13.5928 42.2916 13.8083 42.3925 13.9731C42.4935 14.1379 42.709 14.1897 42.8738 14.0888L42.5082 13.4918ZM46.2021 12.1553C46.3715 12.0622 46.4334 11.8494 46.3403 11.68C46.2472 11.5106 46.0344 11.4487 45.865 11.5418L46.2021 12.1553ZM49.3148 9.75849C49.1409 9.84275 49.0681 10.0521 49.1524 10.2261C49.2367 10.4 49.446 10.4727 49.62 10.3885L49.3148 9.75849ZM53.1258 8.80792C53.3042 8.73349 53.3885 8.52853 53.3141 8.35014C53.2396 8.17174 53.0347 8.08746 52.8563 8.16189L53.1258 8.80792ZM56.486 6.77329C56.3034 6.83679 56.2069 7.03628 56.2704 7.21885C56.3339 7.40142 56.5334 7.49794 56.7159 7.43444L56.486 6.77329ZM60.3834 6.28994C60.5698 6.23849 60.6791 6.04573 60.6276 5.8594C60.5762 5.67308 60.3834 5.56375 60.1971 5.6152L60.3834 6.28994ZM63.979 4.71016C63.7895 4.74849 63.667 4.93315 63.7053 5.12261C63.7436 5.31207 63.9283 5.43459 64.1178 5.39627L63.979 4.71016ZM67.9077 4.78822C68.0999 4.76692 68.2383 4.5939 68.217 4.40178C68.1957 4.20966 68.0227 4.07118 67.8306 4.09248L67.9077 4.78822ZM71.7204 3.8637C71.5271 3.86518 71.3716 4.02307 71.373 4.21637C71.3745 4.40966 71.5324 4.56516 71.7257 4.56368L71.7204 3.8637ZM75.5498 4.72457C75.7423 4.74212 75.9126 4.6003 75.9301 4.40779C75.9477 4.21529 75.8058 4.04501 75.6133 4.02746L75.5498 4.72457ZM79.4717 4.56343C79.2817 4.52802 79.0989 4.65336 79.0635 4.84339C79.0281 5.03342 79.1534 5.21617 79.3435 5.25158L79.4717 4.56343ZM83.076 6.11964C83.2622 6.17154 83.4552 6.06267 83.5071 5.87647C83.559 5.69026 83.4502 5.49725 83.264 5.44534L83.076 6.11964ZM86.9667 6.64515C86.7854 6.57814 86.5841 6.67081 86.5171 6.85212C86.4501 7.03344 86.5427 7.23474 86.724 7.30175L86.9667 6.64515ZM90.2687 8.77114C90.4443 8.85193 90.6522 8.77506 90.733 8.59946C90.8137 8.42385 90.7369 8.216 90.5613 8.13521L90.2687 8.77114ZM94.0321 9.8894C93.8629 9.79603 93.65 9.85755 93.5566 10.0268C93.4632 10.1961 93.5248 10.409 93.694 10.5023L94.0321 9.8894ZM96.989 12.4737C97.1513 12.5786 97.368 12.532 97.4729 12.3697C97.5778 12.2073 97.5313 11.9907 97.3689 11.8857L96.989 12.4737ZM100.561 14.1049C100.406 13.9893 100.187 14.0212 100.071 14.1761C99.9557 14.3311 99.9876 14.5504 100.143 14.666L100.561 14.1049ZM103.144 17.0626C103.291 17.1881 103.511 17.1707 103.637 17.0237C103.763 16.8767 103.745 16.6558 103.598 16.5303L103.144 17.0626ZM106.469 19.1492C106.331 19.0143 106.109 19.0172 105.974 19.1557C105.84 19.2942 105.842 19.5157 105.981 19.6506L106.469 19.1492ZM108.644 22.4219C108.773 22.5657 108.994 22.5775 109.138 22.4483C109.282 22.3191 109.294 22.0978 109.164 21.954L108.644 22.4219ZM111.664 24.9336C111.545 24.7813 111.325 24.7543 111.172 24.8733C111.02 24.9924 110.993 25.2123 111.112 25.3646L111.664 24.9336ZM113.364 28.4696C113.472 28.6301 113.689 28.673 113.85 28.5653C114.011 28.4576 114.053 28.2402 113.946 28.0796L113.364 28.4696ZM115.988 31.3932C115.893 31.2247 115.679 31.165 115.511 31.2598C115.342 31.3546 115.283 31.568 115.377 31.7364L115.988 31.3932ZM117.114 35.1573C117.194 35.3334 117.402 35.4114 117.578 35.3316C117.754 35.2518 117.832 35.0444 117.752 34.8683L117.114 35.1573ZM119.187 38.4855C119.125 38.3025 118.926 38.2045 118.743 38.2666C118.56 38.3288 118.462 38.5276 118.524 38.7106L119.187 38.4855ZM119.552 42.3985C119.593 42.5874 119.779 42.7074 119.968 42.6665C120.157 42.6255 120.277 42.4392 120.236 42.2503L119.552 42.3985ZM120.813 46.1113C120.798 45.9187 120.629 45.7749 120.436 45.7903C120.244 45.8057 120.1 45.9743 120.115 46.167L120.813 46.1113ZM120.126 49.9751C120.111 50.1679 120.255 50.3363 120.447 50.3514C120.64 50.3665 120.809 50.2225 120.824 50.0298L120.126 49.9751ZM120.172 53.8943C120.221 53.7074 120.11 53.5158 119.923 53.4661C119.737 53.4165 119.545 53.5277 119.495 53.7145L120.172 53.8943ZM118.169 57.2615C118.083 57.4349 118.154 57.6448 118.328 57.7302C118.501 57.8156 118.711 57.7443 118.796 57.5709L118.169 57.2615ZM116.718 60.9002C116.837 60.7471 116.808 60.5273 116.655 60.4093C116.502 60.2912 116.282 60.3196 116.164 60.4727L116.718 60.9002ZM113.525 63.3699C113.388 63.506 113.387 63.7276 113.523 63.8649C113.659 64.0022 113.88 64.0031 114.018 63.8671L113.525 63.3699ZM111.02 66.645C111.166 66.5182 111.181 66.2971 111.055 66.1512C110.928 66.0053 110.707 65.9897 110.561 66.1165L111.02 66.645ZM107.427 68.6759C107.274 68.7937 107.245 69.0134 107.363 69.1667C107.48 69.32 107.7 69.3488 107.853 69.2311L107.427 68.6759ZM104.539 71.6238C104.699 71.5154 104.741 71.2978 104.632 71.1377C104.524 70.9777 104.306 70.9358 104.146 71.0442L104.539 71.6238ZM100.728 73.207C100.562 73.3051 100.506 73.5196 100.604 73.6862C100.702 73.8527 100.917 73.9082 101.084 73.8101L100.728 73.207ZM97.49 75.765C97.6629 75.6787 97.7332 75.4685 97.6469 75.2956C97.5606 75.1226 97.3504 75.0524 97.1774 75.1387L97.49 75.765ZM93.497 76.8008C93.3177 76.8731 93.231 77.0771 93.3034 77.2563C93.3757 77.4356 93.5797 77.5222 93.7589 77.4499L93.497 76.8008ZM89.8931 78.8097C90.0783 78.7544 90.1836 78.5594 90.1283 78.3742C90.073 78.189 89.878 78.0837 89.6928 78.139L89.8931 78.8097ZM85.7792 79.0801C85.589 79.1143 85.4625 79.2963 85.4968 79.4865C85.531 79.6768 85.713 79.8032 85.9033 79.769L85.7792 79.0801ZM81.8189 80.2296C82.012 80.2214 82.1619 80.0582 82.1538 79.8651C82.1456 79.672 81.9825 79.522 81.7893 79.5302L81.8189 80.2296ZM77.7884 79.3826C77.5965 79.3594 77.4221 79.4961 77.3989 79.688C77.3756 79.8799 77.5124 80.0543 77.7043 80.0775L77.7884 79.3826ZM73.6729 79.2102C73.8571 79.2685 74.0538 79.1663 74.1121 78.982C74.1704 78.7978 74.0683 78.6011 73.884 78.5428L73.6729 79.2102ZM70.2163 76.9727C70.0469 76.8796 69.8341 76.9414 69.741 77.1108C69.6479 77.2802 69.7097 77.493 69.8791 77.5862L70.2163 76.9727ZM66.4712 75.2661C66.6203 75.3892 66.8409 75.368 66.9639 75.2189C67.087 75.0698 67.0658 74.8492 66.9167 74.7262L66.4712 75.2661ZM64.0576 71.9315C63.9305 71.7859 63.7094 71.7708 63.5637 71.8979C63.4181 72.0249 63.403 72.246 63.5301 72.3917L64.0576 71.9315ZM61.0504 69.111C61.1566 69.2725 61.3737 69.3173 61.5352 69.2111C61.6967 69.1049 61.7415 68.8879 61.6353 68.7264L61.0504 69.111ZM59.7159 65.3079C59.6385 65.1307 59.4322 65.0498 59.2551 65.1272C59.0779 65.2045 58.997 65.4108 59.0744 65.588L59.7159 65.3079ZM57.9352 61.8151C57.9686 62.0055 58.1499 62.1328 58.3403 62.0995C58.5307 62.0662 58.6581 61.8848 58.6247 61.6944L57.9352 61.8151ZM58.4098 57.9252C58.4204 57.7322 58.2725 57.5671 58.0795 57.5565C57.8865 57.5459 57.7214 57.6938 57.7108 57.8868L58.4098 57.9252ZM58.3137 54.0093C58.2665 54.1968 58.3802 54.387 58.5676 54.4342C58.7551 54.4814 58.9453 54.3677 58.9925 54.1803L58.3137 54.0093ZM60.2115 50.5675C60.2863 50.3892 60.2025 50.1841 60.0243 50.1093C59.846 50.0344 59.6409 50.1183 59.5661 50.2965L60.2115 50.5675ZM61.2933 46.7932C61.1983 46.9616 61.2578 47.175 61.4261 47.27C61.5945 47.365 61.808 47.3056 61.9029 47.1372L61.2933 46.7932ZM63.9405 43.8932C64.0503 43.7342 64.0104 43.5162 63.8514 43.4063C63.6923 43.2965 63.4743 43.3364 63.3645 43.4955L63.9405 43.8932ZM65.6937 40.3785C65.5727 40.5292 65.5967 40.7495 65.7474 40.8706C65.8982 40.9916 66.1185 40.9675 66.2395 40.8168L65.6937 40.3785ZM68.7453 37.8847C68.875 37.7414 68.8641 37.5201 68.7208 37.3903C68.5775 37.2606 68.3561 37.2716 68.2264 37.4149L68.7453 37.8847ZM70.8981 34.6099C70.7615 34.7467 70.7616 34.9683 70.8984 35.1049C71.0351 35.2415 71.2567 35.2414 71.3933 35.1047L70.8981 34.6099ZM74.1722 32.4406C74.3144 32.3097 74.3236 32.0883 74.1927 31.946C74.0618 31.8038 73.8404 31.7946 73.6982 31.9255L74.1722 32.4406ZM76.6024 29.3512C76.4555 29.4769 76.4382 29.6978 76.5638 29.8447C76.6895 29.9916 76.9104 30.0089 77.0573 29.8833L76.6024 29.3512ZM80.0305 27.4242C80.1813 27.3034 80.2057 27.0831 80.0849 26.9322C79.964 26.7813 79.7438 26.757 79.5929 26.8778L80.0305 27.4242ZM82.6561 24.497C82.5018 24.6135 82.4712 24.833 82.5876 24.9872C82.7041 25.1415 82.9236 25.1722 83.0778 25.0557L82.6561 24.497ZM86.189 22.7711C86.3462 22.6587 86.3826 22.4401 86.2702 22.2828C86.1578 22.1256 85.9392 22.0892 85.7819 22.2016L86.189 22.7711ZM88.9623 19.9855C88.8025 20.0942 88.7609 20.3119 88.8696 20.4717C88.9782 20.6316 89.1959 20.6732 89.3558 20.5645L88.9623 19.9855ZM92.572 18.4309C92.7342 18.3258 92.7805 18.1091 92.6754 17.9469C92.5703 17.7846 92.3536 17.7383 92.1914 17.8434L92.572 18.4309ZM95.4641 15.7709C95.2998 15.8727 95.249 16.0884 95.3508 16.2528C95.4525 16.4171 95.6682 16.4679 95.8326 16.3661L95.4641 15.7709ZM99.1336 14.3665C99.2999 14.2679 99.3548 14.0532 99.2562 13.8869C99.1577 13.7207 98.943 13.6658 98.7767 13.7643L99.1336 14.3665ZM102.126 11.8206C101.958 11.9161 101.899 12.1297 101.995 12.2978C102.09 12.4659 102.304 12.5247 102.472 12.4292L102.126 11.8206ZM105.844 10.5518C106.014 10.4592 106.077 10.2466 105.984 10.0769C105.892 9.90721 105.679 9.84466 105.509 9.9372L105.844 10.5518ZM108.924 8.11225C108.753 8.20192 108.687 8.41343 108.777 8.58467C108.866 8.75591 109.078 8.82204 109.249 8.73237L108.924 8.11225ZM112.684 6.96956C112.857 6.8827 112.926 6.6723 112.839 6.49962C112.753 6.32693 112.542 6.25735 112.37 6.34421L112.684 6.96956ZM115.843 4.63197C115.669 4.71606 115.596 4.92532 115.68 5.09937C115.764 5.27342 115.973 5.34636 116.147 5.26227L115.843 4.63197ZM119.638 3.60981C119.813 3.52847 119.889 3.32037 119.808 3.14502C119.726 2.96967 119.518 2.89347 119.343 2.97481L119.638 3.60981ZM122.869 1.37235C122.692 1.45097 122.613 1.65786 122.691 1.83444C122.77 2.01103 122.977 2.09045 123.153 2.01183L122.869 1.37235ZM1.20613 56.3815C1.4971 55.9889 1.87611 55.4589 2.3374 54.8125L1.76763 54.4059C1.30521 55.0538 0.930184 55.5782 0.643725 55.9648L1.20613 56.3815ZM4.58454 51.6877C5.27092 50.7457 6.03944 49.7048 6.88653 48.5834L6.32797 48.1614C5.47805 49.2866 4.7071 50.3308 4.01878 51.2755L4.58454 51.6877ZM9.23872 45.53C10.0001 44.5612 10.807 43.5534 11.6579 42.515L11.1165 42.0714C10.2624 43.1136 9.45242 44.1252 8.68835 45.0974L9.23872 45.53ZM14.1335 39.5587C14.95 38.6049 15.799 37.6338 16.6794 36.6513L16.158 36.1841C15.2739 37.1708 14.4214 38.1459 13.6018 39.1035L14.1335 39.5587ZM19.2837 33.8134C20.1512 32.8906 21.0446 31.9629 21.9629 31.0348L21.4653 30.5425C20.5426 31.475 19.6451 32.407 18.7737 33.3339L19.2837 33.8134ZM24.7152 28.3271C25.634 27.4477 26.5745 26.572 27.536 25.704L27.0669 25.1844C26.1002 26.0572 25.1547 26.9375 24.2312 27.8214L24.7152 28.3271ZM30.4367 23.1657C31.4119 22.3393 32.4062 21.5238 33.4188 20.7228L32.9846 20.1738C31.9655 20.9798 30.965 21.8004 29.9841 22.6317L30.4367 23.1657ZM36.4846 18.3869C37.5179 17.6295 38.5684 16.8898 39.6353 16.1711L39.2442 15.5906C38.1693 16.3146 37.1113 17.0597 36.0708 17.8223L36.4846 18.3869ZM42.8738 14.0888C43.9679 13.4187 45.0775 12.7731 46.2021 12.1553L45.865 11.5418C44.7304 12.1651 43.6113 12.8163 42.5082 13.4918L42.8738 14.0888ZM49.62 10.3885C50.7746 9.82919 51.9435 9.30121 53.1258 8.80792L52.8563 8.16189C51.6614 8.6604 50.4807 9.19376 49.3148 9.75849L49.62 10.3885ZM56.7159 7.43444C57.9258 7.01362 59.1485 6.63099 60.3834 6.28994L60.1971 5.6152C58.947 5.96045 57.7097 6.34765 56.486 6.77329L56.7159 7.43444ZM64.1178 5.39627C64.7449 5.26939 65.375 5.15369 66.0078 5.04958L65.8941 4.35886C65.2528 4.46438 64.6144 4.58162 63.979 4.71016L64.1178 5.39627ZM66.0078 5.04958C66.641 4.94541 67.2744 4.85845 67.9077 4.78822L67.8306 4.09248C67.1852 4.16405 66.5395 4.25268 65.8941 4.35886L66.0078 5.04958ZM71.7257 4.56368C73.0047 4.55391 74.2804 4.60884 75.5498 4.72457L75.6133 4.02746C74.3216 3.9097 73.0229 3.85374 71.7204 3.8637L71.7257 4.56368ZM79.3435 5.25158C80.598 5.48532 81.8431 5.77598 83.076 6.11964L83.264 5.44534C82.012 5.09637 80.7469 4.80102 79.4717 4.56343L79.3435 5.25158ZM86.724 7.30175C87.9218 7.74441 89.1044 8.2355 90.2687 8.77114L90.5613 8.13521C89.381 7.59225 88.1819 7.09423 86.9667 6.64515L86.724 7.30175ZM93.694 10.5023C94.8144 11.1204 95.9138 11.7788 96.989 12.4737L97.3689 11.8857C96.2803 11.1823 95.1671 10.5155 94.0321 9.8894L93.694 10.5023ZM100.143 14.666C101.171 15.4333 102.173 16.2335 103.144 17.0626L103.598 16.5303C102.616 15.6913 101.602 14.8815 100.561 14.1049L100.143 14.666ZM105.981 19.6506C106.904 20.55 107.793 21.4752 108.644 22.4219L109.164 21.954C108.303 20.9957 107.404 20.0594 106.469 19.1492L105.981 19.6506ZM111.112 25.3646C111.908 26.3828 112.66 27.4193 113.364 28.4696L113.946 28.0796C113.231 27.015 112.47 25.9648 111.664 24.9336L111.112 25.3646ZM115.377 31.7364C116.014 32.8687 116.595 34.0108 117.114 35.1573L117.752 34.8683C117.224 33.7026 116.634 32.5424 115.988 31.3932L115.377 31.7364ZM118.524 38.7106C118.943 39.9437 119.287 41.1752 119.552 42.3985L120.236 42.2503C119.965 40.9995 119.614 39.7423 119.187 38.4855L118.524 38.7106ZM120.115 46.167C120.218 47.4568 120.224 48.7288 120.126 49.9751L120.824 50.0298C120.924 48.7445 120.919 47.4355 120.813 46.1113L120.115 46.167ZM119.495 53.7145C119.171 54.935 118.731 56.1202 118.169 57.2615L118.796 57.5709C119.38 56.3869 119.836 55.1581 120.172 53.8943L119.495 53.7145ZM116.164 60.4727C115.782 60.9689 115.37 61.4537 114.928 61.9261L115.44 62.4041C115.896 61.9157 116.322 61.4141 116.718 60.9002L116.164 60.4727ZM114.928 61.9261C114.484 62.4017 114.015 62.8838 113.525 63.3699L114.018 63.8671C114.514 63.3749 114.989 62.8864 115.44 62.4041L114.928 61.9261ZM110.561 66.1165C109.571 66.9763 108.523 67.8339 107.427 68.6759L107.853 69.2311C108.961 68.3804 110.019 67.514 111.02 66.645L110.561 66.1165ZM104.146 71.0442C103.04 71.7935 101.898 72.5181 100.728 73.207L101.084 73.8101C102.266 73.1134 103.421 72.381 104.539 71.6238L104.146 71.0442ZM97.1774 75.1387C95.9684 75.742 94.7393 76.2995 93.497 76.8008L93.7589 77.4499C95.0196 76.9412 96.2656 76.376 97.49 75.765L97.1774 75.1387ZM89.6928 78.139C88.3916 78.5276 87.0845 78.8451 85.7792 79.0801L85.9033 79.769C87.2364 79.529 88.569 79.2052 89.8931 78.8097L89.6928 78.139ZM81.7893 79.5302C80.4421 79.5871 79.1057 79.542 77.7884 79.3826L77.7043 80.0775C79.062 80.2419 80.4366 80.2879 81.8189 80.2296L81.7893 79.5302ZM73.884 78.5428C72.6331 78.147 71.4079 77.6278 70.2163 76.9727L69.8791 77.5862C71.1116 78.2637 72.3791 78.8008 73.6729 79.2102L73.884 78.5428ZM66.9167 74.7262C65.9308 73.9128 64.9758 72.9842 64.0576 71.9315L63.5301 72.3917C64.4724 73.4719 65.4547 74.4274 66.4712 75.2661L66.9167 74.7262ZM61.6353 68.7264C61.2732 68.1757 60.9187 67.6008 60.5724 67.0009L59.9662 67.3509C60.3191 67.9622 60.6806 68.5486 61.0504 69.111L61.6353 68.7264ZM60.5724 67.0009C60.25 66.4426 59.9649 65.8781 59.7159 65.3079L59.0744 65.588C59.334 66.1826 59.631 66.7704 59.9662 67.3509L60.5724 67.0009ZM58.6247 61.6944C58.4087 60.461 58.3396 59.2036 58.4098 57.9252L57.7108 57.8868C57.6379 59.2158 57.7096 60.5267 57.9352 61.8151L58.6247 61.6944ZM58.9925 54.1803C59.2923 52.9899 59.7004 51.7847 60.2115 50.5675L59.5661 50.2965C59.0427 51.543 58.6229 52.7816 58.3137 54.0093L58.9925 54.1803ZM61.9029 47.1372C62.5097 46.0618 63.1902 44.9799 63.9405 43.8932L63.3645 43.4955C62.6032 44.598 61.9114 45.6979 61.2933 46.7932L61.9029 47.1372ZM66.2395 40.8168C67.0232 39.841 67.8594 38.8632 68.7453 37.8847L68.2264 37.4149C67.3318 38.4029 66.4866 39.3912 65.6937 40.3785L66.2395 40.8168ZM71.3933 35.1047C72.2816 34.2157 73.2085 33.3273 74.1722 32.4406L73.6982 31.9255C72.7277 32.8185 71.7937 33.7136 70.8981 34.6099L71.3933 35.1047ZM77.0573 29.8833C78.019 29.061 79.0106 28.241 80.0305 27.4242L79.5929 26.8778C78.5674 27.6991 77.57 28.5238 76.6024 29.3512L77.0573 29.8833ZM83.0778 25.0557C84.0917 24.2904 85.1293 23.5286 86.189 22.7711L85.7819 22.2016C84.7174 22.9626 83.675 23.7279 82.6561 24.497L83.0778 25.0557ZM89.3558 20.5645C90.4093 19.8486 91.4818 19.1372 92.572 18.4309L92.1914 17.8434C91.097 18.5524 90.0203 19.2667 88.9623 19.9855L89.3558 20.5645ZM95.8326 16.3661C96.9181 15.694 98.0188 15.0273 99.1336 14.3665L98.7767 13.7643C97.6581 14.4274 96.5535 15.0965 95.4641 15.7709L95.8326 16.3661ZM102.472 12.4292C103.584 11.7971 104.709 11.1711 105.844 10.5518L105.509 9.9372C104.37 10.5585 103.242 11.1864 102.126 11.8206L102.472 12.4292ZM109.249 8.73237C110.385 8.13776 111.53 7.55 112.684 6.96956L112.37 6.34421C111.212 6.92634 110.063 7.51585 108.924 8.11225L109.249 8.73237ZM116.147 5.26227C117.304 4.70369 118.467 4.15272 119.638 3.60981L119.343 2.97481C118.169 3.51925 117.002 4.07179 115.843 4.63197L116.147 5.26227ZM123.153 2.01183C123.741 1.75005 124.331 1.49038 124.921 1.23286L124.642 0.5912C124.049 0.849429 123.458 1.10983 122.869 1.37235L123.153 2.01183Z" fill="white"/>
</svg>
