<svg width="114" height="97" viewBox="0 0 114 97" fill="none" xmlns="http://www.w3.org/2000/svg">
<path d="M2.31434 35.4532L2.63811 35.5862L2.31434 35.4532ZM68.7106 71.7461L68.5351 71.4432L68.7106 71.7461ZM111.591 0.407988C111.497 0.239265 111.284 0.178953 111.115 0.273279L108.366 1.81039C108.197 1.90472 108.137 2.11796 108.231 2.28669C108.325 2.45541 108.538 2.51572 108.707 2.42139L111.151 1.05507L112.517 3.49907C112.612 3.6678 112.825 3.72811 112.994 3.63378C113.162 3.53946 113.223 3.32622 113.128 3.15749L111.591 0.407988ZM110.447 2.35153C110.398 2.53845 110.509 2.72991 110.696 2.77919C110.883 2.82846 111.075 2.71688 111.124 2.52996L110.447 2.35153ZM110.128 6.25484C110.179 6.06842 110.069 5.87586 109.883 5.82476C109.696 5.77366 109.504 5.88336 109.453 6.06978L110.128 6.25484ZM108.4 9.78831C108.345 9.97382 108.452 10.1682 108.637 10.2225C108.823 10.2769 109.017 10.1705 109.071 9.98499L108.4 9.78831ZM107.95 13.6865C108.008 13.502 107.905 13.3056 107.72 13.2478C107.536 13.1899 107.34 13.2925 107.282 13.477L107.95 13.6865ZM106.088 17.1534C106.026 17.3366 106.125 17.5351 106.308 17.5967C106.491 17.6583 106.689 17.5597 106.751 17.3765L106.088 17.1534ZM105.478 21.0324C105.544 20.8505 105.45 20.65 105.268 20.5844C105.086 20.5189 104.885 20.6132 104.82 20.7951L105.478 21.0324ZM103.469 24.4158C103.399 24.5961 103.489 24.7988 103.669 24.8684C103.85 24.938 104.052 24.8483 104.122 24.668L103.469 24.4158ZM102.686 28.26C102.76 28.0814 102.675 27.8767 102.496 27.8027C102.318 27.7288 102.113 27.8137 102.039 27.9923L102.686 28.26ZM100.518 31.5398C100.439 31.7164 100.519 31.9233 100.696 32.0017C100.872 32.0802 101.079 32.0006 101.158 31.8239L100.518 31.5398ZM99.5351 35.3484C99.6184 35.1739 99.5444 34.965 99.37 34.8818C99.1955 34.7985 98.9866 34.8725 98.9034 35.0469L99.5351 35.3484ZM97.1947 38.4992C97.1064 38.6712 97.1743 38.8821 97.3462 38.9704C97.5182 39.0587 97.7292 38.9909 97.8174 38.8189L97.1947 38.4992ZM95.9938 42.2396C96.0875 42.0704 96.0263 41.8575 95.8572 41.7638C95.6881 41.6702 95.4751 41.7314 95.3814 41.9005L95.9938 42.2396ZM93.4581 45.2414C93.3588 45.4072 93.4127 45.6222 93.5786 45.7215C93.7444 45.8208 93.9593 45.7668 94.0586 45.601L93.4581 45.2414ZM92.0057 48.8933C92.111 48.7312 92.0649 48.5144 91.9028 48.4091C91.7407 48.3038 91.524 48.3498 91.4187 48.5119L92.0057 48.8933ZM89.2573 51.7001C89.1456 51.8579 89.183 52.0764 89.3408 52.188C89.4986 52.2997 89.717 52.2623 89.8287 52.1045L89.2573 51.7001ZM87.5199 55.2235C87.6383 55.0707 87.6104 54.8508 87.4575 54.7324C87.3047 54.614 87.0849 54.6419 86.9665 54.7947L87.5199 55.2235ZM84.539 57.782C84.4136 57.929 84.4311 58.1499 84.5782 58.2754C84.7252 58.4008 84.9461 58.3833 85.0716 58.2363L84.539 57.782ZM82.4773 61.126C82.6101 60.9856 82.6039 60.7641 82.4635 60.6312C82.3231 60.4984 82.1016 60.5046 81.9687 60.645L82.4773 61.126ZM79.2502 63.365C79.1097 63.4978 79.1035 63.7194 79.2363 63.8598C79.3691 64.0003 79.5907 64.0065 79.7311 63.8737L79.2502 63.365ZM76.8288 66.4581C76.977 66.334 76.9966 66.1133 76.8725 65.965C76.7485 65.8168 76.5277 65.7972 76.3795 65.9213L76.8288 66.4581ZM73.3553 68.2908C73.1993 68.4049 73.1653 68.6239 73.2794 68.7799C73.3936 68.936 73.6126 68.9699 73.7686 68.8558L73.3553 68.2908ZM70.5526 71.0419C70.7162 70.9389 70.7654 70.7229 70.6624 70.5593C70.5594 70.3957 70.3433 70.3465 70.1798 70.4495L70.5526 71.0419ZM66.851 72.3607C66.6789 72.4487 66.6107 72.6596 66.6986 72.8317C66.7866 73.0038 66.9975 73.072 67.1696 72.984L66.851 72.3607ZM63.6131 74.576C63.7934 74.5061 63.8829 74.3034 63.813 74.1231C63.7431 73.9429 63.5404 73.8534 63.3602 73.9233L63.6131 74.576ZM59.7271 75.1275C59.5409 75.1793 59.4319 75.3723 59.4837 75.5585C59.5354 75.7448 59.7284 75.8537 59.9146 75.802L59.7271 75.1275ZM56.1166 76.6676C56.3069 76.6334 56.4334 76.4515 56.3992 76.2612C56.365 76.071 56.183 75.9445 55.9927 75.9787L56.1166 76.6676ZM52.1948 76.4892C52.0023 76.5067 51.8603 76.6768 51.8778 76.8694C51.8952 77.0619 52.0654 77.2038 52.2579 77.1864L52.1948 76.4892ZM48.3702 77.3761C48.5635 77.3746 48.7189 77.2166 48.7174 77.0233C48.7158 76.83 48.5578 76.6746 48.3645 76.6761L48.3702 77.3761ZM44.5292 76.5578C44.3364 76.5445 44.1692 76.69 44.1559 76.8828C44.1426 77.0757 44.2881 77.2428 44.4809 77.2561L44.5292 76.5578ZM40.6137 76.8453C40.8051 76.8727 40.9824 76.7397 41.0097 76.5484C41.0371 76.357 40.9041 76.1797 40.7128 76.1523L40.6137 76.8453ZM36.9331 75.4761C36.7441 75.4356 36.558 75.5558 36.5174 75.7448C36.4768 75.9338 36.5971 76.1199 36.7861 76.1605L36.9331 75.4761ZM33.0147 75.2162C33.2006 75.2694 33.3943 75.1619 33.4475 74.976C33.5007 74.7902 33.3932 74.5964 33.2074 74.5432L33.0147 75.2162ZM29.552 73.3652C29.3701 73.2999 29.1696 73.3944 29.1043 73.5763C29.039 73.7583 29.1336 73.9587 29.3155 74.024L29.552 73.3652ZM25.7027 72.5921C25.88 72.6692 26.0862 72.588 26.1632 72.4107C26.2403 72.2334 26.1591 72.0272 25.9818 71.9502L25.7027 72.5921ZM22.5099 70.3019C22.3381 70.2133 22.127 70.2806 22.0383 70.4524C21.9497 70.6241 22.017 70.8352 22.1888 70.9239L22.5099 70.3019ZM18.796 69.023C18.9612 69.1233 19.1765 69.0706 19.2767 68.9053C19.377 68.7401 19.3243 68.5248 19.159 68.4246L18.796 69.023ZM15.9529 66.3188C15.7954 66.2069 15.5769 66.2438 15.4649 66.4014C15.3529 66.559 15.3899 66.7775 15.5475 66.8894L15.9529 66.3188ZM12.4642 64.5141C12.6125 64.6381 12.8332 64.6183 12.9572 64.47C13.0812 64.3217 13.0614 64.101 12.9131 63.977L12.4642 64.5141ZM10.0768 61.3933C9.93985 61.257 9.71824 61.2575 9.58187 61.3945C9.44551 61.5315 9.44602 61.7531 9.58302 61.8895L10.0768 61.3933ZM6.95996 59.0151C7.08293 59.1643 7.30352 59.1855 7.45266 59.0625C7.6018 58.9395 7.62301 58.7189 7.50004 58.5698L6.95996 59.0151ZM5.23216 55.4853C5.12696 55.3231 4.91021 55.277 4.74805 55.3822C4.58588 55.4874 4.5397 55.7041 4.6449 55.8663L5.23216 55.4853ZM2.73764 52.46C2.82028 52.6347 3.02893 52.7094 3.20367 52.6267C3.37842 52.5441 3.45309 52.3355 3.37045 52.1607L2.73764 52.46ZM2.01135 48.6034C1.95719 48.4178 1.76287 48.3113 1.57731 48.3654C1.39175 48.4196 1.28522 48.6139 1.33937 48.7994L2.01135 48.6034ZM0.580066 44.9547C0.599834 45.1469 0.771739 45.2868 0.964027 45.267C1.15631 45.2473 1.29616 45.0754 1.2764 44.8831L0.580066 44.9547ZM1.26044 41.0961C1.2789 40.9037 1.13789 40.7327 0.945474 40.7143C0.753056 40.6958 0.582099 40.8368 0.563633 41.0292L1.26044 41.0961ZM1.3274 37.1798C1.27126 37.3647 1.37569 37.5602 1.56065 37.6163C1.74562 37.6725 1.94108 37.5681 1.99723 37.3831L1.3274 37.1798ZM3.4389 33.7388C3.51906 33.5629 3.44145 33.3553 3.26556 33.2752C3.08966 33.195 2.88209 33.2726 2.80192 33.4485L3.4389 33.7388ZM4.6213 29.7887C4.52973 29.959 4.5935 30.1712 4.76374 30.2628C4.93397 30.3543 5.14621 30.2906 5.23778 30.1203L4.6213 29.7887ZM7.26155 26.6167C7.36319 26.4522 7.3123 26.2366 7.14787 26.1349C6.98346 26.0333 6.76777 26.0842 6.66613 26.2486L7.26155 26.6167ZM8.91816 22.8368C8.80688 22.9949 8.8448 23.2132 9.00286 23.3245C9.16092 23.4357 9.37926 23.3978 9.49054 23.2398L8.91816 22.8368ZM11.9207 20.0064C12.0417 19.8556 12.0176 19.6353 11.8669 19.5143C11.7161 19.3933 11.4958 19.4174 11.3748 19.5682L11.9207 20.0064ZM14.0428 16.467C13.9116 16.609 13.9204 16.8304 14.0624 16.9616C14.2044 17.0927 14.4258 17.084 14.557 16.942L14.0428 16.467ZM17.4099 14.0838C17.5519 13.9527 17.5607 13.7313 17.4296 13.5893C17.2984 13.4472 17.077 13.4385 16.935 13.5696L17.4099 14.0838ZM20.0683 10.9284C19.9147 11.0458 19.8853 11.2654 20.0027 11.419C20.12 11.5727 20.3397 11.6021 20.4933 11.4847L20.0683 10.9284ZM23.8196 9.21826C23.9854 9.11884 24.0392 8.90386 23.9398 8.73809C23.8404 8.57232 23.6254 8.51853 23.4596 8.61795L23.8196 9.21826ZM27.1159 6.74028C26.9382 6.81632 26.8558 7.02203 26.9318 7.19974C27.0079 7.37746 27.2136 7.45988 27.3913 7.38384L27.1159 6.74028ZM31.1851 6.10447C31.3728 6.05821 31.4874 5.86856 31.4411 5.68088C31.3949 5.4932 31.2052 5.37855 31.0176 5.42481L31.1851 6.10447ZM35.0948 4.80775C34.9018 4.81851 34.754 4.98369 34.7648 5.17668C34.7756 5.36968 34.9407 5.51742 35.1337 5.50667L35.0948 4.80775ZM39.1198 5.67554C39.3112 5.70261 39.4883 5.5694 39.5153 5.378C39.5424 5.18661 39.4092 5.00951 39.2178 4.98244L39.1198 5.67554ZM43.2266 5.94471C43.0436 5.88248 42.8448 5.98041 42.7825 6.16342C42.7203 6.34642 42.8182 6.54523 43.0013 6.60745L43.2266 5.94471ZM46.665 8.20797C46.8355 8.29917 47.0476 8.23494 47.1388 8.0645C47.23 7.89407 47.1657 7.68197 46.9953 7.59077L46.665 8.20797ZM50.4763 9.78029C50.3198 9.66688 50.101 9.70185 49.9876 9.85838C49.8742 10.0149 49.9091 10.2338 50.0657 10.3472L50.4763 9.78029ZM53.0717 12.864C53.2068 13.0022 53.4284 13.0048 53.5666 12.8697C53.7049 12.7346 53.7074 12.513 53.5723 12.3748L53.0717 12.864ZM55.9742 15.4994C55.8756 15.3331 55.6608 15.2783 55.4946 15.377C55.3284 15.4756 55.2735 15.6903 55.3722 15.8566L55.9742 15.4994ZM56.9085 19.3052C56.967 19.4894 57.1637 19.5914 57.348 19.5329C57.5322 19.4744 57.6342 19.2777 57.5757 19.0934L56.9085 19.3052ZM58.3856 22.933C58.3633 22.741 58.1896 22.6034 57.9976 22.6256C57.8056 22.6479 57.668 22.8216 57.6902 23.0136L58.3856 22.933ZM57.8302 26.824C57.8234 27.0172 57.9744 27.1793 58.1676 27.1861C58.3608 27.193 58.5229 27.0419 58.5297 26.8487L57.8302 26.824ZM58.1556 30.7367C58.1848 30.5456 58.0535 30.367 57.8625 30.3378C57.6714 30.3087 57.4928 30.4399 57.4636 30.631L58.1556 30.7367ZM56.7074 34.3864C56.6611 34.5741 56.7756 34.7638 56.9633 34.8101C57.1509 34.8565 57.3406 34.742 57.387 34.5543L56.7074 34.3864ZM56.3131 38.2943C56.3729 38.1105 56.2723 37.913 56.0885 37.8532C55.9047 37.7934 55.7072 37.8939 55.6474 38.0777L56.3131 38.2943ZM54.3428 41.7074C54.2723 41.8874 54.361 42.0905 54.5409 42.161C54.7209 42.2316 54.924 42.1429 54.9945 41.9629L54.3428 41.7074ZM53.4898 45.5325C53.5691 45.3562 53.4905 45.149 53.3142 45.0697C53.1379 44.9904 52.9307 45.069 52.8514 45.2452L53.4898 45.5325ZM51.1966 48.721C51.11 48.8938 51.1798 49.1041 51.3526 49.1908C51.5254 49.2774 51.7357 49.2076 51.8223 49.0348L51.1966 48.721ZM50.0184 52.4709C50.1113 52.3014 50.0492 52.0887 49.8797 51.9958C49.7101 51.9029 49.4974 51.9651 49.4045 52.1346L50.0184 52.4709ZM47.4954 55.4874C47.3971 55.6539 47.4523 55.8685 47.6188 55.9668C47.7852 56.0651 47.9998 56.0098 48.0981 55.8434L47.4954 55.4874ZM46.077 59.1549C46.18 58.9914 46.1309 58.7753 45.9674 58.6723C45.8038 58.5692 45.5877 58.6183 45.4847 58.7819L46.077 59.1549ZM43.3847 62.0205C43.2774 62.1813 43.3209 62.3986 43.4817 62.5059C43.6425 62.6131 43.8599 62.5696 43.9671 62.4088L43.3847 62.0205ZM41.778 65.6079C41.889 65.4497 41.8507 65.2314 41.6925 65.1204C41.5343 65.0093 41.316 65.0476 41.205 65.2059L41.778 65.6079ZM38.9532 68.3405C38.8387 68.4962 38.8722 68.7153 39.028 68.8297C39.1837 68.9442 39.4028 68.9108 39.5173 68.755L38.9532 68.3405ZM37.191 71.8525C37.3086 71.6991 37.2797 71.4794 37.1263 71.3618C36.9729 71.2441 36.7532 71.2731 36.6355 71.4265L37.191 71.8525ZM34.257 74.4659C34.1364 74.6169 34.1611 74.8372 34.3122 74.9577C34.4633 75.0783 34.6835 75.0536 34.8041 74.9025L34.257 74.4659ZM32.3606 77.9067C32.484 77.7579 32.4633 77.5372 32.3144 77.4139C32.1656 77.2906 31.9449 77.3113 31.8216 77.4601L32.3606 77.9067ZM29.3328 80.4106C29.2069 80.5572 29.2237 80.7782 29.3704 80.9041C29.5171 81.03 29.738 81.0132 29.8639 80.8665L29.3328 80.4106ZM27.3168 83.783C27.4452 83.6385 27.4321 83.4173 27.2875 83.2889C27.143 83.1605 26.9218 83.1736 26.7934 83.3181L27.3168 83.783ZM24.2058 86.1835C24.0751 86.3259 24.0846 86.5473 24.227 86.678C24.3694 86.8087 24.5908 86.7992 24.7215 86.6568L24.2058 86.1835ZM22.08 89.4885C22.213 89.3482 22.207 89.1267 22.0667 88.9937C21.9265 88.8607 21.7049 88.8667 21.572 89.007L22.08 89.4885ZM18.8935 91.7887C18.7583 91.9269 18.7608 92.1485 18.899 92.2837C19.0372 92.4188 19.2588 92.4164 19.3939 92.2782L18.8935 91.7887ZM16.6646 95.0257C16.8019 94.8897 16.8028 94.668 16.6668 94.5308C16.5307 94.3935 16.3091 94.3925 16.1718 94.5286L16.6646 95.0257ZM110.949 0.483525C110.816 0.953783 110.649 1.58371 110.447 2.35153L111.124 2.52996C111.327 1.76024 111.492 1.137 111.623 0.674033L110.949 0.483525ZM109.453 6.06978C109.144 7.1939 108.795 8.43954 108.4 9.78831L109.071 9.98499C109.468 8.63171 109.819 7.38212 110.128 6.25484L109.453 6.06978ZM107.282 13.477C106.913 14.6526 106.515 15.8809 106.088 17.1534L106.751 17.3765C107.181 16.0992 107.58 14.8663 107.95 13.6865L107.282 13.477ZM104.82 20.7951C104.394 21.9762 103.944 23.1851 103.469 24.4158L104.122 24.668C104.599 23.4321 105.051 22.2182 105.478 21.0324L104.82 20.7951ZM102.039 27.9923C101.555 29.1625 101.048 30.3465 100.518 31.5398L101.158 31.8239C101.69 30.6249 102.199 29.4354 102.686 28.26L102.039 27.9923ZM98.9034 35.0469C98.3557 36.1948 97.7864 37.3468 97.1947 38.4992L97.8174 38.8189C98.4123 37.6602 98.9847 36.5021 99.5351 35.3484L98.9034 35.0469ZM95.3814 41.9005C94.7622 43.0188 94.1213 44.1336 93.4581 45.2414L94.0586 45.601C94.7261 44.4862 95.371 43.3645 95.9938 42.2396L95.3814 41.9005ZM91.4187 48.5119C90.7207 49.5863 90.0004 50.6502 89.2573 51.7001L89.8287 52.1045C90.5774 51.0467 91.3028 49.9751 92.0057 48.8933L91.4187 48.5119ZM86.9665 54.7947C86.1808 55.8089 85.3718 56.8058 84.539 57.782L85.0716 58.2363C85.9118 57.2514 86.7277 56.246 87.5199 55.2235L86.9665 54.7947ZM81.9687 60.645C81.0871 61.577 80.1811 62.4849 79.2502 63.365L79.7311 63.8737C80.6719 62.9842 81.5871 62.0671 82.4773 61.126L81.9687 60.645ZM76.3795 65.9213C75.3972 66.7434 74.3893 67.5344 73.3553 68.2908L73.7686 68.8558C74.8153 68.0901 75.8352 67.2896 76.8288 66.4581L76.3795 65.9213ZM70.1798 70.4495C69.6382 70.7903 69.09 71.1217 68.5351 71.4432L68.8861 72.0489C69.4485 71.723 70.004 71.3872 70.5526 71.0419L70.1798 70.4495ZM68.5351 71.4432C67.9799 71.765 67.4184 72.0707 66.851 72.3607L67.1696 72.984C67.7478 72.6884 68.3202 72.3768 68.8861 72.0489L68.5351 71.4432ZM63.3602 73.9233C62.1676 74.3855 60.9552 74.7861 59.7271 75.1275L59.9146 75.802C61.1643 75.4545 62.3986 75.0467 63.6131 74.576L63.3602 73.9233ZM55.9927 75.9787C54.7368 76.2045 53.4694 76.3738 52.1948 76.4892L52.2579 77.1864C53.5522 77.0692 54.8399 76.8972 56.1166 76.6676L55.9927 75.9787ZM48.3645 76.6761C47.0876 76.6865 45.8078 76.6462 44.5292 76.5578L44.4809 77.2561C45.7769 77.3458 47.0748 77.3867 48.3702 77.3761L48.3645 76.6761ZM40.7128 76.1523C39.446 75.9713 38.1847 75.745 36.9331 75.4761L36.7861 76.1605C38.0533 76.4327 39.3305 76.6619 40.6137 76.8453L40.7128 76.1523ZM33.2074 74.5432C31.9735 74.19 30.7537 73.7965 29.552 73.3652L29.3155 74.024C30.5315 74.4605 31.766 74.8588 33.0147 75.2162L33.2074 74.5432ZM25.9818 71.9502C24.7997 71.4362 23.6409 70.8859 22.5099 70.3019L22.1888 70.9239C23.3336 71.515 24.5064 72.072 25.7027 72.5921L25.9818 71.9502ZM19.159 68.4246C18.0542 67.7543 16.9839 67.0514 15.9529 66.3188L15.5475 66.8894C16.5925 67.632 17.677 68.3442 18.796 69.023L19.159 68.4246ZM12.9131 63.977C11.9163 63.1438 10.969 62.2814 10.0768 61.3933L9.58302 61.8895C10.4902 62.7924 11.4525 63.6685 12.4642 64.5141L12.9131 63.977ZM7.50004 58.5698C6.67157 57.565 5.91335 56.5354 5.23216 55.4853L4.6449 55.8663C5.34142 56.94 6.11557 57.991 6.95996 59.0151L7.50004 58.5698ZM3.37045 52.1607C2.81731 50.991 2.36154 49.8034 2.01135 48.6034L1.33937 48.7994C1.70053 50.0371 2.16977 51.2591 2.73764 52.46L3.37045 52.1607ZM1.2764 44.8831C1.14727 43.6269 1.13888 42.3627 1.26044 41.0961L0.563633 41.0292C0.437524 42.3432 0.446349 43.6538 0.580066 44.9547L1.2764 44.8831ZM1.99723 37.3831C2.17923 36.7835 2.3925 36.1843 2.63811 35.5862L1.99058 35.3203C1.73665 35.9387 1.51591 36.5588 1.3274 37.1798L1.99723 37.3831ZM2.63811 35.5862C2.88543 34.9839 3.15257 34.3671 3.4389 33.7388L2.80192 33.4485C2.51206 34.0846 2.24138 34.7095 1.99058 35.3203L2.63811 35.5862ZM5.23778 30.1203C5.85892 28.9655 6.53468 27.7925 7.26155 26.6167L6.66613 26.2486C5.93185 27.4364 5.24906 28.6216 4.6213 29.7887L5.23778 30.1203ZM9.49054 23.2398C10.2599 22.147 11.0709 21.065 11.9207 20.0064L11.3748 19.5682C10.5154 20.6388 9.69559 21.7325 8.91816 22.8368L9.49054 23.2398ZM14.557 16.942C15.4738 15.9495 16.4258 14.9927 17.4099 14.0838L16.935 13.5696C15.9363 14.4919 14.9713 15.4619 14.0428 16.467L14.557 16.942ZM20.4933 11.4847C21.5724 10.6603 22.6822 9.90042 23.8196 9.21826L23.4596 8.61795C22.2979 9.31468 21.1665 10.0895 20.0683 10.9284L20.4933 11.4847ZM27.3913 7.38384C28.631 6.85338 29.8967 6.42204 31.1851 6.10447L31.0176 5.42481C29.6896 5.75213 28.3879 6.19603 27.1159 6.74028L27.3913 7.38384ZM35.1337 5.50667C36.4437 5.43365 37.7734 5.48512 39.1198 5.67554L39.2178 4.98244C37.8252 4.78547 36.4496 4.73224 35.0948 4.80775L35.1337 5.50667ZM43.0013 6.60745C44.2114 7.01888 45.4334 7.5489 46.665 8.20797L46.9953 7.59077C45.7314 6.91444 44.4743 6.36893 43.2266 5.94471L43.0013 6.60745ZM50.0657 10.3472C50.5994 10.7338 51.1345 11.1459 51.6709 11.5842L52.1138 11.0421C51.5673 10.5955 51.0214 10.1752 50.4763 9.78029L50.0657 10.3472ZM51.6709 11.5842C52.1702 11.9921 52.6368 12.4189 53.0717 12.864L53.5723 12.3748C53.1189 11.9107 52.6329 11.4662 52.1138 11.0421L51.6709 11.5842ZM55.3722 15.8566C56.0111 16.9334 56.5212 18.0848 56.9085 19.3052L57.5757 19.0934C57.1731 17.8248 56.6416 16.6243 55.9742 15.4994L55.3722 15.8566ZM57.6902 23.0136C57.8315 24.233 57.8769 25.5046 57.8302 26.824L58.5297 26.8487C58.5775 25.4976 58.5313 24.1906 58.3856 22.933L57.6902 23.0136ZM57.4636 30.631C57.2772 31.8516 57.0241 33.1044 56.7074 34.3864L57.387 34.5543C57.7083 33.2536 57.9657 31.9799 58.1556 30.7367L57.4636 30.631ZM55.6474 38.0777C55.2603 39.2679 54.8247 40.4785 54.3428 41.7074L54.9945 41.9629C55.4811 40.7221 55.9214 39.4984 56.3131 38.2943L55.6474 38.0777ZM52.8514 45.2452C52.3357 46.3913 51.7836 47.5504 51.1966 48.721L51.8223 49.0348C52.4135 47.8559 52.9699 46.6879 53.4898 45.5325L52.8514 45.2452ZM49.4045 52.1346C48.7965 53.2442 48.1597 54.3623 47.4954 55.4874L48.0981 55.8434C48.7661 54.7121 49.4067 53.5875 50.0184 52.4709L49.4045 52.1346ZM45.4847 58.7819C44.8077 59.8568 44.1073 60.9367 43.3847 62.0205L43.9671 62.4088C44.6929 61.3201 45.3966 60.2351 46.077 59.1549L45.4847 58.7819ZM41.205 65.2059C40.4734 66.2486 39.7224 67.2938 38.9532 68.3405L39.5173 68.755C40.2894 67.7043 41.0434 66.6549 41.778 65.6079L41.205 65.2059ZM36.6355 71.4265C35.8586 72.4395 35.0654 73.4529 34.257 74.4659L34.8041 74.9025C35.6153 73.8861 36.4112 72.8692 37.191 71.8525L36.6355 71.4265ZM31.8216 77.4601C31.0054 78.4452 30.1755 79.429 29.3328 80.4106L29.8639 80.8665C30.7093 79.8819 31.5418 78.895 32.3606 77.9067L31.8216 77.4601ZM26.7934 83.3181C25.9422 84.2765 25.0794 85.2319 24.2058 86.1835L24.7215 86.6568C25.5976 85.7024 26.463 84.7442 27.3168 83.783L26.7934 83.3181ZM21.572 89.007C20.6886 89.9389 19.7955 90.8664 18.8935 91.7887L19.3939 92.2782C20.2985 91.3533 21.1941 90.4231 22.08 89.4885L21.572 89.007ZM16.1718 94.5286C15.7147 94.9817 15.2555 95.4333 14.7944 95.8834L15.2833 96.3843C15.7457 95.933 16.2062 95.4801 16.6646 95.0257L16.1718 94.5286Z" fill="white"/>
</svg>
