<svg width="137" height="80" viewBox="0 0 137 80" fill="none" xmlns="http://www.w3.org/2000/svg">
<path d="M32.9777 74.3011L33.1194 73.981L32.9777 74.3011ZM55.7705 2.1476L55.8535 2.48762L55.7705 2.1476ZM136.099 23.9463C136.148 24.1333 136.036 24.3245 135.849 24.3732L132.8 25.1672C132.613 25.2159 132.422 25.1038 132.373 24.9167C132.325 24.7297 132.437 24.5385 132.624 24.4898L135.334 23.784L134.628 21.0744C134.579 20.8874 134.691 20.6962 134.878 20.6475C135.065 20.5988 135.256 20.7109 135.305 20.898L136.099 23.9463ZM133.928 23.3358C133.763 23.235 133.711 23.0196 133.812 22.8547C133.913 22.6897 134.128 22.6377 134.293 22.7385L133.928 23.3358ZM130.995 20.74C131.161 20.8391 131.216 21.054 131.116 21.2199C131.017 21.3859 130.802 21.44 130.636 21.3408L130.995 20.74ZM127.302 19.3862C127.135 19.2899 127.077 19.076 127.173 18.9084C127.27 18.7407 127.483 18.6829 127.651 18.7792L127.302 19.3862ZM124.279 16.8845C124.449 16.9776 124.51 17.1904 124.417 17.3598C124.324 17.5292 124.112 17.5911 123.942 17.4981L124.279 16.8845ZM120.535 15.6716C120.364 15.582 120.298 15.3705 120.387 15.1993C120.477 15.028 120.688 14.9617 120.86 15.0513L120.535 15.6716ZM117.411 13.294C117.584 13.3799 117.655 13.5899 117.569 13.763C117.483 13.9362 117.273 14.007 117.1 13.9211L117.411 13.294ZM113.618 12.2432C113.443 12.1612 113.368 11.9529 113.45 11.7778C113.532 11.6027 113.74 11.5272 113.915 11.6092L113.618 12.2432ZM110.392 10.0111C110.569 10.0888 110.65 10.2953 110.572 10.4723C110.494 10.6493 110.288 10.7298 110.111 10.6521L110.392 10.0111ZM106.557 9.14493C106.378 9.07176 106.292 8.8674 106.366 8.68849C106.439 8.50957 106.643 8.42386 106.822 8.49703L106.557 9.14493ZM103.211 7.07669C103.392 7.14497 103.484 7.34692 103.415 7.52776C103.347 7.7086 103.145 7.79985 102.964 7.73157L103.211 7.07669ZM99.3413 6.42296C99.1586 6.35998 99.0615 6.16077 99.1245 5.97802C99.1874 5.79527 99.3866 5.69818 99.5694 5.76117L99.3413 6.42296ZM95.8855 4.55499C96.0701 4.61221 96.1734 4.80828 96.1162 4.99291C96.0589 5.17755 95.8629 5.28083 95.6782 5.22361L95.8855 4.55499ZM91.9775 4.144C91.791 4.09306 91.6812 3.9006 91.7321 3.71413C91.7831 3.52767 91.9755 3.41781 92.162 3.46875L91.9775 4.144ZM88.4014 2.51399C88.5896 2.55807 88.7064 2.74637 88.6623 2.93458C88.6183 3.12279 88.43 3.23963 88.2417 3.19555L88.4014 2.51399ZM84.4749 2.39087C84.2851 2.35431 84.1609 2.1708 84.1974 1.98099C84.234 1.79118 84.4175 1.66695 84.6073 1.70351L84.4749 2.39087ZM80.7821 1.05093C80.9733 1.07925 81.1054 1.25721 81.077 1.44843C81.0487 1.63964 80.8708 1.77169 80.6795 1.74337L80.7821 1.05093ZM76.8598 1.26798C76.6675 1.2487 76.5272 1.07715 76.5465 0.884813C76.5658 0.692478 76.7373 0.552192 76.9297 0.571475L76.8598 1.26798ZM73.057 0.281924C73.2501 0.291316 73.399 0.455445 73.3896 0.648517C73.3802 0.841588 73.2161 0.990489 73.023 0.981097L73.057 0.281924ZM69.1782 0.900003C68.9849 0.901396 68.8271 0.745829 68.8257 0.552535C68.8243 0.359241 68.9799 0.201415 69.1732 0.200022L69.1782 0.900003ZM65.2896 0.344066C65.4825 0.330984 65.6494 0.47672 65.6625 0.669576C65.6756 0.862433 65.5299 1.02938 65.337 1.04246L65.2896 0.344066ZM61.5142 1.42592C61.3226 1.45155 61.1465 1.31702 61.1209 1.12543C61.0953 0.933833 61.2298 0.757736 61.4214 0.732102L61.5142 1.42592ZM57.5872 1.38067C57.7766 1.34173 57.9616 1.46364 58.0006 1.65298C58.0395 1.84231 57.9176 2.02737 57.7283 2.06632L57.5872 1.38067ZM54.0029 2.99133C53.8178 3.04698 53.6226 2.94203 53.567 2.75691C53.5113 2.5718 53.6163 2.37662 53.8014 2.32097L54.0029 2.99133ZM50.1328 3.63403C50.3112 3.55967 50.5162 3.64405 50.5905 3.82248C50.6649 4.0009 50.5805 4.20582 50.4021 4.28017L50.1328 3.63403ZM46.9466 5.92603C46.7763 6.01758 46.5641 5.95378 46.4725 5.78353C46.381 5.61329 46.4448 5.40106 46.615 5.30951L46.9466 5.92603ZM43.2749 7.31391C43.4359 7.2069 43.6531 7.25065 43.7601 7.41163C43.8671 7.57261 43.8234 7.78986 43.6624 7.89687L43.2749 7.31391ZM40.5681 10.1575C40.4171 10.2782 40.1969 10.2537 40.0762 10.1027C39.9555 9.95166 39.9801 9.73142 40.1311 9.61073L40.5681 10.1575ZM37.1941 12.165C37.3347 12.0323 37.5562 12.0387 37.6889 12.1793C37.8216 12.3199 37.8151 12.5414 37.6746 12.6741L37.1941 12.165ZM34.9887 15.4145C34.8587 15.5576 34.6374 15.5683 34.4943 15.4383C34.3511 15.3084 34.3405 15.087 34.4704 14.9439L34.9887 15.4145ZM31.9639 17.9174C32.0831 17.7652 32.3031 17.7384 32.4553 17.8576C32.6075 17.9768 32.6343 18.1967 32.5151 18.349L31.9639 17.9174ZM30.2555 21.4534C30.1473 21.6135 29.9297 21.6555 29.7695 21.5472C29.6094 21.4389 29.5674 21.2214 29.6757 21.0612L30.2555 21.4534ZM27.6077 24.3534C27.705 24.1864 27.9193 24.1298 28.0863 24.2271C28.2534 24.3244 28.3099 24.5387 28.2126 24.7057L27.6077 24.3534ZM26.3902 28.0863C26.3041 28.2594 26.094 28.3299 25.9209 28.2438C25.7478 28.1577 25.6773 27.9476 25.7634 27.7745L26.3902 28.0863ZM24.1474 31.3088C24.222 31.1305 24.427 31.0464 24.6053 31.1209C24.7836 31.1955 24.8678 31.4005 24.7932 31.5789L24.1474 31.3088ZM23.4286 35.1717C23.366 35.3546 23.167 35.4522 22.9841 35.3896C22.8012 35.327 22.7037 35.1281 22.7663 34.9452L23.4286 35.1717ZM21.6336 38.6656C21.6835 38.4789 21.8753 38.3679 22.0621 38.4177C22.2488 38.4676 22.3598 38.6594 22.31 38.8462L21.6336 38.6656ZM21.4539 42.5852C21.4177 42.7751 21.2344 42.8997 21.0445 42.8635C20.8547 42.8272 20.7301 42.644 20.7663 42.4541L21.4539 42.5852ZM20.1855 46.3027C20.2067 46.1105 20.3797 45.972 20.5718 45.9932C20.7639 46.0144 20.9025 46.1874 20.8813 46.3795L20.1855 46.3027ZM20.6229 50.2074C20.6185 50.4007 20.4582 50.5537 20.2649 50.5492C20.0717 50.5448 19.9186 50.3845 19.9231 50.1912L20.6229 50.2074ZM20.0199 54.0814C20.0054 53.8886 20.1499 53.7206 20.3426 53.7061C20.5354 53.6916 20.7034 53.8361 20.7179 54.0289L20.0199 54.0814ZM21.2164 57.8248C21.2528 58.0146 21.1283 58.198 20.9385 58.2343C20.7486 58.2707 20.5653 58.1462 20.5289 57.9564L21.2164 57.8248ZM21.5105 61.7349C21.4492 61.5515 21.5481 61.3532 21.7314 61.2919C21.9147 61.2306 22.113 61.3294 22.1743 61.5128L21.5105 61.7349ZM23.656 65.0208C23.7454 65.1922 23.6789 65.4036 23.5075 65.493C23.3361 65.5824 23.1247 65.5159 23.0354 65.3445L23.656 65.0208ZM25.1489 68.6448C25.0301 68.4923 25.0573 68.2724 25.2098 68.1535C25.3622 68.0347 25.5821 68.0619 25.701 68.2144L25.1489 68.6448ZM28.311 70.9584C28.4575 71.0845 28.4741 71.3054 28.348 71.452C28.2219 71.5985 28.0009 71.6151 27.8544 71.489L28.311 70.9584ZM31.0703 73.7383C30.9018 73.6437 30.8418 73.4303 30.9364 73.2618C31.0311 73.0932 31.2444 73.0333 31.413 73.1279L31.0703 73.7383ZM34.9761 74.7599C35.1557 74.8313 35.2434 75.0349 35.172 75.2145C35.1005 75.3941 34.897 75.4818 34.7174 75.4103L34.9761 74.7599ZM38.5638 76.792C38.3799 76.7326 38.279 76.5352 38.3384 76.3513C38.3979 76.1674 38.5952 76.0665 38.7791 76.126L38.5638 76.792ZM42.665 77.2535C42.8522 77.3018 42.9648 77.4927 42.9165 77.6799C42.8682 77.867 42.6773 77.9796 42.4901 77.9313L42.665 77.2535ZM46.4771 78.8345C46.2874 78.7975 46.1636 78.6137 46.2006 78.424C46.2377 78.2343 46.4215 78.1105 46.6112 78.1475L46.4771 78.8345ZM50.6033 78.7987C50.795 78.8237 50.9301 78.9994 50.905 79.191C50.88 79.3827 50.7044 79.5178 50.5127 79.4928L50.6033 78.7987ZM54.5848 79.8839C54.3919 79.8723 54.2449 79.7064 54.2566 79.5135C54.2682 79.3205 54.4341 79.1736 54.6271 79.1852L54.5848 79.8839ZM58.6645 79.273C58.8577 79.2693 59.0174 79.423 59.021 79.6163C59.0247 79.8095 58.871 79.9692 58.6777 79.9728L58.6645 79.273ZM62.7673 79.7098C62.5752 79.7315 62.4019 79.5933 62.3803 79.4012C62.3586 79.2091 62.4968 79.0359 62.6889 79.0142L62.7673 79.7098ZM66.6583 78.3472C66.8468 78.3042 67.0344 78.4221 67.0774 78.6106C67.1204 78.799 67.0025 78.9867 66.814 79.0297L66.6583 78.3472ZM70.7525 77.8537C70.5716 77.9218 70.3697 77.8304 70.3016 77.6495C70.2334 77.4686 70.3248 77.2667 70.5057 77.1986L70.7525 77.8537ZM74.1292 75.4957C74.2967 75.3991 74.5107 75.4567 74.6072 75.6241C74.7038 75.7916 74.6463 76.0056 74.4788 76.1021L74.1292 75.4957ZM77.8483 73.725C77.7016 73.8509 77.4807 73.8339 77.3548 73.6872C77.229 73.5405 77.2459 73.3195 77.3926 73.1937L77.8483 73.725ZM80.1523 70.3125C80.2717 70.1605 80.4917 70.134 80.6438 70.2534C80.7958 70.3728 80.8223 70.5928 80.7029 70.7449L80.1523 70.3125ZM82.9298 67.2754C82.8408 67.447 82.6295 67.5139 82.4579 67.4249C82.2863 67.3359 82.2194 67.1247 82.3084 66.9531L82.9298 67.2754ZM83.8445 63.2618C83.9043 63.078 84.1019 62.9776 84.2856 63.0374C84.4694 63.0973 84.5699 63.2948 84.51 63.4786L83.8445 63.2618ZM85.5065 59.4888C85.4721 59.679 85.29 59.8052 85.0997 59.7708C84.9095 59.7363 84.7833 59.5542 84.8178 59.364L85.5065 59.4888ZM85.2448 55.4668C85.2466 55.2735 85.4048 55.1183 85.5981 55.1201C85.7914 55.1218 85.9466 55.28 85.9448 55.4733L85.2448 55.4668ZM85.5152 51.5557C85.5591 51.7439 85.4421 51.9321 85.2538 51.976C85.0656 52.0199 84.8774 51.9029 84.8335 51.7146L85.5152 51.5557ZM83.5549 48.1624C83.4696 47.989 83.541 47.7792 83.7144 47.6938C83.8879 47.6085 84.0976 47.6799 84.183 47.8533L83.5549 48.1624ZM82.1095 44.5218C82.2264 44.6758 82.1963 44.8953 82.0423 45.0122C81.8883 45.1291 81.6688 45.099 81.5519 44.945L82.1095 44.5218ZM79.0153 42.0983C78.8766 41.9636 78.8734 41.742 79.0081 41.6034C79.1427 41.4647 79.3643 41.4615 79.503 41.5962L79.0153 42.0983ZM76.5416 39.0494C76.6949 39.167 76.7238 39.3868 76.6061 39.5401C76.4884 39.6934 76.2687 39.7223 76.1154 39.6046L76.5416 39.0494ZM72.97 37.4179C72.8066 37.3146 72.758 37.0984 72.8613 36.935C72.9646 36.7717 73.1808 36.723 73.3442 36.8264L72.97 37.4179ZM69.9802 34.8708C70.1506 34.962 70.2148 35.1741 70.1235 35.3445C70.0322 35.5149 69.8201 35.5791 69.6497 35.4878L69.9802 34.8708ZM66.1957 33.7715C66.0202 33.6905 65.9436 33.4825 66.0246 33.307C66.1056 33.1315 66.3136 33.0549 66.4891 33.1359L66.1957 33.7715ZM62.9322 31.6016C63.1114 31.6739 63.1981 31.8778 63.1258 32.0571C63.0535 32.2363 62.8496 32.3231 62.6703 32.2507L62.9322 31.6016ZM59.07 30.8879C58.8879 30.8232 58.7927 30.6231 58.8574 30.441C58.9221 30.2588 59.1223 30.1636 59.3044 30.2283L59.07 30.8879ZM55.6239 28.9973C55.8083 29.0553 55.9107 29.2519 55.8527 29.4362C55.7946 29.6206 55.5981 29.723 55.4137 29.665L55.6239 28.9973ZM51.715 28.567C51.5288 28.5149 51.4201 28.3217 51.4722 28.1356C51.5243 27.9494 51.7174 27.8408 51.9036 27.8929L51.715 28.567ZM48.1526 26.9021C48.3401 26.9488 48.4543 27.1388 48.4076 27.3263C48.3609 27.5139 48.1709 27.6281 47.9834 27.5813L48.1526 26.9021ZM44.226 26.6979C44.0373 26.656 43.9182 26.4691 43.96 26.2804C44.0019 26.0917 44.1888 25.9726 44.3775 26.0144L44.226 26.6979ZM40.5831 25.2211C40.7728 25.2585 40.8963 25.4425 40.8589 25.6322C40.8216 25.8218 40.6376 25.9453 40.4479 25.908L40.5831 25.2211ZM36.653 25.2046C36.4626 25.1714 36.3351 24.9901 36.3682 24.7997C36.4014 24.6093 36.5827 24.4818 36.7731 24.5149L36.653 25.2046ZM32.9501 23.8899C33.1412 23.9192 33.2723 24.0978 33.2431 24.2889C33.2138 24.4799 33.0352 24.6111 32.8441 24.5819L32.9501 23.8899ZM29.0236 24.035C28.832 24.0094 28.6974 23.8334 28.723 23.6418C28.7486 23.4502 28.9246 23.3156 29.1162 23.3411L29.0236 24.035ZM25.2732 22.8645C25.4652 22.8866 25.603 23.0601 25.581 23.2522C25.559 23.4442 25.3854 23.582 25.1934 23.56L25.2732 22.8645ZM21.3549 23.1536C21.1625 23.1349 21.0217 22.9638 21.0403 22.7714C21.059 22.579 21.2301 22.4382 21.4225 22.4568L21.3549 23.1536ZM17.5654 22.1154C17.7581 22.1308 17.9018 22.2995 17.8864 22.4922C17.8709 22.6849 17.7022 22.8286 17.5095 22.8131L17.5654 22.1154ZM13.6586 22.5366C13.4657 22.5243 13.3193 22.3579 13.3316 22.165C13.3439 21.9721 13.5102 21.8257 13.7031 21.838L13.6586 22.5366ZM9.83663 21.623C10.0297 21.6322 10.1788 21.7962 10.1696 21.9892C10.1604 22.1823 9.99642 22.3314 9.80333 22.3222L9.83663 21.623ZM5.94474 22.1688C5.75154 22.1627 5.59991 22.0011 5.60608 21.8079C5.61224 21.6147 5.77387 21.463 5.96706 21.4692L5.94474 22.1688ZM2.09541 21.3757C2.28869 21.3789 2.4428 21.5381 2.43963 21.7314C2.43645 21.9247 2.27721 22.0788 2.08393 22.0756L2.09541 21.3757ZM135.583 24.3364C135.162 24.0891 134.605 23.7498 133.928 23.3358L134.293 22.7385C134.972 23.1535 135.523 23.4891 135.938 23.7326L135.583 24.3364ZM130.636 21.3408C129.636 20.7429 128.521 20.0862 127.302 19.3862L127.651 18.7792C128.874 19.4816 129.992 20.1403 130.995 20.74L130.636 21.3408ZM123.942 17.4981C122.862 16.905 121.725 16.2937 120.535 15.6716L120.86 15.0513C122.054 15.6758 123.195 16.2893 124.279 16.8845L123.942 17.4981ZM117.1 13.9211C115.975 13.3633 114.813 12.8023 113.618 12.2432L113.915 11.6092C115.115 12.1707 116.281 12.734 117.411 13.294L117.1 13.9211ZM110.111 10.6521C108.951 10.1429 107.766 9.63921 106.557 9.14493L106.822 8.49703C108.036 8.99367 109.227 9.49967 110.392 10.0111L110.111 10.6521ZM102.964 7.73157C101.774 7.28235 100.566 6.84504 99.3413 6.42296L99.5694 5.76117C100.801 6.18555 102.016 6.62518 103.211 7.07669L102.964 7.73157ZM95.6782 5.22361C94.4572 4.84518 93.223 4.48429 91.9775 4.144L92.162 3.46875C93.4154 3.81121 94.6573 4.17432 95.8855 4.55499L95.6782 5.22361ZM88.2417 3.19555C86.9943 2.90338 85.738 2.63419 84.4749 2.39087L84.6073 1.70351C85.88 1.94865 87.1453 2.2198 88.4014 2.51399L88.2417 3.19555ZM80.6795 1.74337C79.4104 1.55541 78.1365 1.39598 76.8598 1.26798L76.9297 0.571475C78.2178 0.70062 79.5026 0.861418 80.7821 1.05093L80.6795 1.74337ZM73.023 0.981097C71.7416 0.918758 70.4593 0.89077 69.1782 0.900003L69.1732 0.200022C70.4678 0.19069 71.7631 0.218978 73.057 0.281924L73.023 0.981097ZM65.337 1.04246C64.059 1.12916 62.7841 1.25602 61.5142 1.42592L61.4214 0.732102C62.7069 0.560108 63.9969 0.431755 65.2896 0.344066L65.337 1.04246ZM57.7283 2.06632C57.1015 2.19523 56.4765 2.33555 55.8535 2.48762L55.6875 1.80758C56.3189 1.65346 56.9522 1.51128 57.5872 1.38067L57.7283 2.06632ZM55.8535 2.48762C55.2301 2.63978 54.6132 2.80788 54.0029 2.99133L53.8014 2.32097C54.4233 2.13401 55.052 1.96268 55.6875 1.80758L55.8535 2.48762ZM50.4021 4.28017C49.2215 4.77213 48.0692 5.32234 46.9466 5.92603L46.615 5.30951C47.7574 4.69523 48.9304 4.13507 50.1328 3.63403L50.4021 4.28017ZM43.6624 7.89687C42.5997 8.60329 41.5679 9.35845 40.5681 10.1575L40.1311 9.61073C41.1463 8.79928 42.1946 8.03201 43.2749 7.31391L43.6624 7.89687ZM37.6746 12.6741C36.7459 13.5505 35.8502 14.4656 34.9887 15.4145L34.4704 14.9439C35.3436 13.9821 36.2519 13.0541 37.1941 12.165L37.6746 12.6741ZM32.5151 18.349C31.7263 19.3565 30.9727 20.3929 30.2555 21.4534L29.6757 21.0612C30.4018 19.9876 31.1649 18.9381 31.9639 17.9174L32.5151 18.349ZM28.2126 24.7057C27.5667 25.8147 26.9588 26.9432 26.3902 28.0863L25.7634 27.7745C26.3388 26.6178 26.954 25.4758 27.6077 24.3534L28.2126 24.7057ZM24.7932 31.5789C24.2959 32.7681 23.8406 33.9674 23.4286 35.1717L22.7663 34.9452C23.1833 33.7261 23.6441 32.5123 24.1474 31.3088L24.7932 31.5789ZM22.31 38.8462C21.9766 40.0947 21.6908 41.3429 21.4539 42.5852L20.7663 42.4541C21.0064 41.1948 21.296 39.9301 21.6336 38.6656L22.31 38.8462ZM20.8813 46.3795C20.7387 47.6708 20.652 48.9489 20.6229 50.2074L19.9231 50.1912C19.9527 48.9116 20.0408 47.6132 20.1855 46.3027L20.8813 46.3795ZM20.7179 54.0289C20.8156 55.3275 20.9811 56.5954 21.2164 57.8248L20.5289 57.9564C20.2883 56.6993 20.1194 55.4049 20.0199 54.0814L20.7179 54.0289ZM22.1743 61.5128C22.5848 62.7398 23.078 63.9123 23.656 65.0208L23.0354 65.3445C22.4393 64.2013 21.9319 62.9946 21.5105 61.7349L22.1743 61.5128ZM25.701 68.2144C26.4774 69.2103 27.3465 70.1285 28.311 70.9584L27.8544 71.489C26.8538 70.628 25.9529 69.6761 25.1489 68.6448L25.701 68.2144ZM31.413 73.1279C31.9594 73.4346 32.5281 73.7194 33.1194 73.981L32.8361 74.6212C32.2248 74.3506 31.6363 74.056 31.0703 73.7383L31.413 73.1279ZM33.1194 73.981C33.7148 74.2445 34.3345 74.5047 34.9761 74.7599L34.7174 75.4103C34.0679 75.1519 33.4399 74.8883 32.8361 74.6212L33.1194 73.981ZM38.7791 76.126C40.0268 76.5294 41.3265 76.9081 42.665 77.2535L42.4901 77.9313C41.1379 77.5824 39.8247 77.1997 38.5638 76.792L38.7791 76.126ZM46.6112 78.1475C47.9229 78.4036 49.2572 78.623 50.6033 78.7987L50.5127 79.4928C49.1514 79.3151 47.8026 79.0933 46.4771 78.8345L46.6112 78.1475ZM54.6271 79.1852C55.9758 79.2668 57.3251 79.2983 58.6645 79.273L58.6777 79.9728C57.3185 79.9986 55.9507 79.9665 54.5848 79.8839L54.6271 79.1852ZM62.6889 79.0142C64.0383 78.8622 65.3653 78.6423 66.6583 78.3472L66.814 79.0297C65.4934 79.331 64.1405 79.5551 62.7673 79.7098L62.6889 79.0142ZM70.5057 77.1986C71.7676 76.7232 72.9796 76.1583 74.1292 75.4957L74.4788 76.1021C73.2939 76.7852 72.0472 77.3659 70.7525 77.8537L70.5057 77.1986ZM77.3926 73.1937C78.3886 72.3395 79.3125 71.3819 80.1523 70.3125L80.7029 70.7449C79.8342 71.851 78.8783 72.8417 77.8483 73.725L77.3926 73.1937ZM82.3084 66.9531C82.8969 65.8185 83.4118 64.5901 83.8445 63.2618L84.51 63.4786C84.0661 64.8416 83.5366 66.1055 82.9298 67.2754L82.3084 66.9531ZM84.8178 59.364C84.9353 58.7155 85.0362 58.0477 85.1199 57.3601L85.8148 57.4447C85.7295 58.1453 85.6265 58.8265 85.5065 59.4888L84.8178 59.364ZM85.1199 57.3601C85.1978 56.7201 85.2391 56.089 85.2448 55.4668L85.9448 55.4733C85.9388 56.1221 85.8958 56.7793 85.8148 57.4447L85.1199 57.3601ZM84.8335 51.7146C84.5491 50.4953 84.1202 49.3112 83.5549 48.1624L84.183 47.8533C84.7707 49.0476 85.2181 50.2819 85.5152 51.5557L84.8335 51.7146ZM81.5519 44.945C80.8098 43.9672 79.9623 43.0181 79.0153 42.0983L79.503 41.5962C80.4728 42.5381 81.3442 43.5133 82.1095 44.5218L81.5519 44.945ZM76.1154 39.6046C75.1359 38.8529 74.086 38.1239 72.97 37.4179L73.3442 36.8264C74.4765 37.5426 75.5439 38.2836 76.5416 39.0494L76.1154 39.6046ZM69.6497 35.4878C68.5465 34.8969 67.3941 34.3248 66.1957 33.7715L66.4891 33.1359C67.6992 33.6946 68.864 34.2729 69.9802 34.8708L69.6497 35.4878ZM62.6703 32.2507C61.5048 31.7807 60.304 31.3264 59.07 30.8879L59.3044 30.2283C60.547 30.6699 61.7571 31.1276 62.9322 31.6016L62.6703 32.2507ZM55.4137 29.665C54.2068 29.2851 52.9732 28.919 51.715 28.567L51.9036 27.8929C53.1688 28.2469 54.4095 28.615 55.6239 28.9973L55.4137 29.665ZM47.9834 27.5813C46.7507 27.2743 45.4977 26.9798 44.226 26.6979L44.3775 26.0144C45.6549 26.2976 46.9138 26.5935 48.1526 26.9021L47.9834 27.5813ZM40.4479 25.908C39.1981 25.6619 37.9327 25.4274 36.653 25.2046L36.7731 24.5149C38.0577 24.7387 39.3282 24.9741 40.5831 25.2211L40.4479 25.908ZM32.8441 24.5819C31.5822 24.3886 30.3082 24.2063 29.0236 24.035L29.1162 23.3411C30.4052 23.5131 31.6836 23.696 32.9501 23.8899L32.8441 24.5819ZM25.1934 23.56C23.9224 23.4141 22.6425 23.2786 21.3549 23.1536L21.4225 22.4568C22.7141 22.5822 23.9981 22.7182 25.2732 22.8645L25.1934 23.56ZM17.5095 22.8131C16.2318 22.7108 14.9478 22.6186 13.6586 22.5366L13.7031 21.838C14.996 21.9203 16.2839 22.0127 17.5654 22.1154L17.5095 22.8131ZM9.80333 22.3222C8.52071 22.2611 7.23415 22.21 5.94474 22.1688L5.96706 21.4692C7.26012 21.5105 8.55034 21.5617 9.83663 21.623L9.80333 22.3222ZM2.08393 22.0756C1.44037 22.0651 0.796367 22.057 0.152063 22.0514L0.158141 21.3514C0.804242 21.357 1.45004 21.3651 2.09541 21.3757L2.08393 22.0756Z" fill="white"/>
</svg>
